<svg width="154" height="155" viewBox="0 0 154 155" fill="none" xmlns="http://www.w3.org/2000/svg">
<g clip-path="url(#clip0_3_146)">
<path d="M28.03 147.181L30.6225 146.449C31.0958 146.175 31.6751 146.548 31.6468 147.111L31.562 148.905C31.4985 150.327 30.5731 150.777 29.2662 151.185L26.9351 151.91C19.8993 154.099 12.3691 154.141 5.31214 152.03L2.72671 151.256C1.37042 150.847 0.430903 150.355 0.395583 148.884L0.360263 147.301C0.346135 146.702 1.00309 146.351 1.46225 146.709L3.86402 147.821L4.68344 148.011C12.2914 149.792 20.2455 149.538 27.7263 147.265L28.0441 147.167L28.03 147.181Z" stroke="white" stroke-linecap="round" stroke-linejoin="round"/>
<path d="M16.2755 153.586L16.2755 152.298" stroke="white" stroke-linecap="round" stroke-linejoin="round"/>
<path d="M3.87814 147.576L2.81148 132.312C2.55011 128.547 5.53819 125.352 9.3245 125.352L22.7108 125.352C26.5183 125.352 29.5135 128.575 29.2238 132.354L28.0512 146.956" stroke="white" stroke-linecap="round" stroke-linejoin="round"/>
<path d="M26.6596 152.115L28.694 154.423C28.9413 154.697 29.3651 154.733 29.6547 154.493C29.9585 154.247 30.0009 153.797 29.7395 153.501L28.136 151.636" stroke="white" stroke-linecap="round" stroke-linejoin="round"/>
<path d="M5.30508 152.27L3.35541 154.416C3.10817 154.691 2.68433 154.726 2.39471 154.487C2.09095 154.24 2.04857 153.79 2.30994 153.494L3.84989 151.679" stroke="white" stroke-linecap="round" stroke-linejoin="round"/>
<path d="M28.906 149.581L28.8495 149.602C20.3938 152.769 11.3801 152.79 2.91038 149.666L2.6702 149.581" stroke="white" stroke-linecap="round" stroke-linejoin="round"/>
</g>
<g clip-path="url(#clip1_3_146)">
<path d="M28.03 105.441L30.6225 104.734C31.0958 104.469 31.6751 104.829 31.6468 105.373L31.562 107.108C31.4985 108.482 30.5731 108.918 29.2662 109.312L26.9351 110.013C19.8993 112.129 12.3691 112.169 5.31214 110.129L2.72671 109.38C1.37042 108.986 0.430903 108.51 0.395583 107.088L0.360263 105.557C0.346135 104.979 1.00309 104.639 1.46225 104.986L3.86402 106.061L4.68344 106.244C12.2914 107.965 20.2455 107.72 27.7263 105.523L28.0441 105.428L28.03 105.441Z" stroke="white" stroke-linecap="round" stroke-linejoin="round"/>
<path d="M16.2755 111.633L16.2755 110.388" stroke="white" stroke-linecap="round" stroke-linejoin="round"/>
<path d="M3.87814 105.823L2.81148 91.068C2.55011 87.4286 5.53819 84.3401 9.3245 84.3401L22.7108 84.3401C26.5183 84.3401 29.5135 87.4558 29.2238 91.1088L28.0512 105.224" stroke="white" stroke-linecap="round" stroke-linejoin="round"/>
<path d="M26.6596 110.211L28.694 112.442C28.9413 112.707 29.3651 112.741 29.6547 112.51C29.9585 112.272 30.0009 111.837 29.7395 111.551L28.136 109.748" stroke="white" stroke-linecap="round" stroke-linejoin="round"/>
<path d="M5.30508 110.361L3.35541 112.435C3.10817 112.701 2.68433 112.735 2.39471 112.503C2.09095 112.265 2.04857 111.83 2.30994 111.544L3.84989 109.789" stroke="white" stroke-linecap="round" stroke-linejoin="round"/>
<path d="M28.906 107.762L28.8495 107.782C20.3938 110.844 11.3801 110.864 2.91038 107.844L2.6702 107.762" stroke="white" stroke-linecap="round" stroke-linejoin="round"/>
</g>
<g clip-path="url(#clip2_3_146)">
<path d="M28.03 64.4414L30.6225 63.7339C31.0958 63.4686 31.6751 63.8291 31.6468 64.3734L31.562 66.108C31.4985 67.4822 30.5731 67.9176 29.2662 68.3121L26.9351 69.0128C19.8993 71.1285 12.3691 71.1693 5.31214 69.1285L2.72671 68.3802C1.37042 67.9856 0.430903 67.5094 0.395583 66.0876L0.360263 64.557C0.346135 63.9788 1.00309 63.6387 1.46225 63.9856L3.86402 65.0604L4.68344 65.2441C12.2914 66.9652 20.2455 66.7203 27.7263 64.523L28.0441 64.4278L28.03 64.4414Z" stroke="white" stroke-linecap="round" stroke-linejoin="round"/>
<path d="M16.2755 70.6327L16.2755 69.3878" stroke="white" stroke-linecap="round" stroke-linejoin="round"/>
<path d="M3.87814 64.8231L2.81148 50.068C2.55011 46.4286 5.53819 43.3401 9.3245 43.3401L22.7108 43.3401C26.5183 43.3401 29.5135 46.4558 29.2238 50.1088L28.0512 64.2245" stroke="white" stroke-linecap="round" stroke-linejoin="round"/>
<path d="M26.6596 69.2109L28.694 71.4422C28.9413 71.7075 29.3651 71.7415 29.6547 71.5102C29.9585 71.2721 30.0009 70.8367 29.7395 70.551L28.136 68.7483" stroke="white" stroke-linecap="round" stroke-linejoin="round"/>
<path d="M5.30508 69.3605L3.35541 71.4354C3.10817 71.7007 2.68433 71.7347 2.39471 71.5034C2.09095 71.2653 2.04857 70.8299 2.30994 70.5442L3.84989 68.7891" stroke="white" stroke-linecap="round" stroke-linejoin="round"/>
<path d="M28.906 66.7619L28.8495 66.7823C20.3938 69.8435 11.3801 69.8639 2.91038 66.8435L2.6702 66.7619" stroke="white" stroke-linecap="round" stroke-linejoin="round"/>
</g>
<g clip-path="url(#clip3_3_146)">
<path d="M28.03 22.181L30.6225 21.4492C31.0958 21.1747 31.6751 21.5477 31.6468 22.1107L31.562 23.9052C31.4985 25.3267 30.5731 25.7771 29.2662 26.1853L26.9351 26.9101C19.8993 29.0987 12.3691 29.1409 5.31214 27.0297L2.72671 26.2556C1.37042 25.8475 0.430903 25.3549 0.395583 23.8841L0.360263 22.3007C0.346135 21.7025 1.00309 21.3506 1.46225 21.7095L3.86402 22.8214L4.68344 23.0114C12.2914 24.7919 20.2455 24.5385 27.7263 22.2655L28.0441 22.167L28.03 22.181Z" stroke="white" stroke-linecap="round" stroke-linejoin="round"/>
<path d="M16.2755 28.5855L16.2755 27.2977" stroke="white" stroke-linecap="round" stroke-linejoin="round"/>
<path d="M3.87814 22.5756L2.81148 7.31175C2.55011 3.5468 5.53819 0.351864 9.3245 0.351864L22.7108 0.351864C26.5183 0.351863 29.5135 3.57495 29.2238 7.35397L28.0512 21.9564" stroke="white" stroke-linecap="round" stroke-linejoin="round"/>
<path d="M26.6596 27.1147L28.694 29.4229C28.9413 29.6974 29.3651 29.7326 29.6547 29.4933C29.9585 29.247 30.0009 28.7966 29.7395 28.5011L28.136 26.6362" stroke="white" stroke-linecap="round" stroke-linejoin="round"/>
<path d="M5.30508 27.2695L3.35541 29.4159C3.10817 29.6904 2.68433 29.7255 2.39471 29.4863C2.09095 29.24 2.04857 28.7896 2.30994 28.494L3.84989 26.6784" stroke="white" stroke-linecap="round" stroke-linejoin="round"/>
<path d="M28.906 24.5813L28.8495 24.6024C20.3938 27.7692 11.3801 27.7903 2.91038 24.6657L2.6702 24.5813" stroke="white" stroke-linecap="round" stroke-linejoin="round"/>
</g>
<g clip-path="url(#clip4_3_146)">
<path d="M65.03 147.181L67.6225 146.449C68.0958 146.175 68.6751 146.548 68.6468 147.111L68.562 148.905C68.4985 150.327 67.5731 150.777 66.2662 151.185L63.9351 151.91C56.8993 154.099 49.3691 154.141 42.3121 152.03L39.7267 151.256C38.3704 150.847 37.4309 150.355 37.3956 148.884L37.3603 147.301C37.3461 146.702 38.0031 146.351 38.4623 146.709L40.864 147.821L41.6834 148.011C49.2914 149.792 57.2455 149.538 64.7263 147.265L65.0442 147.167L65.03 147.181Z" stroke="white" stroke-linecap="round" stroke-linejoin="round"/>
<path d="M53.2755 153.586L53.2755 152.298" stroke="white" stroke-linecap="round" stroke-linejoin="round"/>
<path d="M40.8781 147.576L39.8115 132.312C39.5501 128.547 42.5382 125.352 46.3245 125.352L59.7108 125.352C63.5183 125.352 66.5135 128.575 66.2238 132.354L65.0512 146.956" stroke="white" stroke-linecap="round" stroke-linejoin="round"/>
<path d="M63.6596 152.115L65.694 154.423C65.9413 154.697 66.3651 154.733 66.6547 154.493C66.9585 154.247 67.0009 153.797 66.7395 153.501L65.136 151.636" stroke="white" stroke-linecap="round" stroke-linejoin="round"/>
<path d="M42.3051 152.27L40.3554 154.416C40.1082 154.691 39.6843 154.726 39.3947 154.487C39.0909 154.24 39.0486 153.79 39.3099 153.494L40.8499 151.679" stroke="white" stroke-linecap="round" stroke-linejoin="round"/>
<path d="M65.906 149.581L65.8494 149.602C57.3938 152.769 48.3801 152.79 39.9104 149.666L39.6702 149.581" stroke="white" stroke-linecap="round" stroke-linejoin="round"/>
</g>
<g clip-path="url(#clip5_3_146)">
<path d="M65.03 105.441L67.6225 104.734C68.0958 104.469 68.6751 104.829 68.6468 105.373L68.562 107.108C68.4985 108.482 67.5731 108.918 66.2662 109.312L63.9351 110.013C56.8993 112.129 49.3691 112.169 42.3121 110.129L39.7267 109.38C38.3704 108.986 37.4309 108.51 37.3956 107.088L37.3603 105.557C37.3461 104.979 38.0031 104.639 38.4623 104.986L40.864 106.061L41.6834 106.244C49.2914 107.965 57.2455 107.72 64.7263 105.523L65.0442 105.428L65.03 105.441Z" stroke="white" stroke-linecap="round" stroke-linejoin="round"/>
<path d="M53.2755 111.633L53.2755 110.388" stroke="white" stroke-linecap="round" stroke-linejoin="round"/>
<path d="M40.8781 105.823L39.8115 91.068C39.5501 87.4286 42.5382 84.3401 46.3245 84.3401L59.7108 84.3401C63.5183 84.3401 66.5135 87.4558 66.2238 91.1088L65.0512 105.224" stroke="white" stroke-linecap="round" stroke-linejoin="round"/>
<path d="M63.6596 110.211L65.694 112.442C65.9413 112.707 66.3651 112.741 66.6547 112.51C66.9585 112.272 67.0009 111.837 66.7395 111.551L65.136 109.748" stroke="white" stroke-linecap="round" stroke-linejoin="round"/>
<path d="M42.3051 110.361L40.3554 112.435C40.1082 112.701 39.6843 112.735 39.3947 112.503C39.0909 112.265 39.0486 111.83 39.3099 111.544L40.8499 109.789" stroke="white" stroke-linecap="round" stroke-linejoin="round"/>
<path d="M65.906 107.762L65.8494 107.782C57.3938 110.844 48.3801 110.864 39.9104 107.844L39.6702 107.762" stroke="white" stroke-linecap="round" stroke-linejoin="round"/>
</g>
<g clip-path="url(#clip6_3_146)">
<path d="M65.03 64.4414L67.6225 63.7339C68.0958 63.4686 68.6751 63.8291 68.6468 64.3734L68.562 66.108C68.4985 67.4822 67.5731 67.9176 66.2662 68.3121L63.9351 69.0128C56.8993 71.1285 49.3691 71.1693 42.3121 69.1285L39.7267 68.3802C38.3704 67.9856 37.4309 67.5094 37.3956 66.0876L37.3603 64.557C37.3461 63.9788 38.0031 63.6387 38.4623 63.9856L40.864 65.0604L41.6834 65.2441C49.2914 66.9652 57.2455 66.7203 64.7263 64.523L65.0442 64.4278L65.03 64.4414Z" stroke="white" stroke-linecap="round" stroke-linejoin="round"/>
<path d="M53.2755 70.6327L53.2755 69.3878" stroke="white" stroke-linecap="round" stroke-linejoin="round"/>
<path d="M40.8781 64.8231L39.8115 50.068C39.5501 46.4286 42.5382 43.3401 46.3245 43.3401L59.7108 43.3401C63.5183 43.3401 66.5135 46.4558 66.2238 50.1088L65.0512 64.2245" stroke="white" stroke-linecap="round" stroke-linejoin="round"/>
<path d="M63.6596 69.2109L65.694 71.4422C65.9413 71.7075 66.3651 71.7415 66.6547 71.5102C66.9585 71.2721 67.0009 70.8367 66.7395 70.551L65.136 68.7483" stroke="white" stroke-linecap="round" stroke-linejoin="round"/>
<path d="M42.3051 69.3605L40.3554 71.4354C40.1082 71.7007 39.6843 71.7347 39.3947 71.5034C39.0909 71.2653 39.0486 70.8299 39.3099 70.5442L40.8499 68.7891" stroke="white" stroke-linecap="round" stroke-linejoin="round"/>
<path d="M65.906 66.7619L65.8494 66.7823C57.3938 69.8435 48.3801 69.8639 39.9104 66.8435L39.6702 66.7619" stroke="white" stroke-linecap="round" stroke-linejoin="round"/>
</g>
<g clip-path="url(#clip7_3_146)">
<path d="M65.03 22.181L67.6225 21.4492C68.0958 21.1747 68.6751 21.5477 68.6468 22.1107L68.562 23.9052C68.4985 25.3267 67.5731 25.7771 66.2662 26.1853L63.9351 26.9101C56.8993 29.0987 49.3691 29.1409 42.3121 27.0297L39.7267 26.2556C38.3704 25.8475 37.4309 25.3549 37.3956 23.8841L37.3603 22.3007C37.3461 21.7025 38.0031 21.3506 38.4623 21.7095L40.864 22.8214L41.6834 23.0114C49.2914 24.7919 57.2455 24.5385 64.7263 22.2655L65.0442 22.167L65.03 22.181Z" stroke="white" stroke-linecap="round" stroke-linejoin="round"/>
<path d="M53.2755 28.5855L53.2755 27.2977" stroke="white" stroke-linecap="round" stroke-linejoin="round"/>
<path d="M40.8781 22.5756L39.8115 7.31175C39.5501 3.5468 42.5382 0.351864 46.3245 0.351864L59.7108 0.351864C63.5183 0.351863 66.5135 3.57495 66.2238 7.35397L65.0512 21.9564" stroke="white" stroke-linecap="round" stroke-linejoin="round"/>
<path d="M63.6596 27.1147L65.694 29.4229C65.9413 29.6974 66.3651 29.7326 66.6547 29.4933C66.9585 29.247 67.0009 28.7966 66.7395 28.5011L65.136 26.6362" stroke="white" stroke-linecap="round" stroke-linejoin="round"/>
<path d="M42.3051 27.2695L40.3554 29.4159C40.1082 29.6904 39.6843 29.7255 39.3947 29.4863C39.0909 29.24 39.0486 28.7896 39.3099 28.494L40.8499 26.6784" stroke="white" stroke-linecap="round" stroke-linejoin="round"/>
<path d="M65.906 24.5813L65.8494 24.6024C57.3938 27.7692 48.3801 27.7903 39.9104 24.6657L39.6702 24.5813" stroke="white" stroke-linecap="round" stroke-linejoin="round"/>
</g>
<g clip-path="url(#clip8_3_146)">
<path d="M113.278 147.181L115.709 146.449C116.152 146.175 116.695 146.548 116.669 147.111L116.589 148.905C116.53 150.327 115.662 150.777 114.437 151.185L112.252 151.91C105.656 154.099 98.596 154.141 91.9801 152.03L89.5563 151.256C88.2848 150.847 87.404 150.355 87.3709 148.884L87.3377 147.301C87.3245 146.702 87.9404 146.351 88.3709 146.709L90.6225 147.821L91.3907 148.011C98.5232 149.792 105.98 149.538 112.993 147.265L113.291 147.167L113.278 147.181Z" stroke="white" stroke-linecap="round" stroke-linejoin="round"/>
<path d="M102.258 153.586L102.258 152.298" stroke="white" stroke-linecap="round" stroke-linejoin="round"/>
<path d="M90.6358 147.576L89.6358 132.312C89.3907 128.547 92.1921 125.352 95.7417 125.352L108.291 125.352C111.861 125.352 114.669 128.575 114.397 132.354L113.298 146.956" stroke="white" stroke-linecap="round" stroke-linejoin="round"/>
<path d="M111.993 152.115L113.901 154.423C114.132 154.697 114.53 154.733 114.801 154.493C115.086 154.247 115.126 153.797 114.881 153.501L113.377 151.636" stroke="white" stroke-linecap="round" stroke-linejoin="round"/>
<path d="M91.9735 152.27L90.1457 154.416C89.9139 154.691 89.5166 154.726 89.245 154.487C88.9603 154.24 88.9205 153.79 89.1656 153.494L90.6093 151.679" stroke="white" stroke-linecap="round" stroke-linejoin="round"/>
<path d="M114.099 149.581L114.046 149.602C106.119 152.769 97.6689 152.79 89.7285 149.666L89.5033 149.581" stroke="white" stroke-linecap="round" stroke-linejoin="round"/>
</g>
<g clip-path="url(#clip9_3_146)">
<path d="M113.278 105.441L115.709 104.734C116.152 104.469 116.695 104.829 116.669 105.373L116.589 107.108C116.53 108.482 115.662 108.918 114.437 109.312L112.252 110.013C105.656 112.129 98.596 112.169 91.9801 110.129L89.5563 109.38C88.2848 108.986 87.404 108.51 87.3709 107.088L87.3377 105.557C87.3245 104.979 87.9404 104.639 88.3709 104.986L90.6225 106.061L91.3907 106.244C98.5232 107.965 105.98 107.72 112.993 105.523L113.291 105.428L113.278 105.441Z" stroke="white" stroke-linecap="round" stroke-linejoin="round"/>
<path d="M102.258 111.633L102.258 110.388" stroke="white" stroke-linecap="round" stroke-linejoin="round"/>
<path d="M90.6358 105.823L89.6358 91.068C89.3907 87.4286 92.1921 84.3401 95.7417 84.3401L108.291 84.3401C111.861 84.3401 114.669 87.4558 114.397 91.1088L113.298 105.224" stroke="white" stroke-linecap="round" stroke-linejoin="round"/>
<path d="M111.993 110.211L113.901 112.442C114.132 112.707 114.53 112.741 114.801 112.51C115.086 112.272 115.126 111.837 114.881 111.551L113.377 109.748" stroke="white" stroke-linecap="round" stroke-linejoin="round"/>
<path d="M91.9735 110.361L90.1457 112.435C89.9139 112.701 89.5166 112.735 89.245 112.503C88.9603 112.265 88.9205 111.83 89.1656 111.544L90.6093 109.789" stroke="white" stroke-linecap="round" stroke-linejoin="round"/>
<path d="M114.099 107.762L114.046 107.782C106.119 110.844 97.6689 110.864 89.7285 107.844L89.5033 107.762" stroke="white" stroke-linecap="round" stroke-linejoin="round"/>
</g>
<g clip-path="url(#clip10_3_146)">
<path d="M113.278 64.4414L115.709 63.7339C116.152 63.4686 116.695 63.8291 116.669 64.3734L116.589 66.108C116.53 67.4822 115.662 67.9176 114.437 68.3121L112.252 69.0128C105.656 71.1285 98.596 71.1693 91.9801 69.1285L89.5563 68.3802C88.2848 67.9856 87.404 67.5094 87.3709 66.0876L87.3377 64.557C87.3245 63.9788 87.9404 63.6387 88.3709 63.9856L90.6225 65.0604L91.3907 65.2441C98.5232 66.9652 105.98 66.7203 112.993 64.523L113.291 64.4278L113.278 64.4414Z" stroke="white" stroke-linecap="round" stroke-linejoin="round"/>
<path d="M102.258 70.6327L102.258 69.3878" stroke="white" stroke-linecap="round" stroke-linejoin="round"/>
<path d="M90.6358 64.8231L89.6358 50.068C89.3907 46.4286 92.1921 43.3401 95.7417 43.3401L108.291 43.3401C111.861 43.3401 114.669 46.4558 114.397 50.1088L113.298 64.2245" stroke="white" stroke-linecap="round" stroke-linejoin="round"/>
<path d="M111.993 69.2109L113.901 71.4422C114.132 71.7075 114.53 71.7415 114.801 71.5102C115.086 71.2721 115.126 70.8367 114.881 70.551L113.377 68.7483" stroke="white" stroke-linecap="round" stroke-linejoin="round"/>
<path d="M91.9735 69.3605L90.1457 71.4354C89.9139 71.7007 89.5166 71.7347 89.245 71.5034C88.9603 71.2653 88.9205 70.8299 89.1656 70.5442L90.6093 68.7891" stroke="white" stroke-linecap="round" stroke-linejoin="round"/>
<path d="M114.099 66.7619L114.046 66.7823C106.119 69.8435 97.6689 69.8639 89.7285 66.8435L89.5033 66.7619" stroke="white" stroke-linecap="round" stroke-linejoin="round"/>
</g>
<g clip-path="url(#clip11_3_146)">
<path d="M113.278 22.181L115.709 21.4492C116.152 21.1747 116.695 21.5477 116.669 22.1107L116.589 23.9052C116.53 25.3267 115.662 25.7771 114.437 26.1853L112.252 26.9101C105.656 29.0987 98.596 29.1409 91.9801 27.0297L89.5563 26.2556C88.2848 25.8475 87.404 25.3549 87.3709 23.8841L87.3377 22.3007C87.3245 21.7025 87.9404 21.3506 88.3709 21.7095L90.6225 22.8214L91.3907 23.0114C98.5232 24.7919 105.98 24.5385 112.993 22.2655L113.291 22.167L113.278 22.181Z" stroke="white" stroke-linecap="round" stroke-linejoin="round"/>
<path d="M102.258 28.5855L102.258 27.2977" stroke="white" stroke-linecap="round" stroke-linejoin="round"/>
<path d="M90.6358 22.5756L89.6358 7.31175C89.3907 3.5468 92.1921 0.351864 95.7417 0.351864L108.291 0.351864C111.861 0.351863 114.669 3.57495 114.397 7.35397L113.298 21.9564" stroke="white" stroke-linecap="round" stroke-linejoin="round"/>
<path d="M111.993 27.1147L113.901 29.4229C114.132 29.6974 114.53 29.7326 114.801 29.4933C115.086 29.247 115.126 28.7966 114.881 28.5011L113.377 26.6362" stroke="white" stroke-linecap="round" stroke-linejoin="round"/>
<path d="M91.9735 27.2695L90.1457 29.4159C89.9139 29.6904 89.5166 29.7255 89.245 29.4863C88.9603 29.24 88.9205 28.7896 89.1656 28.494L90.6093 26.6784" stroke="white" stroke-linecap="round" stroke-linejoin="round"/>
<path d="M114.099 24.5813L114.046 24.6024C106.119 27.7692 97.6689 27.7903 89.7285 24.6657L89.5033 24.5813" stroke="white" stroke-linecap="round" stroke-linejoin="round"/>
</g>
<g clip-path="url(#clip12_3_146)">
<path d="M150.154 147.181L152.666 146.449C153.124 146.175 153.685 146.548 153.658 147.111L153.576 148.905C153.514 150.327 152.618 150.777 151.352 151.185L149.093 151.91C142.277 154.099 134.983 154.141 128.146 152.03L125.642 151.256C124.328 150.847 123.417 150.355 123.383 148.884L123.349 147.301C123.335 146.702 123.972 146.351 124.417 146.709L126.743 147.821L127.537 148.011C134.907 149.792 142.613 149.538 149.86 147.265L150.168 147.167L150.154 147.181Z" stroke="white" stroke-linecap="round" stroke-linejoin="round"/>
<path d="M138.767 153.586L138.767 152.298" stroke="white" stroke-linecap="round" stroke-linejoin="round"/>
<path d="M126.757 147.576L125.724 132.312C125.47 128.547 128.365 125.352 132.033 125.352L145.001 125.352C148.69 125.352 151.591 128.575 151.311 132.354L150.175 146.956" stroke="white" stroke-linecap="round" stroke-linejoin="round"/>
<path d="M148.826 152.115L150.797 154.423C151.037 154.697 151.447 154.733 151.728 154.493C152.022 154.247 152.063 153.797 151.81 153.501L150.257 151.636" stroke="white" stroke-linecap="round" stroke-linejoin="round"/>
<path d="M128.139 152.27L126.251 154.416C126.011 154.691 125.6 154.726 125.32 154.487C125.026 154.24 124.985 153.79 125.238 153.494L126.73 151.679" stroke="white" stroke-linecap="round" stroke-linejoin="round"/>
<path d="M151.003 149.581L150.948 149.602C142.757 152.769 134.025 152.79 125.819 149.666L125.587 149.581" stroke="white" stroke-linecap="round" stroke-linejoin="round"/>
</g>
<g clip-path="url(#clip13_3_146)">
<path d="M150.154 105.441L152.666 104.734C153.124 104.469 153.685 104.829 153.658 105.373L153.576 107.108C153.514 108.482 152.618 108.918 151.352 109.312L149.093 110.013C142.277 112.129 134.983 112.169 128.146 110.129L125.642 109.38C124.328 108.986 123.417 108.51 123.383 107.088L123.349 105.557C123.335 104.979 123.972 104.639 124.417 104.986L126.743 106.061L127.537 106.244C134.907 107.965 142.613 107.72 149.86 105.523L150.168 105.428L150.154 105.441Z" stroke="white" stroke-linecap="round" stroke-linejoin="round"/>
<path d="M138.767 111.633L138.767 110.388" stroke="white" stroke-linecap="round" stroke-linejoin="round"/>
<path d="M126.757 105.823L125.724 91.068C125.47 87.4286 128.365 84.3401 132.033 84.3401L145.001 84.3401C148.69 84.3401 151.591 87.4558 151.311 91.1088L150.175 105.224" stroke="white" stroke-linecap="round" stroke-linejoin="round"/>
<path d="M148.826 110.211L150.797 112.442C151.037 112.707 151.447 112.741 151.728 112.51C152.022 112.272 152.063 111.837 151.81 111.551L150.257 109.748" stroke="white" stroke-linecap="round" stroke-linejoin="round"/>
<path d="M128.139 110.361L126.251 112.435C126.011 112.701 125.6 112.735 125.32 112.503C125.026 112.265 124.985 111.83 125.238 111.544L126.73 109.789" stroke="white" stroke-linecap="round" stroke-linejoin="round"/>
<path d="M151.003 107.762L150.948 107.782C142.757 110.844 134.025 110.864 125.819 107.844L125.587 107.762" stroke="white" stroke-linecap="round" stroke-linejoin="round"/>
</g>
<g clip-path="url(#clip14_3_146)">
<path d="M150.154 64.4414L152.666 63.7339C153.124 63.4686 153.685 63.8291 153.658 64.3734L153.576 66.108C153.514 67.4822 152.618 67.9176 151.352 68.3121L149.093 69.0128C142.277 71.1285 134.983 71.1693 128.146 69.1285L125.642 68.3802C124.328 67.9856 123.417 67.5094 123.383 66.0876L123.349 64.557C123.335 63.9788 123.972 63.6387 124.417 63.9856L126.743 65.0604L127.537 65.2441C134.907 66.9652 142.613 66.7203 149.86 64.523L150.168 64.4278L150.154 64.4414Z" stroke="white" stroke-linecap="round" stroke-linejoin="round"/>
<path d="M138.767 70.6327L138.767 69.3878" stroke="white" stroke-linecap="round" stroke-linejoin="round"/>
<path d="M126.757 64.8231L125.724 50.068C125.47 46.4286 128.365 43.3401 132.033 43.3401L145.001 43.3401C148.69 43.3401 151.591 46.4558 151.311 50.1088L150.175 64.2245" stroke="white" stroke-linecap="round" stroke-linejoin="round"/>
<path d="M148.826 69.2109L150.797 71.4422C151.037 71.7075 151.447 71.7415 151.728 71.5102C152.022 71.2721 152.063 70.8367 151.81 70.551L150.257 68.7483" stroke="white" stroke-linecap="round" stroke-linejoin="round"/>
<path d="M128.139 69.3605L126.251 71.4354C126.011 71.7007 125.6 71.7347 125.32 71.5034C125.026 71.2653 124.985 70.8299 125.238 70.5442L126.73 68.7891" stroke="white" stroke-linecap="round" stroke-linejoin="round"/>
<path d="M151.003 66.7619L150.948 66.7823C142.757 69.8435 134.025 69.8639 125.819 66.8435L125.587 66.7619" stroke="white" stroke-linecap="round" stroke-linejoin="round"/>
</g>
<g clip-path="url(#clip15_3_146)">
<path d="M150.154 22.181L152.666 21.4492C153.124 21.1747 153.685 21.5477 153.658 22.1107L153.576 23.9052C153.514 25.3267 152.618 25.7771 151.352 26.1853L149.093 26.9101C142.277 29.0987 134.983 29.1409 128.146 27.0297L125.642 26.2556C124.328 25.8475 123.417 25.3549 123.383 23.8841L123.349 22.3007C123.335 21.7025 123.972 21.3506 124.417 21.7095L126.743 22.8214L127.537 23.0114C134.907 24.7919 142.613 24.5385 149.86 22.2655L150.168 22.167L150.154 22.181Z" stroke="white" stroke-linecap="round" stroke-linejoin="round"/>
<path d="M138.767 28.5855L138.767 27.2977" stroke="white" stroke-linecap="round" stroke-linejoin="round"/>
<path d="M126.757 22.5756L125.724 7.31175C125.47 3.5468 128.365 0.351864 132.033 0.351864L145.001 0.351864C148.69 0.351863 151.591 3.57495 151.311 7.35397L150.175 21.9564" stroke="white" stroke-linecap="round" stroke-linejoin="round"/>
<path d="M148.826 27.1147L150.797 29.4229C151.037 29.6974 151.447 29.7326 151.728 29.4933C152.022 29.247 152.063 28.7966 151.81 28.5011L150.257 26.6362" stroke="white" stroke-linecap="round" stroke-linejoin="round"/>
<path d="M128.139 27.2695L126.251 29.4159C126.011 29.6904 125.6 29.7255 125.32 29.4863C125.026 29.24 124.985 28.7896 125.238 28.494L126.73 26.6784" stroke="white" stroke-linecap="round" stroke-linejoin="round"/>
<path d="M151.003 24.5813L150.948 24.6024C142.757 27.7692 134.025 27.7903 125.819 24.6657L125.587 24.5813" stroke="white" stroke-linecap="round" stroke-linejoin="round"/>
</g>
<defs>
<clipPath id="clip0_3_146">
<rect width="30" height="32" fill="white" transform="translate(0 155) rotate(-90)"/>
</clipPath>
<clipPath id="clip1_3_146">
<rect width="29" height="32" fill="white" transform="translate(0 113) rotate(-90)"/>
</clipPath>
<clipPath id="clip2_3_146">
<rect width="29" height="32" fill="white" transform="translate(0 72) rotate(-90)"/>
</clipPath>
<clipPath id="clip3_3_146">
<rect width="30" height="32" fill="white" transform="translate(0 30) rotate(-90)"/>
</clipPath>
<clipPath id="clip4_3_146">
<rect width="30" height="32" fill="white" transform="translate(37 155) rotate(-90)"/>
</clipPath>
<clipPath id="clip5_3_146">
<rect width="29" height="32" fill="white" transform="translate(37 113) rotate(-90)"/>
</clipPath>
<clipPath id="clip6_3_146">
<rect width="29" height="32" fill="white" transform="translate(37 72) rotate(-90)"/>
</clipPath>
<clipPath id="clip7_3_146">
<rect width="30" height="32" fill="white" transform="translate(37 30) rotate(-90)"/>
</clipPath>
<clipPath id="clip8_3_146">
<rect width="30" height="30" fill="white" transform="translate(87 155) rotate(-90)"/>
</clipPath>
<clipPath id="clip9_3_146">
<rect width="29" height="30" fill="white" transform="translate(87 113) rotate(-90)"/>
</clipPath>
<clipPath id="clip10_3_146">
<rect width="29" height="30" fill="white" transform="translate(87 72) rotate(-90)"/>
</clipPath>
<clipPath id="clip11_3_146">
<rect width="30" height="30" fill="white" transform="translate(87 30) rotate(-90)"/>
</clipPath>
<clipPath id="clip12_3_146">
<rect width="30" height="31" fill="white" transform="translate(123 155) rotate(-90)"/>
</clipPath>
<clipPath id="clip13_3_146">
<rect width="29" height="31" fill="white" transform="translate(123 113) rotate(-90)"/>
</clipPath>
<clipPath id="clip14_3_146">
<rect width="29" height="31" fill="white" transform="translate(123 72) rotate(-90)"/>
</clipPath>
<clipPath id="clip15_3_146">
<rect width="30" height="31" fill="white" transform="translate(123 30) rotate(-90)"/>
</clipPath>
</defs>
</svg>
