<svg width="142" height="99" viewBox="0 0 142 99" fill="none" xmlns="http://www.w3.org/2000/svg">
<g clip-path="url(#clip0_1_2)">
<path d="M28.03 91.1809L30.6225 90.449C31.0958 90.1746 31.6751 90.5476 31.6468 91.1106L31.562 92.9051C31.4985 94.3266 30.5731 94.777 29.2662 95.1852L26.9351 95.91C19.8993 98.0986 12.3691 98.1408 5.31214 96.0296L2.72671 95.2555C1.37042 94.8474 0.430903 94.3548 0.395583 92.884L0.360263 91.3006C0.346135 90.7024 1.00309 90.3505 1.46225 90.7094L3.86402 91.8213L4.68344 92.0113C12.2914 93.7918 20.2455 93.5384 27.7263 91.2654L28.0441 91.1669L28.03 91.1809Z" stroke="white" stroke-linecap="round" stroke-linejoin="round"/>
<path d="M16.2755 97.5855L16.2755 96.2977" stroke="white" stroke-linecap="round" stroke-linejoin="round"/>
<path d="M3.87814 91.5756L2.81148 76.3118C2.55011 72.5468 5.53819 69.3519 9.3245 69.3519L22.7108 69.3519C26.5183 69.3519 29.5135 72.5749 29.2238 76.354L28.0512 90.9564" stroke="white" stroke-linecap="round" stroke-linejoin="round"/>
<path d="M26.6596 96.1147L28.694 98.4229C28.9413 98.6974 29.3651 98.7326 29.6547 98.4933C29.9585 98.247 30.0009 97.7966 29.7395 97.5011L28.136 95.6362" stroke="white" stroke-linecap="round" stroke-linejoin="round"/>
<path d="M5.30508 96.2698L3.35541 98.4161C3.10817 98.6906 2.68433 98.7258 2.39471 98.4865C2.09095 98.2402 2.04857 97.7898 2.30994 97.4943L3.84989 95.6786" stroke="white" stroke-linecap="round" stroke-linejoin="round"/>
<path d="M28.906 93.5813L28.8495 93.6024C20.3938 96.7692 11.3801 96.7903 2.91038 93.6657L2.6702 93.5813" stroke="white" stroke-linecap="round" stroke-linejoin="round"/>
</g>
<g clip-path="url(#clip1_1_2)">
<path d="M28.03 29.4415L30.6225 28.734C31.0958 28.4687 31.6751 28.8292 31.6468 29.3734L31.562 31.1081C31.4985 32.4823 30.5731 32.9177 29.2662 33.3122L26.9351 34.0129C19.8993 36.1285 12.3691 36.1694 5.31214 34.1286L2.72671 33.3803C1.37042 32.9857 0.430903 32.5095 0.395583 31.0877L0.360263 29.5571C0.346135 28.9789 1.00309 28.6388 1.46225 28.9857L3.86402 30.0605L4.68344 30.2442C12.2914 31.9653 20.2455 31.7204 27.7263 29.5231L28.0441 29.4279L28.03 29.4415Z" stroke="white" stroke-linecap="round" stroke-linejoin="round"/>
<path d="M16.2755 35.6327L16.2755 34.3878" stroke="white" stroke-linecap="round" stroke-linejoin="round"/>
<path d="M3.87814 29.8231L2.81148 15.068C2.55011 11.4286 5.53819 8.34014 9.3245 8.34014L22.7108 8.34013C26.5183 8.34013 29.5135 11.4558 29.2238 15.1088L28.0512 29.2245" stroke="white" stroke-linecap="round" stroke-linejoin="round"/>
<path d="M26.6596 34.2109L28.694 36.4422C28.9413 36.7075 29.3651 36.7415 29.6547 36.5102C29.9585 36.2721 30.0009 35.8367 29.7395 35.551L28.136 33.7483" stroke="white" stroke-linecap="round" stroke-linejoin="round"/>
<path d="M5.30508 34.3602L3.35541 36.435C3.10817 36.7003 2.68433 36.7344 2.39471 36.5031C2.09095 36.265 2.04857 35.8296 2.30994 35.5439L3.84989 33.7888" stroke="white" stroke-linecap="round" stroke-linejoin="round"/>
<path d="M28.906 31.7619L28.8495 31.7823C20.3938 34.8435 11.3801 34.8639 2.91038 31.8435L2.6702 31.7619" stroke="white" stroke-linecap="round" stroke-linejoin="round"/>
</g>
<g clip-path="url(#clip2_1_2)">
<path d="M65.03 91.1809L67.6225 90.449C68.0958 90.1746 68.6751 90.5476 68.6468 91.1106L68.562 92.9051C68.4985 94.3266 67.5731 94.777 66.2662 95.1852L63.9351 95.91C56.8993 98.0986 49.3691 98.1408 42.3121 96.0296L39.7267 95.2555C38.3704 94.8474 37.4309 94.3548 37.3956 92.884L37.3603 91.3006C37.3461 90.7024 38.0031 90.3505 38.4623 90.7094L40.864 91.8213L41.6834 92.0113C49.2914 93.7918 57.2455 93.5384 64.7263 91.2654L65.0442 91.1669L65.03 91.1809Z" stroke="white" stroke-linecap="round" stroke-linejoin="round"/>
<path d="M53.2755 97.5855L53.2755 96.2977" stroke="white" stroke-linecap="round" stroke-linejoin="round"/>
<path d="M40.8781 91.5756L39.8115 76.3118C39.5501 72.5468 42.5382 69.3519 46.3245 69.3519L59.7108 69.3519C63.5183 69.3519 66.5135 72.5749 66.2238 76.354L65.0512 90.9564" stroke="white" stroke-linecap="round" stroke-linejoin="round"/>
<path d="M63.6596 96.1147L65.694 98.4229C65.9413 98.6974 66.3651 98.7326 66.6547 98.4933C66.9585 98.247 67.0009 97.7966 66.7395 97.5011L65.136 95.6362" stroke="white" stroke-linecap="round" stroke-linejoin="round"/>
<path d="M42.3051 96.2698L40.3554 98.4161C40.1082 98.6906 39.6843 98.7258 39.3947 98.4865C39.0909 98.2402 39.0486 97.7898 39.3099 97.4943L40.8499 95.6786" stroke="white" stroke-linecap="round" stroke-linejoin="round"/>
<path d="M65.906 93.5813L65.8494 93.6024C57.3938 96.7692 48.3801 96.7903 39.9104 93.6657L39.6702 93.5813" stroke="white" stroke-linecap="round" stroke-linejoin="round"/>
</g>
<g clip-path="url(#clip3_1_2)">
<path d="M65.03 29.4415L67.6225 28.734C68.0958 28.4687 68.6751 28.8292 68.6468 29.3734L68.562 31.1081C68.4985 32.4823 67.5731 32.9177 66.2662 33.3122L63.9351 34.0129C56.8993 36.1285 49.3691 36.1694 42.3121 34.1286L39.7267 33.3803C38.3704 32.9857 37.4309 32.5095 37.3956 31.0877L37.3603 29.5571C37.3461 28.9789 38.0031 28.6388 38.4623 28.9857L40.864 30.0605L41.6834 30.2442C49.2914 31.9653 57.2455 31.7204 64.7263 29.5231L65.0442 29.4279L65.03 29.4415Z" stroke="white" stroke-linecap="round" stroke-linejoin="round"/>
<path d="M53.2755 35.6327L53.2755 34.3878" stroke="white" stroke-linecap="round" stroke-linejoin="round"/>
<path d="M40.8781 29.8231L39.8115 15.068C39.5501 11.4286 42.5382 8.34014 46.3245 8.34014L59.7108 8.34013C63.5183 8.34013 66.5135 11.4558 66.2238 15.1088L65.0512 29.2245" stroke="white" stroke-linecap="round" stroke-linejoin="round"/>
<path d="M63.6596 34.2109L65.694 36.4422C65.9413 36.7075 66.3651 36.7415 66.6547 36.5102C66.9585 36.2721 67.0009 35.8367 66.7395 35.551L65.136 33.7483" stroke="white" stroke-linecap="round" stroke-linejoin="round"/>
<path d="M42.3051 34.3602L40.3554 36.435C40.1082 36.7003 39.6843 36.7344 39.3947 36.5031C39.0909 36.265 39.0486 35.8296 39.3099 35.5439L40.8499 33.7888" stroke="white" stroke-linecap="round" stroke-linejoin="round"/>
<path d="M65.906 31.7619L65.8494 31.7823C57.3938 34.8435 48.3801 34.8639 39.9104 31.8435L39.6702 31.7619" stroke="white" stroke-linecap="round" stroke-linejoin="round"/>
</g>
<g clip-path="url(#clip4_1_2)">
<path d="M101.906 91.1809L104.579 90.449C105.068 90.1746 105.665 90.5476 105.636 91.1106L105.548 92.9051C105.483 94.3266 104.528 94.777 103.181 95.1851L100.777 95.91C93.5212 98.0986 85.7556 98.1408 78.4781 96.0296L75.8119 95.2555C74.4132 94.8474 73.4444 94.3548 73.4079 92.884L73.3715 91.3006C73.357 90.7024 74.0344 90.3505 74.5079 90.7094L76.9848 91.8213L77.8298 92.0113C85.6755 93.7918 93.8781 93.5384 101.593 91.2654L101.921 91.1669L101.906 91.1809Z" stroke="white" stroke-linecap="round" stroke-linejoin="round"/>
<path d="M89.7841 97.5855L89.7841 96.2977" stroke="white" stroke-linecap="round" stroke-linejoin="round"/>
<path d="M76.9993 91.5756L75.8993 76.3118C75.6298 72.5468 78.7113 69.3519 82.6159 69.3519L96.4205 69.3519C100.347 69.3519 103.436 72.5749 103.137 76.354L101.928 90.9564" stroke="white" stroke-linecap="round" stroke-linejoin="round"/>
<path d="M100.493 96.1147L102.591 98.4229C102.846 98.6974 103.283 98.7326 103.581 98.4933C103.895 98.247 103.938 97.7966 103.669 97.5011L102.015 95.6362" stroke="white" stroke-linecap="round" stroke-linejoin="round"/>
<path d="M78.4709 96.2698L76.4603 98.4161C76.2053 98.6906 75.7682 98.7258 75.4695 98.4865C75.1563 98.2402 75.1126 97.7898 75.3821 97.4943L76.9702 95.6786" stroke="white" stroke-linecap="round" stroke-linejoin="round"/>
<path d="M102.809 93.5813L102.751 93.6024C94.0311 96.7692 84.7358 96.7903 76.0013 93.6657L75.7536 93.5813" stroke="white" stroke-linecap="round" stroke-linejoin="round"/>
</g>
<g clip-path="url(#clip5_1_2)">
<path d="M101.906 29.4415L104.579 28.734C105.068 28.4687 105.665 28.8292 105.636 29.3734L105.548 31.1081C105.483 32.4823 104.528 32.9177 103.181 33.3122L100.777 34.0129C93.5212 36.1285 85.7556 36.1694 78.4781 34.1286L75.8119 33.3803C74.4132 32.9857 73.4444 32.5095 73.4079 31.0877L73.3715 29.5571C73.357 28.9789 74.0344 28.6388 74.5079 28.9857L76.9848 30.0605L77.8298 30.2442C85.6755 31.9653 93.8781 31.7204 101.593 29.5231L101.921 29.4279L101.906 29.4415Z" stroke="white" stroke-linecap="round" stroke-linejoin="round"/>
<path d="M89.7841 35.6327L89.7841 34.3878" stroke="white" stroke-linecap="round" stroke-linejoin="round"/>
<path d="M76.9993 29.8231L75.8993 15.068C75.6298 11.4286 78.7113 8.34014 82.6159 8.34014L96.4205 8.34013C100.347 8.34013 103.436 11.4558 103.137 15.1088L101.928 29.2245" stroke="white" stroke-linecap="round" stroke-linejoin="round"/>
<path d="M100.493 34.2109L102.591 36.4422C102.846 36.7075 103.283 36.7415 103.581 36.5102C103.895 36.2721 103.938 35.8367 103.669 35.551L102.015 33.7483" stroke="white" stroke-linecap="round" stroke-linejoin="round"/>
<path d="M78.4709 34.3602L76.4603 36.435C76.2053 36.7003 75.7682 36.7344 75.4695 36.5031C75.1563 36.265 75.1126 35.8296 75.3821 35.5439L76.9702 33.7888" stroke="white" stroke-linecap="round" stroke-linejoin="round"/>
<path d="M102.809 31.7619L102.751 31.7823C94.0311 34.8435 84.7358 34.8639 76.0013 31.8435L75.7536 31.7619" stroke="white" stroke-linecap="round" stroke-linejoin="round"/>
</g>
<g clip-path="url(#clip6_1_2)">
<path d="M138.03 91.1809L140.623 90.449C141.096 90.1746 141.675 90.5476 141.647 91.1106L141.562 92.9051C141.498 94.3266 140.573 94.777 139.266 95.1852L136.935 95.91C129.899 98.0986 122.369 98.1408 115.312 96.0296L112.727 95.2555C111.37 94.8474 110.431 94.3548 110.396 92.884L110.36 91.3006C110.346 90.7024 111.003 90.3505 111.462 90.7094L113.864 91.8213L114.683 92.0113C122.291 93.7918 130.245 93.5384 137.726 91.2654L138.044 91.1669L138.03 91.1809Z" stroke="white" stroke-linecap="round" stroke-linejoin="round"/>
<path d="M126.275 97.5855L126.275 96.2977" stroke="white" stroke-linecap="round" stroke-linejoin="round"/>
<path d="M113.878 91.5756L112.811 76.3118C112.55 72.5468 115.538 69.3519 119.325 69.3519L132.711 69.3519C136.518 69.3519 139.513 72.5749 139.224 76.354L138.051 90.9564" stroke="white" stroke-linecap="round" stroke-linejoin="round"/>
<path d="M136.66 96.1147L138.694 98.4229C138.941 98.6974 139.365 98.7326 139.655 98.4933C139.959 98.247 140.001 97.7966 139.74 97.5011L138.136 95.6362" stroke="white" stroke-linecap="round" stroke-linejoin="round"/>
<path d="M115.305 96.2698L113.355 98.4161C113.108 98.6906 112.684 98.7258 112.395 98.4865C112.091 98.2402 112.049 97.7898 112.31 97.4943L113.85 95.6786" stroke="white" stroke-linecap="round" stroke-linejoin="round"/>
<path d="M138.906 93.5813L138.849 93.6024C130.394 96.7692 121.38 96.7903 112.91 93.6657L112.67 93.5813" stroke="white" stroke-linecap="round" stroke-linejoin="round"/>
</g>
<g clip-path="url(#clip7_1_2)">
<path d="M138.03 29.4415L140.623 28.734C141.096 28.4687 141.675 28.8292 141.647 29.3734L141.562 31.1081C141.498 32.4823 140.573 32.9177 139.266 33.3122L136.935 34.0129C129.899 36.1285 122.369 36.1694 115.312 34.1286L112.727 33.3803C111.37 32.9857 110.431 32.5095 110.396 31.0877L110.36 29.5571C110.346 28.9789 111.003 28.6388 111.462 28.9857L113.864 30.0605L114.683 30.2442C122.291 31.9653 130.245 31.7204 137.726 29.5231L138.044 29.4279L138.03 29.4415Z" stroke="white" stroke-linecap="round" stroke-linejoin="round"/>
<path d="M126.275 35.6327L126.275 34.3878" stroke="white" stroke-linecap="round" stroke-linejoin="round"/>
<path d="M113.878 29.8231L112.811 15.068C112.55 11.4286 115.538 8.34014 119.325 8.34014L132.711 8.34013C136.518 8.34013 139.513 11.4558 139.224 15.1088L138.051 29.2245" stroke="white" stroke-linecap="round" stroke-linejoin="round"/>
<path d="M136.66 34.2109L138.694 36.4422C138.941 36.7075 139.365 36.7415 139.655 36.5102C139.959 36.2721 140.001 35.8367 139.74 35.551L138.136 33.7483" stroke="white" stroke-linecap="round" stroke-linejoin="round"/>
<path d="M115.305 34.3602L113.355 36.435C113.108 36.7003 112.684 36.7344 112.395 36.5031C112.091 36.265 112.049 35.8296 112.31 35.5439L113.85 33.7888" stroke="white" stroke-linecap="round" stroke-linejoin="round"/>
<path d="M138.906 31.7619L138.849 31.7823C130.394 34.8435 121.38 34.8639 112.91 31.8435L112.67 31.7619" stroke="white" stroke-linecap="round" stroke-linejoin="round"/>
</g>
<rect x="0.25" y="53.25" width="141.5" height="0.5" stroke="white" stroke-width="0.5"/>
<rect x="0.25" y="-0.25" width="141.5" height="0.5" transform="matrix(1 0 0 -1 0 0.5)" stroke="white" stroke-width="0.5"/>
<defs>
<clipPath id="clip0_1_2">
<rect width="30" height="32" fill="white" transform="translate(0 99) rotate(-90)"/>
</clipPath>
<clipPath id="clip1_1_2">
<rect width="29" height="32" fill="white" transform="translate(0 37) rotate(-90)"/>
</clipPath>
<clipPath id="clip2_1_2">
<rect width="30" height="32" fill="white" transform="translate(37 99) rotate(-90)"/>
</clipPath>
<clipPath id="clip3_1_2">
<rect width="29" height="32" fill="white" transform="translate(37 37) rotate(-90)"/>
</clipPath>
<clipPath id="clip4_1_2">
<rect width="30" height="33" fill="white" transform="translate(73 99) rotate(-90)"/>
</clipPath>
<clipPath id="clip5_1_2">
<rect width="29" height="33" fill="white" transform="translate(73 37) rotate(-90)"/>
</clipPath>
<clipPath id="clip6_1_2">
<rect width="30" height="32" fill="white" transform="translate(110 99) rotate(-90)"/>
</clipPath>
<clipPath id="clip7_1_2">
<rect width="29" height="32" fill="white" transform="translate(110 37) rotate(-90)"/>
</clipPath>
</defs>
</svg>
