<svg width="182" height="144" viewBox="0 0 182 144" fill="none" xmlns="http://www.w3.org/2000/svg">
<path d="M41 1V105H142V1" stroke="white"/>
<g clip-path="url(#clip0_1_85)">
<path d="M8.31907 65.6541L9.05095 68.1656C9.3254 68.6241 8.95243 69.1852 8.38944 69.1578L6.59493 69.0757C5.1734 69.0141 4.72301 68.1177 4.31485 66.8517L3.59001 64.5934C1.40141 57.7775 1.35918 50.4826 3.47037 43.6461L4.24448 41.1415C4.65264 39.8276 5.14525 38.9174 6.61604 38.8832L8.19944 38.849C8.79761 38.8353 9.14947 39.4717 8.79057 39.9166L7.67868 42.2433L7.48867 43.0371C5.70823 50.4073 5.96158 58.1128 8.23462 65.3598L8.33315 65.6678L8.31907 65.6541Z" stroke="white" stroke-linecap="round" stroke-linejoin="round"/>
<path d="M1.9145 54.2669H3.20232" stroke="white" stroke-linecap="round" stroke-linejoin="round"/>
<path d="M7.92435 42.257L23.1882 41.2236C26.9532 40.9704 30.1481 43.8651 30.1481 47.5331L30.1481 60.5011C30.1481 64.1896 26.925 67.0912 23.146 66.8106L8.54363 65.6746" stroke="white" stroke-linecap="round" stroke-linejoin="round"/>
<path d="M3.38529 64.3265L1.07706 66.2974C0.802605 66.5369 0.767419 66.9475 1.00669 67.228C1.25299 67.5223 1.70338 67.5634 1.99895 67.3102L3.86383 65.7567" stroke="white" stroke-linecap="round" stroke-linejoin="round"/>
<path d="M3.23047 43.6393L1.08409 41.7506C0.809639 41.511 0.774453 41.1004 1.01372 40.8199C1.26003 40.5256 1.71041 40.4845 2.00598 40.7377L3.8216 42.2296" stroke="white" stroke-linecap="round" stroke-linejoin="round"/>
<path d="M5.91872 66.5027L5.8976 66.4479C2.73082 58.2565 2.70971 49.5245 5.83427 41.3194L5.91872 41.0868" stroke="white" stroke-linecap="round" stroke-linejoin="round"/>
</g>
<g clip-path="url(#clip1_1_85)">
<path d="M174.181 41.97L173.449 39.3775C173.175 38.9042 173.548 38.3249 174.111 38.3532L175.905 38.438C177.327 38.5015 177.777 39.4269 178.185 40.7338L178.91 43.0649C181.099 50.1007 181.141 57.6309 179.03 64.6879L178.256 67.2733C177.847 68.6296 177.355 69.5691 175.884 69.6044L174.301 69.6397C173.702 69.6539 173.351 68.9969 173.709 68.5377L174.821 66.136L175.011 65.3166C176.792 57.7086 176.538 49.7545 174.265 42.2737L174.167 41.9558L174.181 41.97Z" stroke="white" stroke-linecap="round" stroke-linejoin="round"/>
<path d="M180.586 53.7245L179.298 53.7245" stroke="white" stroke-linecap="round" stroke-linejoin="round"/>
<path d="M174.576 66.1219L159.312 67.1885C155.547 67.4499 152.352 64.4618 152.352 60.6755L152.352 47.2892C152.352 43.4817 155.575 40.4865 159.354 40.7762L173.956 41.9488" stroke="white" stroke-linecap="round" stroke-linejoin="round"/>
<path d="M179.115 43.3404L181.423 41.306C181.697 41.0587 181.733 40.6349 181.493 40.3453C181.247 40.0415 180.797 39.9991 180.501 40.2605L178.636 41.864" stroke="white" stroke-linecap="round" stroke-linejoin="round"/>
<path d="M179.27 64.6949L181.416 66.6446C181.69 66.8918 181.726 67.3157 181.486 67.6053C181.24 67.9091 180.79 67.9514 180.494 67.6901L178.678 66.1501" stroke="white" stroke-linecap="round" stroke-linejoin="round"/>
<path d="M176.581 41.094L176.602 41.1506C179.769 49.6062 179.79 58.6199 176.666 67.0896L176.581 67.3298" stroke="white" stroke-linecap="round" stroke-linejoin="round"/>
</g>
<g clip-path="url(#clip2_1_85)">
<path d="M8.31895 27.6541L9.05083 30.1656C9.32528 30.6241 8.95231 31.1852 8.38932 31.1578L6.59481 31.0757C5.17328 31.0141 4.72289 30.1177 4.31473 28.8517L3.58988 26.5934C1.40129 19.7775 1.35906 12.4826 3.47025 5.64614L4.24435 3.1415C4.65252 1.8276 5.14513 0.917443 6.61592 0.883226L8.19931 0.84901C8.79748 0.835324 9.14935 1.47175 8.79045 1.91656L7.67855 4.24327L7.48855 5.03709C5.70811 12.4073 5.96145 20.1128 8.2345 27.3598L8.33302 27.6678L8.31895 27.6541Z" stroke="white" stroke-linecap="round" stroke-linejoin="round"/>
<path d="M1.9145 16.2669H3.20232" stroke="white" stroke-linecap="round" stroke-linejoin="round"/>
<path d="M7.92435 4.25696L23.1882 3.22362C26.9532 2.97042 30.1481 5.86512 30.1481 9.53312L30.1481 22.5011C30.1481 26.1896 26.925 29.0912 23.146 28.8106L8.54363 27.6746" stroke="white" stroke-linecap="round" stroke-linejoin="round"/>
<path d="M3.38529 26.3265L1.07706 28.2974C0.802605 28.5369 0.767419 28.9475 1.00669 29.228C1.25299 29.5223 1.70338 29.5634 1.99895 29.3102L3.86383 27.7567" stroke="white" stroke-linecap="round" stroke-linejoin="round"/>
<path d="M3.23024 5.6393L1.08387 3.75056C0.809411 3.51104 0.774224 3.10045 1.01349 2.81987C1.2598 2.52561 1.71018 2.48455 2.00575 2.73775L3.82137 4.22958" stroke="white" stroke-linecap="round" stroke-linejoin="round"/>
<path d="M5.91872 28.5027L5.8976 28.4479C2.73082 20.2565 2.70971 11.5245 5.83427 3.31943L5.91872 3.08676" stroke="white" stroke-linecap="round" stroke-linejoin="round"/>
</g>
<g clip-path="url(#clip3_1_85)">
<path d="M174.181 3.96998L173.449 1.37749C173.175 0.904197 173.548 0.324947 174.111 0.353203L175.905 0.437971C177.327 0.501547 177.777 1.42693 178.185 2.73378L178.91 5.0649C181.099 12.1007 181.141 19.6309 179.03 26.6879L178.256 29.2733C177.847 30.6296 177.355 31.5691 175.884 31.6044L174.301 31.6397C173.703 31.6539 173.351 30.9969 173.71 30.5378L174.821 28.136L175.011 27.3166C176.792 19.7086 176.539 11.7545 174.265 4.27373L174.167 3.95585L174.181 3.96998Z" stroke="white" stroke-linecap="round" stroke-linejoin="round"/>
<path d="M180.586 15.7245L179.298 15.7245" stroke="white" stroke-linecap="round" stroke-linejoin="round"/>
<path d="M174.576 28.1219L159.312 29.1885C155.547 29.4499 152.352 26.4618 152.352 22.6755L152.352 9.28919C152.352 5.48168 155.575 2.48654 159.354 2.77616L173.956 3.94879" stroke="white" stroke-linecap="round" stroke-linejoin="round"/>
<path d="M179.115 5.34039L181.423 3.30596C181.697 3.05872 181.733 2.63488 181.493 2.34525C181.247 2.0415 180.797 1.99912 180.501 2.26048L178.636 3.86401" stroke="white" stroke-linecap="round" stroke-linejoin="round"/>
<path d="M179.27 26.6949L181.416 28.6446C181.691 28.8918 181.726 29.3157 181.487 29.6053C181.24 29.9091 180.79 29.9514 180.494 29.6901L178.679 28.1501" stroke="white" stroke-linecap="round" stroke-linejoin="round"/>
<path d="M176.581 3.09404L176.602 3.15055C179.769 11.6062 179.79 20.6199 176.666 29.0896L176.581 29.3298" stroke="white" stroke-linecap="round" stroke-linejoin="round"/>
</g>
<g clip-path="url(#clip4_1_85)">
<path d="M8.55852 102.154L9.26601 104.666C9.53131 105.124 9.17077 105.685 8.62655 105.658L6.89186 105.576C5.51771 105.514 5.08233 104.618 4.68778 103.352L3.9871 101.093C1.87145 94.2775 1.83063 86.9826 3.87145 80.1461L4.61975 77.6415C5.01431 76.3276 5.4905 75.4174 6.91227 75.3832L8.44288 75.349C9.02111 75.3353 9.36125 75.9717 9.01431 76.4166L7.93948 78.7433L7.7558 79.5371C6.03472 86.9073 6.27961 94.6128 8.47689 101.86L8.57213 102.168L8.55852 102.154Z" stroke="white" stroke-linecap="round" stroke-linejoin="round"/>
<path d="M2.36735 90.7669H3.61225" stroke="white" stroke-linecap="round" stroke-linejoin="round"/>
<path d="M8.17687 78.757L22.932 77.7236C26.5714 77.4704 29.6599 80.3651 29.6599 84.0331L29.6599 97.0011C29.6599 100.69 26.5442 103.591 22.8912 103.311L8.77551 102.175" stroke="white" stroke-linecap="round" stroke-linejoin="round"/>
<path d="M3.78912 100.826L1.55782 102.797C1.29252 103.037 1.2585 103.447 1.4898 103.728C1.72789 104.022 2.16327 104.063 2.44898 103.81L4.2517 102.257" stroke="white" stroke-linecap="round" stroke-linejoin="round"/>
<path d="M3.63979 80.1393L1.56496 78.2506C1.29966 78.011 1.26565 77.6004 1.49694 77.3199C1.73503 77.0256 2.17041 76.9845 2.45612 77.2377L4.21122 78.7296" stroke="white" stroke-linecap="round" stroke-linejoin="round"/>
<path d="M6.23809 103.003L6.21768 102.948C3.15646 94.7565 3.13605 86.0245 6.15646 77.8194L6.23809 77.5868" stroke="white" stroke-linecap="round" stroke-linejoin="round"/>
</g>
<g clip-path="url(#clip5_1_85)">
<path d="M63.2781 136.442L65.7086 135.734C66.1523 135.469 66.6954 135.829 66.6689 136.374L66.5894 138.108C66.5298 139.482 65.6623 139.918 64.4371 140.312L62.2517 141.013C55.6556 143.129 48.596 143.169 41.9801 141.129L39.5563 140.38C38.2848 139.986 37.404 139.51 37.3709 138.088L37.3377 136.557C37.3245 135.979 37.9404 135.639 38.3709 135.986L40.6225 137.061L41.3907 137.244C48.5232 138.965 55.9801 138.721 62.9934 136.523L63.2914 136.428L63.2781 136.442Z" stroke="white" stroke-linecap="round" stroke-linejoin="round"/>
<path d="M52.2583 142.633L52.2583 141.388" stroke="white" stroke-linecap="round" stroke-linejoin="round"/>
<path d="M40.6358 136.823L39.6358 122.068C39.3907 118.429 42.1921 115.34 45.7417 115.34L58.2914 115.34C61.8609 115.34 64.6689 118.456 64.3974 122.109L63.298 136.224" stroke="white" stroke-linecap="round" stroke-linejoin="round"/>
<path d="M61.9934 141.211L63.9007 143.442C64.1325 143.707 64.5298 143.741 64.8013 143.51C65.0861 143.272 65.1258 142.837 64.8808 142.551L63.3775 140.748" stroke="white" stroke-linecap="round" stroke-linejoin="round"/>
<path d="M41.9735 141.361L40.1457 143.435C39.9139 143.701 39.5166 143.735 39.245 143.503C38.9603 143.265 38.9205 142.83 39.1656 142.544L40.6093 140.789" stroke="white" stroke-linecap="round" stroke-linejoin="round"/>
<path d="M64.0993 138.762L64.0464 138.782C56.1192 141.844 47.6689 141.864 39.7285 138.844L39.5033 138.762" stroke="white" stroke-linecap="round" stroke-linejoin="round"/>
</g>
<g clip-path="url(#clip6_1_85)">
<path d="M103.154 136.442L105.666 135.734C106.124 135.469 106.685 135.829 106.658 136.374L106.576 138.108C106.514 139.482 105.618 139.918 104.352 140.312L102.093 141.013C95.2775 143.129 87.9826 143.169 81.1461 141.129L78.6415 140.38C77.3276 139.986 76.4174 139.51 76.3832 138.088L76.349 136.557C76.3353 135.979 76.9717 135.639 77.4166 135.986L79.7433 137.061L80.5371 137.244C87.9073 138.965 95.6128 138.721 102.86 136.523L103.168 136.428L103.154 136.442Z" stroke="white" stroke-linecap="round" stroke-linejoin="round"/>
<path d="M91.7669 142.633L91.7669 141.388" stroke="white" stroke-linecap="round" stroke-linejoin="round"/>
<path d="M79.757 136.823L78.7236 122.068C78.4704 118.429 81.3651 115.34 85.0331 115.34L98.0011 115.34C101.69 115.34 104.591 118.456 104.311 122.109L103.175 136.224" stroke="white" stroke-linecap="round" stroke-linejoin="round"/>
<path d="M101.826 141.211L103.797 143.442C104.037 143.707 104.447 143.741 104.728 143.51C105.022 143.272 105.063 142.837 104.81 142.551L103.257 140.748" stroke="white" stroke-linecap="round" stroke-linejoin="round"/>
<path d="M81.1393 141.361L79.2506 143.435C79.011 143.701 78.6004 143.735 78.3199 143.503C78.0256 143.265 77.9845 142.83 78.2377 142.544L79.7296 140.789" stroke="white" stroke-linecap="round" stroke-linejoin="round"/>
<path d="M104.003 138.762L103.948 138.782C95.7565 141.844 87.0245 141.864 78.8194 138.844L78.5868 138.762" stroke="white" stroke-linecap="round" stroke-linejoin="round"/>
</g>
<g clip-path="url(#clip7_1_85)">
<path d="M142.906 136.442L145.579 135.734C146.068 135.469 146.665 135.829 146.636 136.374L146.548 138.108C146.483 139.482 145.528 139.918 144.181 140.312L141.777 141.013C134.521 143.129 126.756 143.169 119.478 141.129L116.812 140.38C115.413 139.986 114.444 139.51 114.408 138.088L114.372 136.557C114.357 135.979 115.034 135.639 115.508 135.986L117.985 137.061L118.83 137.244C126.675 138.965 134.878 138.721 142.593 136.523L142.921 136.428L142.906 136.442Z" stroke="white" stroke-linecap="round" stroke-linejoin="round"/>
<path d="M130.784 142.633L130.784 141.388" stroke="white" stroke-linecap="round" stroke-linejoin="round"/>
<path d="M117.999 136.823L116.899 122.068C116.63 118.429 119.711 115.34 123.616 115.34L137.421 115.34C141.347 115.34 144.436 118.456 144.137 122.109L142.928 136.224" stroke="white" stroke-linecap="round" stroke-linejoin="round"/>
<path d="M141.493 141.211L143.591 143.442C143.846 143.707 144.283 143.741 144.581 143.51C144.895 143.272 144.938 142.837 144.669 142.551L143.015 140.748" stroke="white" stroke-linecap="round" stroke-linejoin="round"/>
<path d="M119.471 141.361L117.46 143.435C117.205 143.701 116.768 143.735 116.47 143.503C116.156 143.265 116.113 142.83 116.382 142.544L117.97 140.789" stroke="white" stroke-linecap="round" stroke-linejoin="round"/>
<path d="M143.809 138.762L143.751 138.782C135.031 141.844 125.736 141.864 117.001 138.844L116.754 138.762" stroke="white" stroke-linecap="round" stroke-linejoin="round"/>
</g>
<g clip-path="url(#clip8_1_85)">
<path d="M173.941 78.47L173.234 75.8775C172.969 75.4042 173.329 74.8249 173.873 74.8532L175.608 74.938C176.982 75.0015 177.418 75.9269 177.812 77.2338L178.513 79.5649C180.629 86.6007 180.669 94.1309 178.629 101.188L177.88 103.773C177.486 105.13 177.01 106.069 175.588 106.104L174.057 106.14C173.479 106.154 173.139 105.497 173.486 105.038L174.561 102.636L174.744 101.817C176.465 94.2086 176.22 86.2545 174.023 78.7737L173.928 78.4559L173.941 78.47Z" stroke="white" stroke-linecap="round" stroke-linejoin="round"/>
<path d="M180.133 90.2245L178.888 90.2245" stroke="white" stroke-linecap="round" stroke-linejoin="round"/>
<path d="M174.323 102.622L159.568 103.689C155.929 103.95 152.84 100.962 152.84 97.1755L152.84 83.7892C152.84 79.9817 155.956 76.9865 159.609 77.2762L173.724 78.4488" stroke="white" stroke-linecap="round" stroke-linejoin="round"/>
<path d="M178.711 79.8404L180.942 77.806C181.207 77.5587 181.241 77.1349 181.01 76.8453C180.772 76.5415 180.337 76.4991 180.051 76.7605L178.248 78.364" stroke="white" stroke-linecap="round" stroke-linejoin="round"/>
<path d="M178.86 101.195L180.935 103.145C181.2 103.392 181.234 103.816 181.003 104.105C180.765 104.409 180.33 104.451 180.044 104.19L178.289 102.65" stroke="white" stroke-linecap="round" stroke-linejoin="round"/>
<path d="M176.262 77.594L176.282 77.6506C179.344 86.1062 179.364 95.1199 176.344 103.59L176.262 103.83" stroke="white" stroke-linecap="round" stroke-linejoin="round"/>
</g>
<defs>
<clipPath id="clip0_1_85">
<rect width="30" height="31" fill="white" transform="translate(0.5 38.5)"/>
</clipPath>
<clipPath id="clip1_1_85">
<rect width="30" height="32" fill="white" transform="translate(182 70) rotate(180)"/>
</clipPath>
<clipPath id="clip2_1_85">
<rect width="30" height="31" fill="white" transform="translate(0.5 0.5)"/>
</clipPath>
<clipPath id="clip3_1_85">
<rect width="30" height="32" fill="white" transform="translate(182 32) rotate(180)"/>
</clipPath>
<clipPath id="clip4_1_85">
<rect width="29" height="31" fill="white" transform="translate(1 75)"/>
</clipPath>
<clipPath id="clip5_1_85">
<rect width="29" height="30" fill="white" transform="translate(37 144) rotate(-90)"/>
</clipPath>
<clipPath id="clip6_1_85">
<rect width="29" height="31" fill="white" transform="translate(76 144) rotate(-90)"/>
</clipPath>
<clipPath id="clip7_1_85">
<rect width="29" height="33" fill="white" transform="translate(114 144) rotate(-90)"/>
</clipPath>
<clipPath id="clip8_1_85">
<rect width="29" height="32" fill="white" transform="translate(181.5 106.5) rotate(180)"/>
</clipPath>
</defs>
</svg>
