<svg width="35" height="35" viewBox="0 0 35 35" fill="none" xmlns="http://www.w3.org/2000/svg">
<path d="M17.5 35C27.165 35 35 27.165 35 17.5C35 7.83502 27.165 0 17.5 0C7.83502 0 0 7.83502 0 17.5C0 27.165 7.83502 35 17.5 35Z" fill="#A00062"/>
<path d="M21.2293 9C20.8233 9.02263 20.4173 9.06789 20.0338 9.20366C19.4248 9.42994 18.8383 9.76936 18.3421 10.2672C18.1993 10.358 18.0787 10.4798 17.9892 10.6237C17.8997 10.7676 17.8436 10.9298 17.825 11.0983C17.8064 11.2669 17.8258 11.4375 17.8818 11.5975C17.9378 11.7575 18.0289 11.9029 18.1485 12.0228C18.268 12.1427 18.4129 12.2342 18.5724 12.2903C18.7319 12.3465 18.902 12.366 19.07 12.3473C19.238 12.3287 19.3997 12.2724 19.5431 12.1826C19.6865 12.0928 19.808 11.9718 19.8985 11.8285C20.1466 11.5796 20.4399 11.4439 20.7556 11.3307C21.5451 11.0592 22.515 11.1723 23.1466 11.8285C24.0263 12.7111 24.0263 14.1819 23.1466 15.087L19.7632 18.4813C18.7707 19.4769 17.9586 19.5675 17.3722 19.5448C16.7857 19.5222 16.4474 19.2507 16.4474 19.2507C16.317 19.1764 16.1734 19.1286 16.0246 19.11C15.8759 19.0914 15.7249 19.1023 15.5804 19.1423C15.4359 19.1822 15.3006 19.2503 15.1823 19.3426C15.064 19.435 14.965 19.5498 14.891 19.6806C14.8169 19.8113 14.7693 19.9554 14.7507 20.1047C14.7322 20.2539 14.7431 20.4053 14.7829 20.5503C14.8227 20.6953 14.8906 20.831 14.9827 20.9497C15.0747 21.0683 15.1892 21.1677 15.3195 21.242C15.3195 21.242 16.0865 21.7398 17.2143 21.8077C18.3421 21.8755 19.9211 21.4456 21.297 20.0426L24.6805 16.6484C26.4399 14.8834 26.4399 12.0322 24.6805 10.2898C24.0489 9.65622 23.3045 9.27154 22.4925 9.09051C22.0865 9 21.6353 9 21.2293 9.02263V9ZM16.718 14.2272C15.5902 14.1819 14.0338 14.5666 12.703 15.9243L9.31955 19.3185C7.56015 21.0836 7.56015 23.9347 9.31955 25.6771C10.5827 26.9443 12.3872 27.3064 13.9662 26.7406C14.5752 26.5144 15.1617 26.1749 15.6579 25.6771C15.8007 25.5863 15.9213 25.4645 16.0108 25.3206C16.1003 25.1767 16.1564 25.0145 16.175 24.846C16.1936 24.6774 16.1742 24.5068 16.1182 24.3468C16.0622 24.1868 15.9711 24.0414 15.8515 23.9215C15.732 23.8016 15.5871 23.7101 15.4276 23.654C15.2681 23.5978 15.098 23.5783 14.93 23.597C14.762 23.6156 14.6003 23.6719 14.4569 23.7617C14.3135 23.8515 14.192 23.9725 14.1015 24.1158C13.8534 24.3647 13.5602 24.5004 13.2444 24.6136C12.4549 24.8851 11.485 24.772 10.8534 24.1158C9.97368 23.2332 9.97368 21.7624 10.8534 20.8573L14.2368 17.463C15.1391 16.5579 15.9286 16.4447 16.5602 16.4674C17.1917 16.49 17.6203 16.671 17.6203 16.671C17.7525 16.7705 17.9048 16.8395 18.0665 16.8734C18.2282 16.9073 18.3953 16.9051 18.5561 16.867C18.7169 16.829 18.8674 16.7559 18.9969 16.6531C19.1264 16.5502 19.2319 16.4201 19.3057 16.2719C19.3796 16.1236 19.4201 15.9609 19.4244 15.7953C19.4287 15.6296 19.3967 15.465 19.3306 15.3132C19.2645 15.1613 19.1659 15.0258 19.0419 14.9164C18.9179 14.8069 18.7714 14.7261 18.6128 14.6797C18.6128 14.6797 17.8459 14.2272 16.718 14.1819V14.2272Z" fill="white"/>
</svg>
