<svg width="22" height="40" viewBox="0 0 22 40" fill="none" xmlns="http://www.w3.org/2000/svg">
<g clip-path="url(#clip0_783_5573)">
<path d="M7.27344 4.54571C7.27344 4.1473 7.58914 3.82568 7.98023 3.82568H14.0162C14.4073 3.82568 14.723 4.1473 14.723 4.54571C14.723 4.94413 14.4073 5.26574 14.0162 5.26574H7.98023C7.58914 5.26574 7.27344 4.94413 7.27344 4.54571Z" fill="white"/>
<path d="M9.81616 34.4653C9.42507 34.4653 9.10938 34.7869 9.10938 35.1854C9.10938 35.5838 9.42507 35.9054 9.81616 35.9054H12.1863C12.5774 35.9054 12.8931 35.5838 12.8931 35.1854C12.8931 34.7869 12.5774 34.4653 12.1863 34.4653H9.81616Z" fill="white"/>
<path fill-rule="evenodd" clip-rule="evenodd" d="M4.71193 0C2.11094 0 0 2.15049 0 4.80019V35.1998C0 37.8495 2.11094 40 4.71193 40H17.2881C19.8891 40 22 37.8495 22 35.1998V4.80019C22 2.15049 19.8891 0 17.2881 0H4.71193ZM17.2881 1.44006H4.71193C2.88841 1.44006 1.41358 2.94252 1.41358 4.80019V35.1998C1.41358 37.0575 2.88841 38.5599 4.71193 38.5599H17.2881C19.1116 38.5599 20.5864 37.0575 20.5864 35.1998V4.80019C20.5864 2.94252 19.1116 1.44006 17.2881 1.44006Z" fill="white"/>
</g>
<defs>
<clipPath id="clip0_783_5573">
<rect width="22" height="40" fill="white"/>
</clipPath>
</defs>
</svg>
