<svg width="35" height="35" viewBox="0 0 35 35" fill="none" xmlns="http://www.w3.org/2000/svg">
<path d="M17.5 35C27.165 35 35 27.165 35 17.5C35 7.83502 27.165 0 17.5 0C7.83502 0 0 7.83502 0 17.5C0 27.165 7.83502 35 17.5 35Z" fill="#A00062"/>
<path d="M14.3 25.5002C13.7 25.5002 13.8 25.3002 13.6 24.7002L12 19.3002L24.8 11.7002" fill="#F2F2F2"/>
<path d="M14.2998 25.5C14.6998 25.5 14.8998 25.3 15.1998 25.1L17.4998 22.8L14.5998 21" fill="#E2E2E2"/>
<path d="M14.6003 21.1002L21.7003 26.3002C22.5003 26.7002 23.1003 26.5002 23.3003 25.6002L26.1003 12.0002C26.4003 10.8002 25.7003 10.3002 24.9003 10.6002L8.00025 17.1002C6.80025 17.6002 6.90025 18.2002 7.80025 18.5002L12.1003 19.9002L22.1003 13.6002C22.6003 13.3002 23.0003 13.5002 22.7003 13.8002" fill="white"/>
</svg>
