<svg width="175" height="175" viewBox="0 0 175 175" fill="none" xmlns="http://www.w3.org/2000/svg">
<circle cx="86.75" cy="87.3125" r="49.5" stroke="white"/>
<g clip-path="url(#clip0_1_76)">
<path d="M20.4178 140.171L22.3129 142.013C22.779 142.28 22.745 142.955 22.2512 143.209L20.6798 144.02C19.4367 144.666 18.599 144.101 17.6102 143.192L15.8492 141.569C10.5334 136.671 6.80502 130.296 5.14452 123.264L4.53672 120.687C4.21964 119.334 4.17891 118.294 5.41549 117.54L6.74805 116.73C7.25108 116.424 7.87319 116.809 7.79236 117.375L8.02213 119.962L8.26195 120.752C10.4746 128.09 14.5908 134.72 20.1968 139.955L20.4367 140.177L20.4178 140.171Z" stroke="white" stroke-linecap="round" stroke-linejoin="round"/>
<path d="M9.19431 133.34L10.2922 132.707" stroke="white" stroke-linecap="round" stroke-linejoin="round"/>
<path d="M8.23889 119.853L20.7287 111.434C23.8103 109.359 27.9993 110.324 29.8558 113.54L36.4198 124.909C38.2867 128.143 37.0076 132.273 33.6439 133.887L20.62 140.079" stroke="white" stroke-linecap="round" stroke-linejoin="round"/>
<path d="M15.54 141.436L14.5697 144.3C14.457 144.645 14.6348 145.022 14.9808 145.15C15.3397 145.287 15.7445 145.101 15.8683 144.734L16.6719 142.454" stroke="white" stroke-linecap="round" stroke-linejoin="round"/>
<path d="M4.93683 123.376L2.15098 122.776C1.79577 122.701 1.55794 122.359 1.61991 121.995C1.68095 121.616 2.04413 121.358 2.42427 121.435L4.72725 121.849" stroke="white" stroke-linecap="round" stroke-linejoin="round"/>
<path d="M18.8013 142.097L18.7556 142.059C11.9096 136.436 7.47183 128.791 5.98251 120.06L5.93673 119.815" stroke="white" stroke-linecap="round" stroke-linejoin="round"/>
</g>
<g clip-path="url(#clip1_1_76)">
<path d="M140.172 153.956L142.014 152.061C142.281 151.595 142.956 151.629 143.21 152.123L144.021 153.694C144.666 154.937 144.102 155.775 143.193 156.764L141.57 158.525C136.672 163.841 130.297 167.569 123.265 169.229L120.688 169.837C119.335 170.154 118.295 170.195 117.541 168.959L116.731 167.626C116.425 167.123 116.81 166.501 117.376 166.582L119.963 166.352L120.753 166.112C128.091 163.899 134.721 159.783 139.956 154.177L140.177 153.937L140.172 153.956Z" stroke="white" stroke-linecap="round" stroke-linejoin="round"/>
<path d="M133.341 165.18L132.708 164.082" stroke="white" stroke-linecap="round" stroke-linejoin="round"/>
<path d="M119.854 166.135L111.435 153.645C109.36 150.564 110.325 146.375 113.541 144.518L124.91 137.954C128.144 136.087 132.274 137.366 133.888 140.73L140.08 153.754" stroke="white" stroke-linecap="round" stroke-linejoin="round"/>
<path d="M141.437 158.834L144.301 159.804C144.646 159.917 145.023 159.739 145.151 159.393C145.288 159.034 145.102 158.63 144.735 158.506L142.455 157.702" stroke="white" stroke-linecap="round" stroke-linejoin="round"/>
<path d="M123.377 169.437L122.777 172.223C122.702 172.578 122.36 172.816 121.996 172.754C121.617 172.693 121.359 172.33 121.435 171.95L121.85 169.647" stroke="white" stroke-linecap="round" stroke-linejoin="round"/>
<path d="M142.098 155.573L142.06 155.618C136.437 162.464 128.792 166.902 120.061 168.392L119.816 168.437" stroke="white" stroke-linecap="round" stroke-linejoin="round"/>
</g>
<g clip-path="url(#clip2_1_76)">
<path d="M153.965 33.5141L152.07 31.6725C151.604 31.4057 151.638 30.7301 152.132 30.477L153.703 29.6657C154.946 29.02 155.784 29.5843 156.773 30.4933L158.534 32.1164C163.849 37.0146 167.578 43.3893 169.238 50.4219L169.846 52.9987C170.163 54.3515 170.204 55.3919 168.967 56.1458L167.635 56.9552C167.132 57.2616 166.51 56.8769 166.59 56.3102L166.361 53.7231L166.121 52.9337C163.908 45.5959 159.792 38.9652 154.186 33.7305L153.946 33.509L153.965 33.5141Z" stroke="white" stroke-linecap="round" stroke-linejoin="round"/>
<path d="M165.189 40.3451L164.091 40.979" stroke="white" stroke-linecap="round" stroke-linejoin="round"/>
<path d="M166.144 53.8323L153.654 62.2512C150.573 64.3263 146.384 63.3611 144.527 60.1454L137.963 48.7764C136.096 45.5426 137.375 41.4124 140.739 39.7983L153.763 33.6069" stroke="white" stroke-linecap="round" stroke-linejoin="round"/>
<path d="M158.843 32.2498L159.813 29.3858C159.926 29.0408 159.748 28.6635 159.402 28.5353C159.043 28.3985 158.638 28.5842 158.515 28.9517L157.711 31.2314" stroke="white" stroke-linecap="round" stroke-linejoin="round"/>
<path d="M169.446 50.31L172.232 50.9094C172.587 50.9843 172.825 51.3269 172.763 51.6907C172.702 52.0699 172.339 52.3275 171.959 52.251L169.656 51.8368" stroke="white" stroke-linecap="round" stroke-linejoin="round"/>
<path d="M155.582 31.5889L155.627 31.6265C162.473 37.2492 166.911 44.8941 168.4 53.6255L168.446 53.871" stroke="white" stroke-linecap="round" stroke-linejoin="round"/>
</g>
<g clip-path="url(#clip3_1_76)">
<path d="M33.5151 20.4099L31.6735 22.3051C31.4066 22.7712 30.7311 22.7372 30.478 22.2434L29.6667 20.672C29.021 19.4289 29.5853 18.5912 30.4943 17.6024L32.1173 15.8414C37.0156 10.5256 43.3902 6.79721 50.4229 5.13671L52.9997 4.5289C54.3525 4.21182 55.3929 4.1711 56.1468 5.40767L56.9562 6.74024C57.2626 7.24327 56.8778 7.86537 56.3112 7.78455L53.7241 8.01432L52.9346 8.25414C45.5969 10.4668 38.9661 14.583 33.7315 20.189L33.51 20.4289L33.5151 20.4099Z" stroke="white" stroke-linecap="round" stroke-linejoin="round"/>
<path d="M40.3461 9.1865L40.98 10.2844" stroke="white" stroke-linecap="round" stroke-linejoin="round"/>
<path d="M53.8333 8.23108L62.2522 20.7209C64.3273 23.8025 63.3621 27.9914 60.1463 29.848L48.7773 36.4119C45.5436 38.2789 41.4134 36.9998 39.7993 33.6361L33.6078 20.6122" stroke="white" stroke-linecap="round" stroke-linejoin="round"/>
<path d="M32.2508 15.5322L29.3868 14.5619C29.0417 14.4492 28.6644 14.627 28.5362 14.973C28.3995 15.3319 28.5852 15.7367 28.9526 15.8605L31.2324 16.6641" stroke="white" stroke-linecap="round" stroke-linejoin="round"/>
<path d="M50.3109 4.92902L50.9103 2.14317C50.9852 1.78796 51.3279 1.55013 51.6916 1.6121C52.0708 1.67314 52.3285 2.03632 52.252 2.41646L51.8378 4.71943" stroke="white" stroke-linecap="round" stroke-linejoin="round"/>
<path d="M31.5899 18.7935L31.6275 18.7478C37.2502 11.9018 44.8951 7.46402 53.6264 5.97469L53.872 5.92892" stroke="white" stroke-linecap="round" stroke-linejoin="round"/>
</g>
<g clip-path="url(#clip4_1_76)">
<path d="M54.6309 165.077L57.1929 165.725C57.73 165.723 58.0384 166.325 57.7373 166.791L56.782 168.279C56.0283 169.46 55.0207 169.39 53.7099 169.097L51.3733 168.572C44.3206 166.988 37.9043 163.332 32.95 158.071L31.1352 156.144C30.1842 155.131 29.6287 154.25 30.3227 152.979L31.072 151.612C31.3545 151.095 32.0856 151.117 32.2989 151.648L33.7914 153.774L34.3939 154.337C39.979 159.586 46.8591 163.27 54.3313 165L54.6498 165.072L54.6309 165.077Z" stroke="white" stroke-linecap="round" stroke-linejoin="round"/>
<path d="M41.4956 164.773L42.1295 163.675" stroke="white" stroke-linecap="round" stroke-linejoin="round"/>
<path d="M33.9246 153.571L40.5317 140.035C42.1628 136.697 46.2732 135.438 49.4889 137.295L60.8579 143.859C64.0916 145.726 65.049 149.942 62.9429 153.022L54.7596 164.896" stroke="white" stroke-linecap="round" stroke-linejoin="round"/>
<path d="M51.0388 168.611L51.6305 171.577C51.7054 171.932 52.048 172.17 52.4118 172.108C52.791 172.047 53.0487 171.683 52.9722 171.303L52.5282 168.927" stroke="white" stroke-linecap="round" stroke-linejoin="round"/>
<path d="M32.8261 158.272L30.1138 159.146C29.7687 159.259 29.3914 159.081 29.2632 158.735C29.1264 158.376 29.3121 157.971 29.6796 157.847L31.8811 157.055" stroke="white" stroke-linecap="round" stroke-linejoin="round"/>
<path d="M54.1936 167.553L54.1352 167.543C45.3951 166.097 37.7294 161.695 32.0739 154.878L31.9115 154.688" stroke="white" stroke-linecap="round" stroke-linejoin="round"/>
</g>
<g clip-path="url(#clip5_1_76)">
<path d="M165.075 119.737L165.722 117.175C165.72 116.638 166.322 116.33 166.788 116.631L168.277 117.586C169.457 118.34 169.388 119.347 169.095 120.658L168.57 122.995C166.986 130.048 163.329 136.464 158.069 141.418L156.141 143.233C155.128 144.184 154.248 144.739 152.976 144.045L151.609 143.296C151.092 143.014 151.114 142.283 151.646 142.069L153.771 140.577L154.335 139.974C159.583 134.389 163.268 127.509 164.998 120.037L165.07 119.718L165.075 119.737Z" stroke="white" stroke-linecap="round" stroke-linejoin="round"/>
<path d="M164.771 132.873L163.673 132.239" stroke="white" stroke-linecap="round" stroke-linejoin="round"/>
<path d="M153.568 140.444L140.032 133.837C136.694 132.205 135.436 128.095 137.293 124.879L143.856 113.51C145.723 110.277 149.94 109.319 153.02 111.425L164.893 119.609" stroke="white" stroke-linecap="round" stroke-linejoin="round"/>
<path d="M168.609 123.329L171.574 122.738C171.929 122.663 172.167 122.32 172.105 121.956C172.044 121.577 171.681 121.319 171.301 121.396L168.925 121.84" stroke="white" stroke-linecap="round" stroke-linejoin="round"/>
<path d="M158.27 141.542L159.144 144.254C159.256 144.599 159.078 144.977 158.732 145.105C158.374 145.242 157.969 145.056 157.845 144.689L157.052 142.487" stroke="white" stroke-linecap="round" stroke-linejoin="round"/>
<path d="M167.55 120.175L167.541 120.233C166.094 128.973 161.692 136.639 154.876 142.294L154.686 142.457" stroke="white" stroke-linecap="round" stroke-linejoin="round"/>
</g>
<g clip-path="url(#clip6_1_76)">
<path d="M119.744 8.61261L117.182 7.96535C116.645 7.96725 116.337 7.36525 116.638 6.89914L117.593 5.41084C118.347 4.23012 119.354 4.29991 120.665 4.59274L123.002 5.11785C130.054 6.70196 136.471 10.3584 141.425 15.6186L143.24 17.5463C144.191 18.5593 144.746 19.4399 144.052 20.7111L143.303 22.0783C143.021 22.5952 142.289 22.5731 142.076 22.0419L140.584 19.9163L139.981 19.3525C134.396 14.1042 127.516 10.4199 120.044 8.68956L119.725 8.61769L119.744 8.61261Z" stroke="white" stroke-linecap="round" stroke-linejoin="round"/>
<path d="M132.879 8.9167L132.246 10.0146" stroke="white" stroke-linecap="round" stroke-linejoin="round"/>
<path d="M140.45 20.1192L133.843 33.6551C132.212 36.993 128.102 38.2516 124.886 36.395L113.517 29.8311C110.283 27.9641 109.326 23.7477 111.432 20.668L119.615 8.79406" stroke="white" stroke-linecap="round" stroke-linejoin="round"/>
<path d="M123.336 5.0788L122.745 2.1134C122.67 1.75818 122.327 1.52036 121.963 1.58233C121.584 1.64336 121.326 2.00655 121.403 2.38669L121.847 4.76283" stroke="white" stroke-linecap="round" stroke-linejoin="round"/>
<path d="M141.549 15.4178L144.261 14.544C144.606 14.4312 144.984 14.609 145.112 14.955C145.249 15.314 145.063 15.7187 144.695 15.8425L142.494 16.6353" stroke="white" stroke-linecap="round" stroke-linejoin="round"/>
<path d="M120.181 6.13713L120.24 6.14684C128.98 7.59324 136.646 11.9951 142.301 18.8119L142.464 19.0017" stroke="white" stroke-linecap="round" stroke-linejoin="round"/>
</g>
<g clip-path="url(#clip7_1_76)">
<path d="M8.61262 54.6299L7.96535 57.1919C7.96725 57.729 7.36525 58.0374 6.89914 57.7363L5.41084 56.781C4.23012 56.0273 4.29991 55.0197 4.59275 53.7089L5.11785 51.3723C6.70196 44.3196 10.3584 37.9033 15.6186 32.949L17.5463 31.1342C18.5593 30.1832 19.4399 29.6278 20.7111 30.3217L22.0783 31.071C22.5952 31.3535 22.5731 32.0846 22.0419 32.2979L19.9163 33.7905L19.3525 34.3929C14.1042 39.978 10.4199 46.8581 8.68957 54.3304L8.61769 54.6488L8.61262 54.6299Z" stroke="white" stroke-linecap="round" stroke-linejoin="round"/>
<path d="M8.9167 41.4946L10.0146 42.1285" stroke="white" stroke-linecap="round" stroke-linejoin="round"/>
<path d="M20.1192 33.9236L33.6551 40.5307C36.993 42.1618 38.2516 46.2722 36.395 49.4879L29.8311 60.8569C27.9641 64.0906 23.7477 65.048 20.668 62.942L8.79406 54.7587" stroke="white" stroke-linecap="round" stroke-linejoin="round"/>
<path d="M5.07881 51.0378L2.11341 51.6295C1.75819 51.7044 1.52037 52.0471 1.58233 52.4108C1.64337 52.79 2.00656 53.0477 2.38669 52.9712L4.76284 52.5272" stroke="white" stroke-linecap="round" stroke-linejoin="round"/>
<path d="M15.4178 32.8251L14.544 30.1128C14.4312 29.7677 14.609 29.3904 14.955 29.2622C15.314 29.1255 15.7187 29.3112 15.8425 29.6786L16.6353 31.8802" stroke="white" stroke-linecap="round" stroke-linejoin="round"/>
<path d="M6.13713 54.1926L6.14684 54.1342C7.59324 45.3941 11.9951 37.7284 18.8119 32.0729L19.0017 31.9105" stroke="white" stroke-linecap="round" stroke-linejoin="round"/>
</g>
<defs>
<clipPath id="clip0_1_76">
<rect width="29.5324" height="31.382" fill="white" transform="translate(0.0078125 120.214) rotate(-30)"/>
</clipPath>
<clipPath id="clip1_1_76">
<rect width="29.5324" height="31.382" fill="white" transform="translate(120.215 174.366) rotate(-120)"/>
</clipPath>
<clipPath id="clip2_1_76">
<rect width="29.5324" height="31.382" fill="white" transform="translate(174.375 53.4717) rotate(150)"/>
</clipPath>
<clipPath id="clip3_1_76">
<rect width="29.5324" height="31.382" fill="white" transform="translate(53.4727) rotate(60)"/>
</clipPath>
<clipPath id="clip4_1_76">
<rect width="29.5324" height="31.382" fill="white" transform="translate(26.9766 157.999) rotate(-60)"/>
</clipPath>
<clipPath id="clip5_1_76">
<rect width="29.5324" height="31.382" fill="white" transform="translate(157.996 147.392) rotate(-150)"/>
</clipPath>
<clipPath id="clip6_1_76">
<rect width="29.5324" height="31.382" fill="white" transform="translate(147.398 15.6914) rotate(120)"/>
</clipPath>
<clipPath id="clip7_1_76">
<rect width="29.5324" height="31.382" fill="white" transform="translate(15.6914 26.9756) rotate(30)"/>
</clipPath>
</defs>
</svg>
