<svg width="272" height="178" viewBox="0 0 272 178" fill="none" xmlns="http://www.w3.org/2000/svg">
<path d="M230.035 89C230.035 102.528 219.553 114.896 202.332 123.912C185.135 132.916 161.343 138.5 135.035 138.5C108.728 138.5 84.9355 132.916 67.7384 123.912C50.5176 114.896 40.0352 102.528 40.0352 89C40.0352 75.4722 50.5176 63.1038 67.7384 54.0876C84.9355 45.0839 108.728 39.5 135.035 39.5C161.343 39.5 185.135 45.0839 202.332 54.0876C219.553 63.1038 230.035 75.4722 230.035 89Z" stroke="white"/>
<g clip-path="url(#clip0_3_274)">
<path d="M34.6156 37.975L32.9622 40.0363C32.7407 40.5255 32.065 40.5558 31.7662 40.0883L30.8095 38.6009C30.0488 37.4247 30.531 36.5372 31.3421 35.4667L32.7908 33.5596C37.1626 27.8031 43.1548 23.4867 49.9982 21.1666L52.5057 20.317C53.8223 19.873 54.8542 19.7338 55.722 20.8933L56.6541 22.143C57.0069 22.6147 56.6829 23.2705 56.1112 23.2438L53.5575 23.718L52.7944 24.0316C45.6996 26.9304 39.4893 31.6572 34.8101 37.7345L34.6124 37.9943L34.6156 37.975Z" stroke="white" stroke-linecap="round" stroke-linejoin="round"/>
<path d="M40.351 26.1541L41.0862 27.1869" stroke="white" stroke-linecap="round" stroke-linejoin="round"/>
<path d="M53.6867 23.9234L63.2526 35.5582C65.6107 38.429 65.0473 42.6906 62.0222 44.8439L51.3272 52.4568C48.2851 54.6222 44.0522 53.7407 42.1263 50.5452L34.7272 38.1675" stroke="white" stroke-linecap="round" stroke-linejoin="round"/>
<path d="M32.8943 33.2391L29.9512 32.545C29.597 32.4655 29.2382 32.6783 29.1434 33.0349C29.0414 33.4052 29.2646 33.7905 29.6422 33.8789L31.9879 34.4625" stroke="white" stroke-linecap="round" stroke-linejoin="round"/>
<path d="M49.8671 20.9704L50.1994 18.1403C50.2403 17.7795 50.5588 17.5103 50.9268 17.5375C51.3101 17.5623 51.6011 17.8994 51.561 18.285L51.3671 20.6169" stroke="white" stroke-linecap="round" stroke-linejoin="round"/>
<path d="M32.5458 36.5484L32.5789 36.4994C37.5267 29.1509 44.7162 24.0078 53.2668 21.6968L53.5069 21.628" stroke="white" stroke-linecap="round" stroke-linejoin="round"/>
</g>
<g clip-path="url(#clip1_3_274)">
<path d="M76.6214 16.6025L74.4209 18.0656C74.0615 18.4648 73.4084 18.2888 73.2654 17.7527L72.8045 16.0453C72.4361 14.6938 73.1647 13.9943 74.2621 13.2199L76.2206 11.8417C82.1316 7.68112 89.1503 5.38407 96.375 5.24728L99.022 5.19776C100.411 5.17373 101.437 5.35379 101.912 6.72177L102.422 8.19527C102.615 8.7517 102.107 9.27844 101.571 9.0797L98.9935 8.75755L98.1712 8.82512C90.5316 9.4371 83.1807 12.0591 76.8796 16.4322L76.6124 16.6199L76.6214 16.6025Z" stroke="white" stroke-linecap="round" stroke-linejoin="round"/>
<path d="M85.6699 7.07608L86.0575 8.28315" stroke="white" stroke-linecap="round" stroke-linejoin="round"/>
<path d="M99.0544 8.99248L104.644 22.9794C106.021 26.4299 104.192 30.3203 100.657 31.4554L88.1572 35.4684C84.602 36.6098 80.8354 34.4868 79.9686 30.8579L76.6693 16.8197" stroke="white" stroke-linecap="round" stroke-linejoin="round"/>
<path d="M76.4164 11.5677L73.8222 10.0141C73.5087 9.83096 73.1024 9.92504 72.9039 10.2361C72.6944 10.558 72.7904 10.9929 73.1234 11.1916L75.1819 12.4588" stroke="white" stroke-linecap="round" stroke-linejoin="round"/>
<path d="M96.3095 5.02063L97.4841 2.42437C97.6323 2.093 98.0175 1.93296 98.3599 2.0704C98.7177 2.2102 98.8928 2.61963 98.7377 2.97502L97.8461 5.13844" stroke="white" stroke-linecap="round" stroke-linejoin="round"/>
<path d="M75.0813 14.6157L75.1277 14.5789C82.0701 9.07584 90.4802 6.35386 99.3291 6.74335L99.5788 6.7505" stroke="white" stroke-linecap="round" stroke-linejoin="round"/>
</g>
<g clip-path="url(#clip2_3_274)">
<path d="M122.381 7.55852L119.87 8.26601C119.411 8.53131 118.85 8.17077 118.877 7.62655L118.959 5.89186C119.021 4.51771 119.917 4.08233 121.184 3.68778L123.442 2.9871C130.258 0.87145 137.553 0.830634 144.389 2.87145L146.894 3.61975C148.208 4.01431 149.118 4.4905 149.152 5.91227L149.186 7.44288C149.2 8.02111 148.563 8.36125 148.119 8.01431L145.792 6.93948L144.998 6.7558C137.628 5.03472 129.922 5.27961 122.675 7.47689L122.367 7.57213L122.381 7.55852Z" stroke="white" stroke-linecap="round" stroke-linejoin="round"/>
<path d="M133.768 1.36735L133.768 2.61225" stroke="white" stroke-linecap="round" stroke-linejoin="round"/>
<path d="M145.778 7.17687L146.812 21.932C147.065 25.5714 144.17 28.6599 140.502 28.6599L127.534 28.6599C123.846 28.6599 120.944 25.5442 121.225 21.8912L122.361 7.77551" stroke="white" stroke-linecap="round" stroke-linejoin="round"/>
<path d="M123.709 2.78912L121.738 0.557824C121.498 0.292518 121.088 0.258504 120.807 0.489797C120.513 0.727892 120.472 1.16327 120.725 1.44898L122.278 3.2517" stroke="white" stroke-linecap="round" stroke-linejoin="round"/>
<path d="M144.396 2.63946L146.285 0.564629C146.524 0.299323 146.935 0.26531 147.215 0.496602C147.51 0.734697 147.551 1.17007 147.297 1.45579L145.806 3.21089" stroke="white" stroke-linecap="round" stroke-linejoin="round"/>
<path d="M121.533 5.23809L121.587 5.21768C129.779 2.15646 138.511 2.13605 146.716 5.15646L146.948 5.23809" stroke="white" stroke-linecap="round" stroke-linejoin="round"/>
</g>
<g clip-path="url(#clip3_3_274)">
<path d="M147.689 170.181L150.201 169.449C150.659 169.175 151.22 169.548 151.193 170.111L151.111 171.905C151.049 173.327 150.153 173.777 148.887 174.185L146.629 174.91C139.813 177.099 132.518 177.141 125.681 175.03L123.177 174.256C121.863 173.847 120.953 173.355 120.918 171.884L120.884 170.301C120.87 169.703 121.507 169.351 121.952 169.71L124.278 170.821L125.072 171.011C132.442 172.792 140.148 172.539 147.395 170.265L147.703 170.167L147.689 170.181Z" stroke="white" stroke-linecap="round" stroke-linejoin="round"/>
<path d="M136.302 176.586L136.302 175.298" stroke="white" stroke-linecap="round" stroke-linejoin="round"/>
<path d="M124.292 170.576L123.259 155.312C123.006 151.547 125.9 148.352 129.568 148.352L142.536 148.352C146.225 148.352 149.126 151.575 148.846 155.354L147.71 169.956" stroke="white" stroke-linecap="round" stroke-linejoin="round"/>
<path d="M146.362 175.115L148.333 177.423C148.572 177.697 148.983 177.733 149.263 177.493C149.557 177.247 149.599 176.797 149.345 176.501L147.792 174.636" stroke="white" stroke-linecap="round" stroke-linejoin="round"/>
<path d="M125.674 175.27L123.786 177.416C123.546 177.691 123.136 177.726 122.855 177.487C122.561 177.24 122.52 176.79 122.773 176.494L124.265 174.679" stroke="white" stroke-linecap="round" stroke-linejoin="round"/>
<path d="M148.538 172.581L148.483 172.602C140.292 175.769 131.56 175.79 123.355 172.666L123.122 172.581" stroke="white" stroke-linecap="round" stroke-linejoin="round"/>
</g>
<g clip-path="url(#clip4_3_274)">
<path d="M194.697 160.359L196.898 158.897C197.258 158.499 197.911 158.675 198.053 159.211L198.513 160.919C198.881 162.271 198.152 162.97 197.054 163.743L195.095 165.12C189.181 169.277 182.161 171.57 174.936 171.702L172.289 171.75C170.9 171.774 169.875 171.593 169.4 170.225L168.891 168.751C168.698 168.194 169.206 167.668 169.743 167.867L172.32 168.191L173.142 168.124C180.782 167.516 188.135 164.899 194.439 160.529L194.706 160.342L194.697 160.359Z" stroke="white" stroke-linecap="round" stroke-linejoin="round"/>
<path d="M185.642 169.88L185.256 168.673" stroke="white" stroke-linecap="round" stroke-linejoin="round"/>
<path d="M172.259 167.956L166.678 153.965C165.303 150.514 167.135 146.625 170.671 145.492L183.172 141.486C186.728 140.347 190.494 142.472 191.358 146.102L194.649 160.142" stroke="white" stroke-linecap="round" stroke-linejoin="round"/>
<path d="M194.899 165.394L197.492 166.949C197.805 167.133 198.212 167.039 198.41 166.728C198.62 166.406 198.524 165.971 198.191 165.772L196.134 164.504" stroke="white" stroke-linecap="round" stroke-linejoin="round"/>
<path d="M175.002 171.929L173.825 174.525C173.677 174.856 173.292 175.016 172.949 174.878C172.592 174.738 172.417 174.329 172.572 173.973L173.465 171.81" stroke="white" stroke-linecap="round" stroke-linejoin="round"/>
<path d="M196.236 162.347L196.189 162.384C189.243 167.883 180.832 170.599 171.983 170.205L171.733 170.197" stroke="white" stroke-linecap="round" stroke-linejoin="round"/>
</g>
<g clip-path="url(#clip5_3_274)">
<path d="M194.697 16.7666L196.898 18.2285C197.258 18.6274 197.911 18.4511 198.053 17.9148L198.513 16.2071C198.881 14.8555 198.152 14.1564 197.054 13.3827L195.095 12.0056C189.181 7.84867 182.161 5.5559 174.936 5.42351L172.289 5.37561C170.9 5.35242 169.875 5.53311 169.4 6.90137L168.891 8.37519C168.698 8.93173 169.206 9.45817 169.743 9.2591L172.32 8.93538L173.142 9.00244C180.782 9.60977 188.135 12.2273 194.439 16.5966L194.706 16.7841L194.697 16.7666Z" stroke="white" stroke-linecap="round" stroke-linejoin="round"/>
<path d="M185.642 7.24578L185.256 8.45308" stroke="white" stroke-linecap="round" stroke-linejoin="round"/>
<path d="M172.259 9.17035L166.678 23.1607C165.303 26.612 167.135 30.5013 170.671 31.6342L183.172 35.6396C186.728 36.7789 190.494 34.6535 191.358 31.0241L194.649 16.9839" stroke="white" stroke-linecap="round" stroke-linejoin="round"/>
<path d="M194.899 11.7317L197.492 10.1766C197.805 9.99325 198.212 10.0871 198.41 10.398C198.62 10.7198 198.524 11.1548 198.191 11.3536L196.134 12.6221" stroke="white" stroke-linecap="round" stroke-linejoin="round"/>
<path d="M175.002 5.19682L173.825 2.60127C173.677 2.27 173.292 2.11019 172.949 2.24784C172.592 2.38786 172.417 2.7974 172.572 3.15269L173.465 5.31557" stroke="white" stroke-linecap="round" stroke-linejoin="round"/>
<path d="M196.236 14.7789L196.189 14.7422C189.243 9.24335 180.832 6.52649 171.983 6.92138L171.733 6.92868" stroke="white" stroke-linecap="round" stroke-linejoin="round"/>
</g>
<g clip-path="url(#clip6_3_274)">
<path d="M236.034 139.197L237.774 137.209C238.017 136.729 238.693 136.728 238.972 137.208L239.863 138.736C240.572 139.944 240.052 140.809 239.196 141.844L237.666 143.687C233.05 149.249 226.877 153.303 219.94 155.325L217.398 156.066C216.063 156.453 215.026 156.547 214.209 155.351L213.332 154.063C213 153.576 213.352 152.935 213.922 152.986L216.494 152.623L217.27 152.342C224.483 149.753 230.892 145.298 235.829 139.429L236.038 139.178L236.034 139.197Z" stroke="white" stroke-linecap="round" stroke-linejoin="round"/>
<path d="M229.793 150.759L229.103 149.695" stroke="white" stroke-linecap="round" stroke-linejoin="round"/>
<path d="M216.374 152.412L207.319 140.375C205.087 137.405 205.834 133.172 208.949 131.151L219.963 124.007C223.095 121.975 227.286 123.038 229.072 126.314L235.93 139" stroke="white" stroke-linecap="round" stroke-linejoin="round"/>
<path d="M237.549 144.002L240.459 144.823C240.81 144.918 241.177 144.721 241.287 144.368C241.405 144.003 241.199 143.608 240.826 143.504L238.507 142.819" stroke="white" stroke-linecap="round" stroke-linejoin="round"/>
<path d="M220.062 155.527L219.608 158.34C219.552 158.699 219.222 158.954 218.855 158.911C218.473 158.87 218.197 158.52 218.254 158.137L218.548 155.815" stroke="white" stroke-linecap="round" stroke-linejoin="round"/>
<path d="M238.04 140.711L238.005 140.759C232.744 147.887 225.339 152.715 216.697 154.655L216.454 154.713" stroke="white" stroke-linecap="round" stroke-linejoin="round"/>
</g>
<g clip-path="url(#clip7_3_274)">
<path d="M236.034 37.9292L237.774 39.9172C238.017 40.3965 238.693 40.3976 238.972 39.9176L239.863 38.3903C240.572 37.1823 240.052 36.3165 239.196 35.2819L237.666 33.4392C233.05 27.8768 226.877 23.8231 219.94 21.8005L217.398 21.06C216.063 20.6733 215.026 20.5787 214.209 21.7746L213.332 23.0634C213 23.5499 213.352 24.1911 213.922 24.1397L216.494 24.5032L217.27 24.7836C224.483 27.3735 230.892 31.8277 235.829 37.6974L236.038 37.9484L236.034 37.9292Z" stroke="white" stroke-linecap="round" stroke-linejoin="round"/>
<path d="M229.793 26.3669L229.103 27.4305" stroke="white" stroke-linecap="round" stroke-linejoin="round"/>
<path d="M216.374 24.714L207.319 36.7509C205.087 39.7208 205.834 43.9542 208.949 45.9749L219.963 53.119C223.095 55.151 227.286 54.0876 229.072 50.812L235.93 38.1264" stroke="white" stroke-linecap="round" stroke-linejoin="round"/>
<path d="M237.549 33.1235L240.459 32.3029C240.81 32.2082 241.177 32.4053 241.287 32.7575C241.405 33.123 241.199 33.5176 240.826 33.6222L238.507 34.3066" stroke="white" stroke-linecap="round" stroke-linejoin="round"/>
<path d="M220.062 21.5989L219.608 18.7857C219.552 18.4271 219.222 18.1719 218.855 18.2149C218.473 18.2562 218.197 18.6056 218.254 18.9892L218.548 21.3105" stroke="white" stroke-linecap="round" stroke-linejoin="round"/>
<path d="M238.04 36.4147L238.005 36.3671C232.744 29.239 225.339 24.4111 216.697 22.4714L216.454 22.413" stroke="white" stroke-linecap="round" stroke-linejoin="round"/>
</g>
<g clip-path="url(#clip8_3_274)">
<path d="M102.111 166.583L104.753 166.546C105.271 166.405 105.725 166.906 105.555 167.435L105.017 169.119C104.595 170.455 103.603 170.648 102.261 170.705L99.8685 170.802C92.6461 171.098 85.5021 169.226 79.3552 165.428L77.1033 164.035C75.9225 163.303 75.158 162.596 75.4993 161.189L75.8693 159.674C76.0083 159.102 76.7203 158.934 77.0638 159.392L79.0556 161.059L79.7834 161.447C86.5366 165.071 94.1358 166.849 101.801 166.587L102.128 166.574L102.111 166.583Z" stroke="white" stroke-linecap="round" stroke-linejoin="round"/>
<path d="M89.3441 169.689L89.6723 168.465" stroke="white" stroke-linecap="round" stroke-linejoin="round"/>
<path d="M79.1317 160.828L82.0103 146.043C82.7219 142.397 86.3665 140.118 89.9532 141.079L102.634 144.476C106.24 145.443 108.256 149.268 107.019 152.788L102.188 166.375" stroke="white" stroke-linecap="round" stroke-linejoin="round"/>
<path d="M99.5555 170.927L100.895 173.638C101.059 173.961 101.451 174.103 101.787 173.949C102.137 173.791 102.292 173.374 102.12 173.027L101.076 170.846" stroke="white" stroke-linecap="round" stroke-linejoin="round"/>
<path d="M79.2874 165.654L76.8937 167.2C76.5896 167.398 76.1791 167.324 75.9657 167.023C75.7407 166.711 75.8153 166.272 76.1382 166.058L78.0596 164.722" stroke="white" stroke-linecap="round" stroke-linejoin="round"/>
<path d="M102.329 169.088L102.27 169.094C93.4533 169.958 84.9095 167.691 77.6824 162.57L77.4764 162.429" stroke="white" stroke-linecap="round" stroke-linejoin="round"/>
</g>
<g clip-path="url(#clip9_3_274)">
<path d="M56.385 152.388L58.883 153.25C59.4183 153.294 59.6746 153.92 59.3351 154.359L58.2572 155.761C57.4062 156.873 56.4081 156.718 55.1268 156.315L52.8431 155.594C45.9499 153.418 39.8664 149.232 35.3755 143.571L33.7305 141.496C32.8687 140.406 32.3899 139.482 33.189 138.274L34.0515 136.975C34.3767 136.484 35.1033 136.568 35.2708 137.115L36.578 139.36L37.1305 139.973C42.2509 145.675 48.7942 149.929 56.093 152.286L56.4043 152.385L56.385 152.388Z" stroke="white" stroke-linecap="round" stroke-linejoin="round"/>
<path d="M43.3227 150.972L44.0473 149.932" stroke="white" stroke-linecap="round" stroke-linejoin="round"/>
<path d="M36.7278 139.169L44.4577 126.241C46.3658 123.054 50.568 122.148 53.6148 124.27L64.387 131.773C67.4509 133.908 68.0477 138.19 65.6883 141.08L56.5286 152.218" stroke="white" stroke-linecap="round" stroke-linejoin="round"/>
<path d="M52.5064 155.605L52.8448 158.61C52.8894 158.97 53.2107 159.236 53.5783 159.205C53.9614 159.176 54.2489 158.836 54.2049 158.451L53.9638 156.046" stroke="white" stroke-linecap="round" stroke-linejoin="round"/>
<path d="M35.235 143.76L32.4584 144.401C32.105 144.484 31.7442 144.275 31.6457 143.92C31.5399 143.55 31.7592 143.163 32.1358 143.071L34.3966 142.467" stroke="white" stroke-linecap="round" stroke-linejoin="round"/>
<path d="M55.7396 154.818L55.6822 154.803C47.096 152.621 39.8307 147.586 34.7731 140.315L34.6273 140.112" stroke="white" stroke-linecap="round" stroke-linejoin="round"/>
</g>
<g clip-path="url(#clip10_3_274)">
<path d="M20.5223 126.536L22.4275 128.367C22.895 128.631 22.8647 129.307 22.3723 129.563L20.8053 130.382C19.5657 131.035 18.725 130.475 17.7312 129.572L15.9614 127.958C10.619 123.089 6.85595 116.735 5.15716 109.711L4.53532 107.138C4.21088 105.787 4.16448 104.747 5.39693 103.986L6.72507 103.169C7.22642 102.86 7.85061 103.241 7.77287 103.809L8.01674 106.394L8.26085 107.182C10.5134 114.508 14.6657 121.116 20.3002 126.32L20.5412 126.54L20.5223 126.536Z" stroke="white" stroke-linecap="round" stroke-linejoin="round"/>
<path d="M9.26179 119.766L10.3562 119.126" stroke="white" stroke-linecap="round" stroke-linejoin="round"/>
<path d="M8.2329 106.284L20.6767 97.7972C23.7469 95.7053 27.941 96.6477 29.8151 99.8532L36.4409 111.186C38.3255 114.41 37.0689 118.547 33.714 120.179L20.724 126.442" stroke="white" stroke-linecap="round" stroke-linejoin="round"/>
<path d="M15.6515 127.826L14.6968 130.696C14.586 131.041 14.7659 131.418 15.1125 131.544C15.4722 131.679 15.8759 131.491 15.9978 131.123L16.7889 128.839" stroke="white" stroke-linecap="round" stroke-linejoin="round"/>
<path d="M4.95008 109.824L2.161 109.24C1.80538 109.167 1.5657 108.826 1.62568 108.462C1.68465 108.082 2.04643 107.822 2.42698 107.897L4.73217 108.299" stroke="white" stroke-linecap="round" stroke-linejoin="round"/>
<path d="M18.9163 128.469L18.8704 128.432C11.9939 122.847 7.51455 115.226 5.97767 106.503L5.93056 106.258" stroke="white" stroke-linecap="round" stroke-linejoin="round"/>
</g>
<g clip-path="url(#clip11_3_274)">
<path d="M251.329 124.083L249.424 125.914C248.957 126.178 248.987 126.854 249.479 127.11L251.046 127.93C252.286 128.582 253.127 128.023 254.12 127.119L255.89 125.506C261.233 120.636 264.996 114.282 266.694 107.259L267.316 104.685C267.641 103.334 267.687 102.294 266.455 101.533L265.126 100.717C264.625 100.407 264.001 100.789 264.079 101.356L263.835 103.942L263.591 104.73C261.338 112.055 257.186 118.664 251.551 123.868L251.31 124.088L251.329 124.083Z" stroke="white" stroke-linecap="round" stroke-linejoin="round"/>
<path d="M262.59 117.313L261.495 116.673" stroke="white" stroke-linecap="round" stroke-linejoin="round"/>
<path d="M263.619 103.831L251.175 95.3445C248.105 93.2527 243.911 94.195 242.036 97.4006L235.411 108.734C233.526 111.957 234.783 116.094 238.138 117.727L251.128 123.989" stroke="white" stroke-linecap="round" stroke-linejoin="round"/>
<path d="M256.2 125.374L257.155 128.243C257.266 128.589 257.086 128.965 256.739 129.091C256.379 129.226 255.976 129.038 255.854 128.67L255.063 126.386" stroke="white" stroke-linecap="round" stroke-linejoin="round"/>
<path d="M266.901 107.372L269.691 106.787C270.046 106.714 270.286 106.373 270.226 106.009C270.167 105.629 269.805 105.37 269.425 105.444L267.119 105.846" stroke="white" stroke-linecap="round" stroke-linejoin="round"/>
<path d="M252.935 126.017L252.981 125.979C259.858 120.394 264.337 112.774 265.874 104.05L265.921 103.805" stroke="white" stroke-linecap="round" stroke-linejoin="round"/>
</g>
<g clip-path="url(#clip12_3_274)">
<path d="M8.62389 75.5698L8.08478 78.1567C8.10923 78.6932 7.52071 79.0266 7.04237 78.7453L5.51527 77.8534C4.30394 77.15 4.33136 76.1403 4.56889 74.8184L4.99541 72.4618C6.28196 65.3488 9.66572 58.7847 14.7132 53.6138L16.563 51.7197C17.5352 50.727 18.3917 50.135 19.691 50.7749L21.0884 51.4662C21.6167 51.7267 21.6253 52.4581 21.1036 52.6935L19.0425 54.274L18.5045 54.8996C13.4953 60.7002 10.1032 67.7289 8.68819 75.2672L8.62975 75.5885L8.62389 75.5698Z" stroke="white" stroke-linecap="round" stroke-linejoin="round"/>
<path d="M8.37613 62.4333L9.49968 63.0205" stroke="white" stroke-linecap="round" stroke-linejoin="round"/>
<path d="M19.2508 54.3985L33.0523 60.4314C36.4557 61.9209 37.8858 65.9748 36.1658 69.2656L30.0851 80.9003C28.3556 84.2095 24.1831 85.3431 21.0177 83.3682L8.81058 75.6908" stroke="white" stroke-linecap="round" stroke-linejoin="round"/>
<path d="M4.94236 72.1292L2.00442 72.8449C1.65266 72.9347 1.42943 73.287 1.50662 73.6478C1.58353 74.0241 1.95721 74.2663 2.3338 74.174L4.68921 73.6306" stroke="white" stroke-linecap="round" stroke-linejoin="round"/>
<path d="M14.5074 53.4984L13.5205 50.8252C13.3933 50.4852 13.5552 50.1007 13.8955 49.9581C14.2483 49.8064 14.6605 49.9749 14.7997 50.3369L15.6842 52.5032" stroke="white" stroke-linecap="round" stroke-linejoin="round"/>
<path d="M6.13223 75.2368L6.13948 75.178C7.21759 66.3849 11.2936 58.5411 17.867 52.6044L18.0498 52.4342" stroke="white" stroke-linecap="round" stroke-linejoin="round"/>
</g>
<g clip-path="url(#clip13_3_274)">
<path d="M263.228 75.5698L263.767 78.1567C263.742 78.6932 264.331 79.0266 264.809 78.7453L266.336 77.8534C267.548 77.15 267.52 76.1403 267.283 74.8184L266.856 72.4618C265.57 65.3488 262.186 58.7847 257.138 53.6138L255.289 51.7197C254.316 50.727 253.46 50.135 252.161 50.7749L250.763 51.4662C250.235 51.7267 250.226 52.4581 250.748 52.6935L252.809 54.274L253.347 54.8996C258.356 60.7002 261.748 67.7289 263.163 75.2672L263.222 75.5885L263.228 75.5698Z" stroke="white" stroke-linecap="round" stroke-linejoin="round"/>
<path d="M263.475 62.4333L262.352 63.0205" stroke="white" stroke-linecap="round" stroke-linejoin="round"/>
<path d="M252.601 54.3985L238.799 60.4314C235.396 61.9209 233.966 65.9748 235.686 69.2656L241.766 80.9003C243.496 84.2095 247.668 85.3431 250.834 83.3682L263.041 75.6908" stroke="white" stroke-linecap="round" stroke-linejoin="round"/>
<path d="M266.909 72.1292L269.847 72.8449C270.199 72.9347 270.422 73.287 270.345 73.6478C270.268 74.0241 269.894 74.2663 269.518 74.174L267.162 73.6306" stroke="white" stroke-linecap="round" stroke-linejoin="round"/>
<path d="M257.344 53.4984L258.331 50.8252C258.458 50.4852 258.296 50.1007 257.956 49.9581C257.603 49.8064 257.191 49.9749 257.052 50.3369L256.167 52.5032" stroke="white" stroke-linecap="round" stroke-linejoin="round"/>
<path d="M265.719 75.2368L265.712 75.178C264.634 66.3849 260.558 58.5411 253.985 52.6044L253.802 52.4342" stroke="white" stroke-linecap="round" stroke-linejoin="round"/>
</g>
<defs>
<clipPath id="clip0_3_274">
<rect width="29.5324" height="31.382" fill="white" transform="translate(52.5469 15.7637) rotate(54.5561)"/>
</clipPath>
<clipPath id="clip1_3_274">
<rect width="29.5324" height="31.382" fill="white" transform="translate(100.441 0.871094) rotate(72.2003)"/>
</clipPath>
<clipPath id="clip2_3_274">
<rect width="29" height="31" fill="white" transform="translate(149.535) rotate(90)"/>
</clipPath>
<clipPath id="clip3_3_274">
<rect width="30" height="31" fill="white" transform="translate(120.535 178) rotate(-90)"/>
</clipPath>
<clipPath id="clip4_3_274">
<rect width="29.5324" height="31.382" fill="white" transform="translate(170.867 176.076) rotate(-107.765)"/>
</clipPath>
<clipPath id="clip5_3_274">
<rect width="29.5324" height="31.382" fill="white" transform="matrix(-0.30511 0.952317 0.952317 0.30511 170.867 1.0498)"/>
</clipPath>
<clipPath id="clip6_3_274">
<rect width="29.5324" height="31.382" fill="white" transform="translate(217.16 160.613) rotate(-122.97)"/>
</clipPath>
<clipPath id="clip7_3_274">
<rect width="29.5324" height="31.382" fill="white" transform="matrix(-0.544196 0.838958 0.838958 0.544196 217.16 16.5127)"/>
</clipPath>
<clipPath id="clip8_3_274">
<rect width="29.5324" height="31.382" fill="white" transform="translate(73.5664 166.903) rotate(-75)"/>
</clipPath>
<clipPath id="clip9_3_274">
<rect width="29.5324" height="31.382" fill="white" transform="translate(29.4297 142.992) rotate(-55.1408)"/>
</clipPath>
<clipPath id="clip10_3_274">
<rect width="29.5324" height="31.382" fill="white" transform="translate(0.00390625 106.689) rotate(-30.3122)"/>
</clipPath>
<clipPath id="clip11_3_274">
<rect width="29.5324" height="31.382" fill="white" transform="matrix(-0.863288 -0.504711 -0.504711 0.863288 271.848 104.237)"/>
</clipPath>
<clipPath id="clip12_3_274">
<rect width="29.5324" height="31.382" fill="white" transform="translate(14.5352 47.6426) rotate(27.5933)"/>
</clipPath>
<clipPath id="clip13_3_274">
<rect width="29.5324" height="31.382" fill="white" transform="matrix(-0.886258 0.463192 0.463192 0.886258 257.316 47.6426)"/>
</clipPath>
</defs>
</svg>
