<svg width="35" height="35" viewBox="0 0 35 35" fill="none" xmlns="http://www.w3.org/2000/svg">
<path d="M17.5 35C27.165 35 35 27.165 35 17.5C35 7.83502 27.165 0 17.5 0C7.83502 0 0 7.83502 0 17.5C0 27.165 7.83502 35 17.5 35Z" fill="#A00062"/>
<g clip-path="url(#clip0_705_4773)">
<path d="M17.5943 6C14.4002 6 11.8118 8.55277 11.8118 11.7011C11.8118 14.8494 14.4002 17.4022 17.5943 17.4022C20.7885 17.4022 23.3769 14.8494 23.3769 11.7011C23.3769 8.55277 20.7876 6 17.5943 6ZM17.5943 14.0581C16.2745 14.0581 15.2037 13.0032 15.2037 11.7011C15.2037 10.399 16.2736 9.34414 17.5943 9.34414C18.915 9.34414 19.985 10.399 19.985 11.7011C19.985 13.0032 18.915 14.0581 17.5943 14.0581Z" fill="white"/>
<path d="M19.6357 21.9383C21.951 21.4733 23.3379 20.3923 23.4115 20.3343C24.0893 19.7983 24.1977 18.8234 23.6548 18.1552C23.112 17.4871 22.1223 17.3802 21.4446 17.9154C21.4305 17.9268 19.9509 19.0461 17.5164 19.0478C15.0819 19.0461 13.5709 17.9268 13.5569 17.9154C12.8791 17.3802 11.8895 17.4871 11.3466 18.1552C10.803 18.8234 10.9122 19.7992 11.5899 20.3343C11.6644 20.3931 13.1092 21.5018 15.4882 21.9562L12.1716 25.3738C11.5692 25.9898 11.5866 26.9712 12.2122 27.566C12.5175 27.8556 12.9106 28 13.3037 28C13.6967 28 14.127 27.8409 14.4357 27.526L17.5173 24.2896L20.91 27.5464C21.5248 28.1517 22.5203 28.1501 23.1335 27.5448C23.7467 26.9386 23.7459 25.9571 23.1318 25.3526L19.6373 21.9383H19.6357Z" fill="white"/>
</g>
<defs>
<clipPath id="clip0_705_4773">
<rect width="13" height="22" fill="white" transform="translate(11 6)"/>
</clipPath>
</defs>
</svg>
