<svg width="36" height="40" viewBox="0 0 36 40" fill="none" xmlns="http://www.w3.org/2000/svg">
<g clip-path="url(#clip0_783_5501)">
<path d="M18.7355 40H4.49032C2.01445 40 0 37.9592 0 35.451V4.54902C0 2.04078 2.01445 0 4.49032 0H18.7355C21.2114 0 23.2258 2.04078 23.2258 4.54902V10.5882C23.2258 10.9129 22.9657 11.1765 22.6452 11.1765C22.3246 11.1765 22.0645 10.9129 22.0645 10.5882V4.54902C22.0645 2.68941 20.5711 1.17647 18.7355 1.17647H4.49032C2.65471 1.17647 1.16129 2.68941 1.16129 4.54902V35.451C1.16129 37.3106 2.65471 38.8235 4.49032 38.8235H18.7355C20.5711 38.8235 22.0645 37.3106 22.0645 35.451V27.0588C22.0645 26.7341 22.3246 26.4706 22.6452 26.4706C22.9657 26.4706 23.2258 26.7341 23.2258 27.0588V35.451C23.2258 37.9592 21.2114 40 18.7355 40Z" fill="white"/>
<path d="M15.0984 4.11765H8.13068C7.95416 4.11765 7.78771 4.03608 7.677 3.89725L5.35442 0.956078C5.05094 0.571765 5.3219 0 5.8081 0H17.421C17.9064 0 18.1782 0.57098 17.8747 0.956078L15.5521 3.89725C15.4422 4.03686 15.2749 4.11765 15.0984 4.11765ZM8.40939 2.94118H14.8189L16.2125 1.17647H7.01584L8.40939 2.94118Z" fill="white"/>
<path d="M22.6489 34.1176H8.71346C8.39294 34.1176 8.13281 33.8541 8.13281 33.5294C8.13281 33.2047 8.39294 32.9412 8.71346 32.9412H22.6489C22.9695 32.9412 23.2296 33.2047 23.2296 33.5294C23.2296 33.8541 22.9695 34.1176 22.6489 34.1176Z" fill="white"/>
<path d="M4.06452 34.1176H0.580645C0.260129 34.1176 0 33.8541 0 33.5294C0 33.2047 0.260129 32.9412 0.580645 32.9412H4.06452C4.38503 32.9412 4.64516 33.2047 4.64516 33.5294C4.64516 33.8541 4.38503 34.1176 4.06452 34.1176Z" fill="white"/>
<path d="M32.3525 27.6471H11.6119C11.2914 27.6471 11.0312 27.3835 11.0312 27.0588V10.5882C11.0312 10.2635 11.2914 10 11.6119 10H32.3525C34.3631 10 35.999 11.6573 35.999 13.6941V23.9529C35.999 25.9898 34.3631 27.6471 32.3525 27.6471ZM12.1925 26.4706H32.3525C33.7229 26.4706 34.8377 25.3412 34.8377 23.9529V13.6941C34.8377 12.3059 33.7229 11.1765 32.3525 11.1765H12.1925V26.4706Z" fill="white"/>
<path d="M11.6119 29.4117C11.2914 29.4117 11.0312 29.1481 11.0312 28.8234V8.23521C11.0312 7.9105 11.2914 7.64697 11.6119 7.64697C11.9324 7.64697 12.1925 7.9105 12.1925 8.23521V28.8234C12.1925 29.1481 11.9324 29.4117 11.6119 29.4117Z" fill="white"/>
<path d="M35.4211 15.8823H30.776C30.4554 15.8823 30.1953 15.6188 30.1953 15.294C30.1953 14.9693 30.4554 14.7058 30.776 14.7058H35.4211C35.7416 14.7058 36.0018 14.9693 36.0018 15.294C36.0018 15.6188 35.7416 15.8823 35.4211 15.8823Z" fill="white"/>
<path d="M26.128 15.8823H11.6119C11.2914 15.8823 11.0312 15.6188 11.0312 15.294C11.0312 14.9693 11.2914 14.7058 11.6119 14.7058H26.128C26.4485 14.7058 26.7087 14.9693 26.7087 15.294C26.7087 15.6188 26.4485 15.8823 26.128 15.8823Z" fill="white"/>
<path d="M30.776 23.5294C30.4554 23.5294 30.1953 23.2658 30.1953 22.9411V22.3529C30.1953 22.0282 30.4554 21.7646 30.776 21.7646C31.0965 21.7646 31.3566 22.0282 31.3566 22.3529V22.9411C31.3566 23.2658 31.0965 23.5294 30.776 23.5294Z" fill="white"/>
<path d="M28.4478 23.5294C28.1273 23.5294 27.8672 23.2658 27.8672 22.9411V22.3529C27.8672 22.0282 28.1273 21.7646 28.4478 21.7646C28.7683 21.7646 29.0285 22.0282 29.0285 22.3529V22.9411C29.0285 23.2658 28.7683 23.5294 28.4478 23.5294Z" fill="white"/>
<path d="M26.1275 23.5294C25.807 23.5294 25.5469 23.2658 25.5469 22.9411V22.3529C25.5469 22.0282 25.807 21.7646 26.1275 21.7646C26.448 21.7646 26.7082 22.0282 26.7082 22.3529V22.9411C26.7082 23.2658 26.448 23.5294 26.1275 23.5294Z" fill="white"/>
<path d="M23.8072 23.5294C23.4867 23.5294 23.2266 23.2658 23.2266 22.9411V22.3529C23.2266 22.0282 23.4867 21.7646 23.8072 21.7646C24.1277 21.7646 24.3879 22.0282 24.3879 22.3529V22.9411C24.3879 23.2658 24.1277 23.5294 23.8072 23.5294Z" fill="white"/>
<path d="M28.4478 15.8823C28.7685 15.8823 29.0285 15.6189 29.0285 15.294C29.0285 14.9692 28.7685 14.7058 28.4478 14.7058C28.1272 14.7058 27.8672 14.9692 27.8672 15.294C27.8672 15.6189 28.1272 15.8823 28.4478 15.8823Z" fill="white"/>
<path d="M6.38533 34.1176C6.70601 34.1176 6.96598 33.8543 6.96598 33.5294C6.96598 33.2045 6.70601 32.9412 6.38533 32.9412C6.06465 32.9412 5.80469 33.2045 5.80469 33.5294C5.80469 33.8543 6.06465 34.1176 6.38533 34.1176Z" fill="white"/>
</g>
<defs>
<clipPath id="clip0_783_5501">
<rect width="36" height="40" fill="white"/>
</clipPath>
</defs>
</svg>
