<svg width="35" height="35" viewBox="0 0 35 35" fill="none" xmlns="http://www.w3.org/2000/svg">
<path d="M0 17.5C0 7.84 7.84 0 17.5 0C27.16 0 35 7.84 35 17.5C35 27.16 27.16 35 17.5 35C7.84 35 0 27.16 0 17.5Z" fill="#A00062"/>
<path d="M9.2002 11.5H6.6002C5.9002 11.5 5.7002 11.8 5.7002 12.2C5.7002 12.9 6.6002 16.3 9.8002 20.8C11.9002 23.9 14.9002 25.5 17.7002 25.5C19.3002 25.5 19.5002 25.1 19.5002 24.5V22.2C19.5002 21.5 19.7002 21.3 20.2002 21.3C20.6002 21.3 21.2002 21.5 22.8002 23C24.6002 24.8 24.8002 25.5 25.8002 25.5H28.4002C29.1002 25.5 29.5002 25.1 29.3002 24.4C29.1002 23.7 28.2002 22.6 27.1002 21.4C26.5002 20.7 25.6002 19.9 25.3002 19.5C24.9002 19 25.0002 18.8 25.3002 18.4C25.3002 18.4 28.4002 14 28.8002 12.5C29.0002 12 28.8002 11.6 28.0002 11.6H25.4002C24.7002 11.6 24.4002 11.9 24.3002 12.3C24.3002 12.3 23.0002 15.5 21.1002 17.6C20.5002 18.2 20.2002 18.4 19.9002 18.4C19.7002 18.4 19.5002 18.2 19.5002 17.7V12.6C19.5002 11.9 19.3002 11.7 18.8002 11.7H14.7002C14.3002 11.7 14.0002 12 14.0002 12.3C14.0002 12.9 14.9002 13.1 15.0002 14.8V18.6C15.0002 19.4 14.8002 19.6 14.5002 19.6C13.6002 19.6 11.5002 16.4 10.2002 12.7C10.1002 11.8 9.8002 11.5 9.2002 11.5Z" fill="white"/>
</svg>
