<svg width="36" height="36" viewBox="0 0 36 36" fill="none" xmlns="http://www.w3.org/2000/svg">
<g clip-path="url(#clip0_783_5607)">
<path fill-rule="evenodd" clip-rule="evenodd" d="M0.641521 35.397C1.59072 32.3292 2.67926 29.4188 3.68942 26.4123C-2.9637 14.7531 5.26561 1.61692 16.3948 0.533165C26.9057 -0.498153 35.5269 7.07942 35.553 17.4276C35.5791 28.3438 25.0334 37.5033 13.1727 33.7801C12.2758 33.5004 11.1698 32.5827 10.1248 32.5215C8.67055 32.4341 6.76344 33.4829 5.29174 33.9636C3.68071 34.488 2.27868 35.0037 0.632812 35.4057L0.641521 35.397Z" stroke="white" stroke-miterlimit="10"/>
<path fill-rule="evenodd" clip-rule="evenodd" d="M14.2547 9.33429C15.2648 11.4494 16.8236 14.5783 14.2547 15.9854C15.5609 18.7473 17.7118 20.6613 20.5246 21.9199C21.4564 21.2993 22.0747 20.3554 22.8497 19.5863C24.4782 20.2243 26.0021 20.9759 27.3258 21.9199C27.4651 25.0138 24.87 26.1588 22.6669 26.0539C18.034 25.8441 11.6683 19.9621 10.1356 15.6271C9.22128 13.0575 10.275 8.13691 14.2547 9.33429Z" stroke="white" stroke-miterlimit="10"/>
</g>
<defs>
<clipPath id="clip0_783_5607">
<rect width="36" height="36" fill="white"/>
</clipPath>
</defs>
</svg>
