<svg width="36" height="36" viewBox="0 0 36 36" fill="none" xmlns="http://www.w3.org/2000/svg">
<g clip-path="url(#clip0_783_5601)">
<path fill-rule="evenodd" clip-rule="evenodd" d="M0.641521 35.3967C1.59072 32.329 2.67926 29.4186 3.68942 26.412C-2.9637 14.7529 5.26561 1.61668 16.3948 0.532921C26.9057 -0.498397 35.5269 7.07917 35.553 17.4273C35.5791 28.3436 25.0334 37.5031 13.1727 33.7798C12.2758 33.5002 11.1698 32.5825 10.1248 32.5213C8.67055 32.4339 6.76344 33.4827 5.29174 33.9634C3.68071 34.4878 2.27868 35.0034 0.632812 35.4055L0.641521 35.3967Z" stroke="#A00062" stroke-miterlimit="10"/>
<path fill-rule="evenodd" clip-rule="evenodd" d="M14.2547 9.33453C15.2648 11.4496 16.8236 14.5785 14.2547 15.9857C15.5609 18.7475 17.7118 20.6616 20.5246 21.9201C21.4564 21.2996 22.0747 20.3557 22.8497 19.5865C24.4782 20.2246 26.0021 20.9762 27.3258 21.9201C27.4651 25.0141 24.87 26.159 22.6669 26.0541C18.034 25.8444 11.6683 19.9624 10.1356 15.6273C9.22128 13.0578 10.275 8.13715 14.2547 9.33453Z" stroke="#A00062" stroke-miterlimit="10"/>
</g>
<defs>
<clipPath id="clip0_783_5601">
<rect width="36" height="36" fill="white"/>
</clipPath>
</defs>
</svg>
