<svg width="35" height="35" viewBox="0 0 35 35" fill="none" xmlns="http://www.w3.org/2000/svg">
<path d="M17.5 35C27.165 35 35 27.165 35 17.5C35 7.83502 27.165 0 17.5 0C7.83502 0 0 7.83502 0 17.5C0 27.165 7.83502 35 17.5 35Z" fill="#A00062"/>
<path fill-rule="evenodd" clip-rule="evenodd" d="M7.00108 28C7.56972 26.1591 8.22883 24.409 8.83194 22.6027C4.83635 15.5977 9.78075 7.71165 16.4774 7.05628C22.8003 6.43762 27.9838 10.9907 28 17.2042C28.0161 23.7601 21.6738 29.2654 14.5388 27.0283C14.0003 26.8599 13.3348 26.3092 12.708 26.2725C11.8324 26.2207 10.6843 26.8512 9.80014 27.1363C8.83086 27.4494 7.98866 27.7625 7 28H7.00108ZM12.9234 24.3291C18.6841 27.8348 25.5832 23.9026 26.1691 18.176C26.699 12.9913 22.5699 8.37781 17.0159 8.78378C10.6757 9.24696 6.86753 16.8339 10.7705 22.3856C10.4248 23.3347 10.1017 24.3064 9.80122 25.3008C10.8588 24.9942 11.8345 24.6033 12.9244 24.3291H12.9234Z" fill="white"/>
<path fill-rule="evenodd" clip-rule="evenodd" d="M15.5286 12.109C16.1047 13.3603 16.9949 15.2113 15.5286 16.0427C16.2735 17.6789 17.5045 18.809 19.1089 19.5511C19.643 19.1843 19.9929 18.6272 20.439 18.169C21.3702 18.5475 22.2409 18.9887 22.9971 19.5511C23.0748 21.3798 21.5912 22.056 20.3367 21.9964C17.6897 21.8699 14.0532 18.3955 13.1753 15.8311C12.6545 14.3097 13.253 11.3988 15.5286 12.1101V12.109Z" fill="white"/>
</svg>
