<svg width="192" height="69" viewBox="0 0 192 69" fill="none" xmlns="http://www.w3.org/2000/svg">
<path d="M33.9371 65.5529C33.9371 66.6196 33.5609 67.4592 32.8184 68.0814C32.0759 68.6938 31.1354 69 29.9969 69C28.8584 69 27.908 68.6938 27.1556 68.0715C26.4131 67.4493 26.0369 66.6098 26.0369 65.5628V59.6663H27.8882V65.4048C27.8882 66.027 28.0763 66.5209 28.4426 66.8863C28.8188 67.2518 29.3336 67.4295 29.9969 67.4295C30.6602 67.4295 31.1849 67.2518 31.5512 66.8962C31.9274 66.5308 32.1056 66.0369 32.1056 65.4147V59.6564H33.9173V65.5529H33.9371Z" fill="white"/>
<path d="M40.9661 61.1676H37.4813V63.459H40.3919V64.9801H37.4813V68.8123H35.6399V59.6564H40.9562V61.1676H40.9661Z" fill="white"/>
<path d="M49.391 68.8123H47.5397L46.6388 66.5999H43.3322L42.4313 68.8123H40.6493L44.5004 59.5577H45.5399L49.3712 68.8123H49.391ZM46.1141 65.1776L45.332 63.2121C45.1934 62.8566 45.0845 62.5306 44.9954 62.2244H44.9657C44.9162 62.4121 44.8073 62.7479 44.6291 63.2121L43.847 65.1776H46.1141Z" fill="white"/>
<path d="M61.1719 60.1206L60.8353 61.6812C60.2314 61.3158 59.5087 61.138 58.687 61.138C57.7663 61.138 56.9743 61.4244 56.3209 61.9874C55.6774 62.5504 55.3507 63.3109 55.3507 64.2689C55.3507 65.227 55.6774 65.9875 56.3308 66.5505C56.9842 67.1135 57.7861 67.3999 58.7365 67.3999C59.6176 67.3999 60.3403 67.2518 60.9145 66.9456L60.7561 68.5358C60.2215 68.7926 59.4592 68.921 58.4791 68.921C57.6574 68.921 56.8753 68.7531 56.1229 68.4172C55.3804 68.0715 54.7468 67.5382 54.2419 66.8073C53.737 66.0665 53.4796 65.2171 53.4796 64.2393C53.4796 63.2615 53.737 62.4022 54.2419 61.6713C54.7567 60.9306 55.3903 60.3972 56.1328 60.0614C56.8753 59.7157 57.6574 59.5478 58.4692 59.5478C59.5681 59.5478 60.4591 59.7354 61.162 60.1206H61.1719Z" fill="white"/>
<path d="M71.9134 64.2196C71.9134 65.632 71.4184 66.7876 70.4185 67.6765C69.4186 68.5555 68.2504 69 66.904 69C65.5576 69 64.3894 68.5555 63.3895 67.6765C62.3896 66.7876 61.8946 65.632 61.8946 64.2196C61.8946 63.2714 62.1322 62.4319 62.6173 61.6911C63.1024 60.9503 63.7261 60.3972 64.4884 60.0219C65.2408 59.6367 66.0526 59.449 66.9139 59.449C67.7752 59.449 68.587 59.6367 69.3394 60.0219C70.0918 60.3972 70.7155 60.9503 71.1907 61.6911C71.6758 62.4319 71.9233 63.2714 71.9233 64.2196H71.9134ZM69.0721 66.5604C69.7057 65.9678 70.0324 65.1974 70.0324 64.2492C70.0324 63.301 69.7156 62.5405 69.0721 61.9578C68.4484 61.3652 67.7158 61.0688 66.8941 61.0688C66.0724 61.0688 65.3299 61.3652 64.7062 61.9479C64.0825 62.5306 63.7657 63.301 63.7657 64.2591C63.7657 65.2171 64.0825 65.9777 64.7062 66.5703C65.3299 67.1629 66.0625 67.4592 66.8941 67.4592C67.7257 67.4592 68.4385 67.1629 69.0721 66.5703V66.5604Z" fill="white"/>
<path d="M81.9123 68.9605H81.1204L77.0812 64.6542C76.6852 64.2295 76.0318 63.4986 75.1111 62.4418H75.0814C75.1012 62.9554 75.1111 63.6566 75.1111 64.5653V68.8124H73.2994V59.6565H74.725L78.3385 63.5183C79.1008 64.3283 79.6948 64.99 80.1007 65.4937H80.1304C80.1106 65.0591 80.1007 64.4171 80.1007 63.5381V59.6466H81.9123V68.9408V68.9605Z" fill="white"/>
<path d="M91.9212 68.0419C91.1094 68.6839 89.961 69 88.4661 69C87.8226 69 87.189 68.8914 86.5653 68.6839C85.9614 68.4765 85.407 68.1802 84.9219 67.795C84.4269 67.3999 84.031 66.8962 83.734 66.2839C83.437 65.6616 83.2885 64.9801 83.2885 64.2295C83.2885 63.4788 83.437 62.7874 83.7438 62.1652C84.0507 61.5429 84.4468 61.0392 84.9319 60.654C85.4268 60.2589 85.9713 59.9626 86.5653 59.7651C87.1593 59.5577 87.7731 59.449 88.3869 59.449C89.6442 59.449 90.654 59.696 91.4262 60.1799L91.0896 61.7108C90.3669 61.2565 89.5353 61.0195 88.5948 61.0195C87.6543 61.0195 86.8326 61.3158 86.1594 61.8985C85.4862 62.4812 85.1497 63.2714 85.1497 64.2788C85.1497 65.2863 85.4763 66.0271 86.1297 66.5999C86.793 67.1728 87.6048 67.4592 88.5552 67.4592C89.2482 67.4592 89.7927 67.3308 90.1887 67.0839V65.3455H88.3077V63.9233H91.9212V68.0123V68.0419Z" fill="white"/>
<path d="M101.099 68.8123H98.8612L96.1288 64.9998H95.2873V68.8123H93.4756V59.6564H96.604C97.3861 59.6564 98.0692 59.8935 98.6434 60.3774C99.2275 60.8515 99.5245 61.5034 99.5245 62.3331C99.5245 62.8763 99.376 63.3603 99.079 63.7652C98.7919 64.1702 98.4256 64.4665 97.9801 64.6541L101.079 68.8123H101.099ZM97.7227 62.3726C97.7227 61.9874 97.5841 61.6911 97.3069 61.4837C97.0396 61.2762 96.7129 61.1676 96.3268 61.1676H95.2972V63.5776H96.3268C96.7129 63.5776 97.0396 63.4788 97.3069 63.2714C97.5841 63.064 97.7227 62.7578 97.7227 62.3627V62.3726Z" fill="white"/>
<path d="M107.187 68.8123H101.485V59.6564H106.722V61.1676H103.326V63.459H106.148V64.9801H103.326V67.3011H107.187V68.8123Z" fill="white"/>
<path d="M113.85 66.1159C113.85 66.9752 113.563 67.6567 112.978 68.1703C112.414 68.6642 111.592 68.921 110.523 68.921C109.454 68.921 108.662 68.7136 108.028 68.3086L107.84 66.5406C108.642 67.1135 109.523 67.3999 110.484 67.3999C110.949 67.3999 111.315 67.3012 111.583 67.0937C111.86 66.8863 111.998 66.6098 111.998 66.2641C111.998 65.9184 111.889 65.6517 111.672 65.4443C111.454 65.2369 111.097 65.0591 110.602 64.9109C108.87 64.4171 107.999 63.4887 107.999 62.1454C107.999 61.4046 108.266 60.7923 108.811 60.2984C109.345 59.8046 110.098 59.5478 111.058 59.5478C111.969 59.5478 112.701 59.7157 113.246 60.0614L112.889 61.5429C112.345 61.2071 111.751 61.0392 111.107 61.0392C110.692 61.0392 110.355 61.138 110.127 61.3256C109.89 61.5133 109.771 61.7602 109.771 62.0466C109.771 62.3133 109.87 62.5405 110.078 62.7183C110.296 62.8862 110.622 63.0442 111.058 63.1726C111.969 63.4492 112.662 63.8146 113.127 64.2788C113.592 64.7332 113.83 65.3455 113.83 66.1159H113.85Z" fill="white"/>
<path d="M120.928 66.1159C120.928 66.9752 120.641 67.6567 120.057 68.1703C119.493 68.6642 118.671 68.921 117.602 68.921C116.533 68.921 115.741 68.7136 115.107 68.3086L114.919 66.5406C115.721 67.1135 116.602 67.3999 117.562 67.3999C118.027 67.3999 118.394 67.3012 118.661 67.0937C118.938 66.8863 119.077 66.6098 119.077 66.2641C119.077 65.9184 118.968 65.6517 118.75 65.4443C118.532 65.2369 118.176 65.0591 117.681 64.9109C115.948 64.4171 115.077 63.4887 115.077 62.1454C115.077 61.4046 115.345 60.7923 115.889 60.2984C116.424 59.8046 117.176 59.5478 118.136 59.5478C119.097 59.5478 119.78 59.7157 120.324 60.0614L119.968 61.5429C119.423 61.2071 118.829 61.0392 118.186 61.0392C117.76 61.0392 117.433 61.138 117.196 61.3256C116.958 61.5133 116.839 61.7602 116.839 62.0466C116.839 62.3133 116.938 62.5405 117.146 62.7183C117.364 62.8862 117.691 63.0442 118.136 63.1726C119.047 63.4492 119.74 63.8146 120.205 64.2788C120.681 64.7332 120.908 65.3455 120.908 66.1159H120.928Z" fill="white"/>
<path d="M133.59 68.8123H131.739V64.9998H127.502V68.8123H125.65V59.6564H127.502V63.4492H131.739V59.6564H133.59V68.8123Z" fill="white"/>
<path d="M144.995 64.2196C144.995 65.632 144.5 66.7876 143.5 67.6765C142.5 68.5555 141.332 69 139.986 69C138.639 69 137.471 68.5555 136.471 67.6765C135.471 66.7876 134.976 65.632 134.976 64.2196C134.976 63.2714 135.214 62.4319 135.699 61.6911C136.184 60.9503 136.808 60.3972 137.57 60.0219C138.322 59.6367 139.134 59.449 139.995 59.449C140.857 59.449 141.669 59.6367 142.421 60.0219C143.173 60.3972 143.797 60.9503 144.272 61.6911C144.757 62.4319 145.005 63.2714 145.005 64.2196H144.995ZM142.164 66.5604C142.797 65.9678 143.114 65.1974 143.114 64.2492C143.114 63.301 142.797 62.5405 142.164 61.9578C141.54 61.3652 140.807 61.0688 139.986 61.0688C139.164 61.0688 138.421 61.3652 137.798 61.9479C137.174 62.5306 136.857 63.301 136.857 64.2591C136.857 65.2171 137.174 65.9777 137.798 66.5703C138.421 67.1629 139.154 67.4592 139.986 67.4592C140.817 67.4592 141.53 67.1629 142.164 66.5703V66.5604Z" fill="white"/>
<path d="M152.697 61.1676H149.846V68.8123H147.995V61.1676H145.143V59.6564H152.697V61.1676Z" fill="white"/>
<path d="M159.34 68.8123H153.638V59.6564H158.865V61.1676H155.469V63.459H158.291V64.9801H155.469V67.3011H159.33V68.8123H159.34Z" fill="white"/>
<path d="M165.973 68.8123H160.29V59.6564H162.142V67.3011H165.973V68.8123Z" fill="white"/>
<path d="M164.656 34.0753C164.656 33.9864 164.735 33.9074 164.825 33.9074H174.942C175.031 33.9074 175.111 33.9765 175.111 34.0753V36.2877C175.111 36.2877 175.111 36.347 175.091 36.3668L167.923 48.1104C167.923 48.1104 167.894 48.1795 167.903 48.219C167.923 48.2783 167.973 48.3277 168.042 48.3277H175.19C175.279 48.3277 175.358 48.3968 175.358 48.4956V50.708C175.358 50.7969 175.279 50.8759 175.19 50.8759H164.498C164.409 50.8759 164.33 50.8068 164.33 50.708V48.3277C164.33 48.3277 164.33 48.2684 164.349 48.2487L171.557 36.2482C171.557 36.2482 171.576 36.189 171.557 36.1593C171.547 36.1198 171.497 36.0803 171.448 36.0803H164.805C164.716 36.0803 164.636 36.0112 164.636 35.9124V34.0654L164.656 34.0753Z" fill="white"/>
<path d="M144.955 51.0339C144.955 51.1228 144.886 51.2019 144.787 51.2019H135.768C135.679 51.2019 135.6 51.1327 135.6 51.0339V34.0753C135.6 33.9864 135.679 33.9074 135.768 33.9074H138.827C138.916 33.9074 138.996 33.9765 138.996 34.0753V48.3573C138.996 48.4462 139.065 48.5252 139.164 48.5252H144.787C144.876 48.5252 144.955 48.5944 144.955 48.6931V51.0438V51.0339Z" fill="white"/>
<path d="M104.544 34.0753C104.544 33.9864 104.623 33.9074 104.712 33.9074H107.326C107.385 33.9074 107.444 33.937 107.474 33.9963L112.315 42.8361C112.751 43.6658 113.068 44.367 113.275 44.9399C113.285 44.9794 113.335 45.009 113.384 45.009C113.444 45.009 113.493 44.9596 113.493 44.9004V34.0654C113.493 33.9765 113.572 33.8975 113.662 33.8975H116.404C116.493 33.8975 116.572 33.9667 116.572 34.0654V50.6981C116.572 50.787 116.493 50.866 116.404 50.866H113.899C113.84 50.866 113.78 50.8364 113.751 50.787L109.137 42.7176C108.424 41.4237 107.929 40.3076 107.672 39.3496C107.662 39.3101 107.632 39.2903 107.593 39.2903C107.543 39.2903 107.504 39.3298 107.504 39.3693V50.708C107.504 50.7969 107.425 50.8759 107.335 50.8759H104.712C104.623 50.8759 104.544 50.8068 104.544 50.708V34.0753Z" fill="white"/>
<path d="M93.9804 50.8759C91.7529 50.8759 90.0501 50.145 88.8819 48.6733C87.7434 47.2017 87.1693 45.1473 87.1693 42.52C87.1693 39.8928 87.7533 37.7692 88.9215 36.2482C90.1095 34.6975 91.8024 33.9271 93.9804 33.9271C96.1584 33.9271 97.9107 34.6481 99.0789 36.1C100.267 37.5421 100.871 39.5866 100.871 42.2138C100.871 44.8411 100.287 47.0535 99.1185 48.6042C97.9503 50.1252 96.2376 50.8858 93.9804 50.8858V50.8759ZM96.7623 38.026C96.2079 37.068 95.2773 36.5939 93.9804 36.5939C92.6835 36.5939 91.7628 37.0877 91.1985 38.0655C90.6441 39.0236 90.357 40.436 90.357 42.3225C90.357 46.1646 91.5648 48.0906 93.9705 48.0906C95.2872 48.0906 96.2277 47.5968 96.7821 46.6189C97.3365 45.6411 97.6236 44.209 97.6236 42.3225C97.6236 40.436 97.3365 38.9841 96.7524 38.026H96.7623Z" fill="white"/>
<path d="M84.5061 36.4556C84.5061 36.5445 84.4269 36.6236 84.3378 36.6236H80.2788C80.1897 36.6236 80.1105 36.6927 80.1105 36.7915V50.7179C80.1105 50.8068 80.0313 50.8858 79.9422 50.8858H76.9623C76.8732 50.8858 76.794 50.8167 76.794 50.7179V36.7915C76.794 36.7026 76.7148 36.6236 76.6258 36.6236H72.646C72.5569 36.6236 72.4777 36.5544 72.4777 36.4556V34.0753C72.4777 33.9864 72.5569 33.9074 72.646 33.9074H84.3378C84.4269 33.9074 84.5061 33.9765 84.5061 34.0753V36.4556Z" fill="white"/>
<path d="M65.7457 33.9172C65.815 33.9172 65.8843 33.9666 65.9041 34.0358L71.0818 50.6685C71.1115 50.7771 71.0323 50.8759 70.9234 50.8759H68.2702C68.2009 50.8759 68.1316 50.8265 68.1118 50.7573L66.508 45.4436C66.4882 45.3744 66.4189 45.3251 66.3496 45.3251H62.0926C62.0233 45.3251 61.954 45.3744 61.9342 45.4436L60.3304 50.7573C60.3106 50.8265 60.2413 50.8759 60.172 50.8759H58.0138C57.9049 50.8759 57.8257 50.7672 57.8554 50.6685L63.1024 34.0358C63.1222 33.9666 63.1915 33.9172 63.2608 33.9172H65.7457ZM65.4091 43.2114C65.518 43.2114 65.5972 43.1126 65.5675 43.004L64.2904 38.5495C64.2904 38.5495 64.2409 38.4804 64.1914 38.4804C64.1419 38.4804 64.1122 38.51 64.1023 38.5495L62.6866 43.004C62.6569 43.1126 62.7361 43.2114 62.845 43.2114H65.4091Z" fill="white"/>
<path d="M155.588 33.9172C155.657 33.9172 155.727 33.9666 155.746 34.0358L160.924 50.6685C160.954 50.7771 160.875 50.8759 160.766 50.8759H158.112C158.033 50.8759 157.974 50.8265 157.954 50.7573L156.35 45.4436C156.33 45.3744 156.261 45.3251 156.192 45.3251H151.935C151.866 45.3251 151.796 45.3744 151.776 45.4436L150.173 50.7573C150.153 50.8265 150.084 50.8759 150.014 50.8759H147.856C147.747 50.8759 147.668 50.7672 147.698 50.6685L152.945 34.0358C152.964 33.9666 153.034 33.9172 153.103 33.9172H155.588ZM155.251 43.2114C155.36 43.2114 155.439 43.1126 155.41 43.004L154.133 38.5495C154.133 38.5495 154.083 38.4804 154.034 38.4804C153.984 38.4804 153.954 38.51 153.945 38.5495L152.529 43.004C152.499 43.1126 152.578 43.2114 152.687 43.2114H155.241H155.251Z" fill="white"/>
<path d="M186.654 33.9172C186.723 33.9172 186.793 33.9666 186.812 34.0358L191.99 50.6685C192.02 50.7771 191.941 50.8759 191.832 50.8759H189.178C189.109 50.8759 189.04 50.8265 189.02 50.7573L187.416 45.4436C187.397 45.3744 187.327 45.3251 187.258 45.3251H183.001C182.932 45.3251 182.862 45.3744 182.843 45.4436L181.239 50.7573C181.219 50.8265 181.15 50.8759 181.08 50.8759H178.922C178.813 50.8759 178.734 50.7672 178.764 50.6685L184.011 34.0358C184.031 33.9666 184.1 33.9172 184.169 33.9172H186.654ZM186.317 43.2114C186.426 43.2114 186.506 43.1126 186.476 43.004L185.199 38.5495C185.199 38.5495 185.149 38.4804 185.1 38.4804C185.05 38.4804 185.021 38.51 185.011 38.5495L183.595 43.004C183.565 43.1126 183.644 43.2114 183.753 43.2114H186.317Z" fill="white"/>
<path fill-rule="evenodd" clip-rule="evenodd" d="M47.6387 43.6163C47.6387 43.6163 47.5595 43.5373 47.5001 43.5373H47.2229C47.1338 43.5373 47.0546 43.6065 47.0546 43.7052V50.7178C47.0546 50.8067 46.9754 50.8857 46.8863 50.8857H43.9163C43.8272 50.8857 43.748 50.8166 43.748 50.7178V34.1247C43.748 34.0358 43.8173 33.9666 43.9163 33.9567C45.629 33.9271 47.2427 33.9172 48.7673 33.9172C52.9055 33.9172 54.44 35.4383 54.44 38.8063C54.44 41.0484 53.0342 42.362 50.8265 43.0336C50.7176 43.0632 50.6681 43.2015 50.7374 43.2904L56.2417 50.6191C56.3209 50.7277 56.2417 50.8759 56.1031 50.8759H52.5194C52.46 50.8759 52.4105 50.8462 52.3808 50.7969L47.6387 43.6065V43.6163ZM51.5393 38.747C51.5393 37.8285 51.2918 37.2161 50.8067 36.7914C50.3216 36.347 49.688 36.1198 48.9257 36.1198H47.213C47.1239 36.1198 47.0447 36.1889 47.0447 36.2877V41.2163C47.0447 41.3052 47.1239 41.3842 47.213 41.3842H48.9257C49.688 41.3842 50.3117 41.157 50.8067 40.7125C51.2918 40.2878 51.5393 39.6755 51.5393 38.7569V38.747Z" fill="white"/>
<path d="M33.1055 48.2881C33.1055 48.377 33.1847 48.456 33.2738 48.456H39.2435C39.3326 48.456 39.4118 48.5252 39.4118 48.6239V50.7178C39.4118 50.8067 39.3326 50.8857 39.2435 50.8857H29.888C29.7989 50.8857 29.7197 50.8166 29.7197 50.7178V34.0851C29.7197 33.9962 29.7989 33.9172 29.888 33.9172H38.9861C39.0752 33.9172 39.1544 33.9864 39.1544 34.0851V35.7741C39.1544 35.863 39.0752 35.942 38.9861 35.942H33.2639C33.1748 35.942 33.0956 36.0111 33.0956 36.1099V40.752C33.0956 40.8409 33.1748 40.92 33.2639 40.92H38.3129C38.402 40.92 38.4812 40.9891 38.4812 41.0879V43.0632C38.4812 43.1521 38.402 43.2311 38.3129 43.2311H33.2639C33.1748 43.2311 33.0956 43.3003 33.0956 43.3991V48.3276L33.1055 48.2881Z" fill="white"/>
<path d="M13.6917 34.0753C13.6917 33.9864 13.7709 33.9074 13.8599 33.9074H16.5131C16.6022 33.9074 16.6814 33.9765 16.6814 34.0753V40.6533C16.6814 40.7422 16.7606 40.8212 16.8497 40.8212H21.8591C21.9482 40.8212 22.0274 40.7521 22.0274 40.6533V34.0753C22.0274 33.9864 22.1066 33.9074 22.1957 33.9074H24.8885C24.9776 33.9074 25.0568 33.9765 25.0568 34.0753V50.708C25.0568 50.7969 24.9776 50.8759 24.8885 50.8759H22.1957C22.1066 50.8759 22.0274 50.8068 22.0274 50.708V43.1917C22.0274 43.1028 21.9482 43.0238 21.8591 43.0238H16.8497C16.7606 43.0238 16.6814 43.0929 16.6814 43.1917V50.708C16.6814 50.7969 16.6022 50.8759 16.5131 50.8759H13.8599C13.7709 50.8759 13.6917 50.8068 13.6917 50.708V34.0753Z" fill="white"/>
<path d="M9.20697 34.4308C9.27627 34.4506 9.32577 34.5197 9.32577 34.5988L9.18717 36.9988C9.18717 37.1075 9.06837 37.1865 8.95947 37.147C7.86057 36.7519 6.68248 36.5643 5.41528 36.5643C4.14809 36.5643 3.51449 37.1964 3.51449 38.4507C3.51449 38.9446 3.73229 39.3792 4.15799 39.7446C4.61338 40.1101 5.15788 40.436 5.77168 40.7224C6.41518 41.0089 7.06858 41.3348 7.71207 41.7002C8.35557 42.0361 8.90007 42.5595 9.32577 43.2707C9.78117 43.9522 10.0089 44.772 10.0089 45.7399C10.0089 47.419 9.48417 48.6931 8.43477 49.5919C7.41508 50.4512 6.03898 50.8858 4.31639 50.8858C3.59369 50.8858 2.86109 50.8166 2.13839 50.6882C1.4355 50.5796 0.900897 50.4611 0.524698 50.3326L0.1188 50.2141C0.0494998 50.1944 0 50.1252 0 50.0561L0.1089 47.5079C0.1089 47.3893 0.237599 47.3202 0.336599 47.3597C1.66319 47.8733 2.99969 48.1301 4.35599 48.1301C5.81128 48.1301 6.53398 47.419 6.53398 46.0066C6.53398 45.4535 6.30628 44.9893 5.85088 44.5942C5.41528 44.1793 4.89058 43.8238 4.27679 43.5373C3.65309 43.2509 3.01949 42.9349 2.37599 42.599C1.75229 42.2632 1.2177 41.7595 0.762298 41.1076C0.326699 40.4261 0.1188 39.6162 0.1188 38.6779C0.1188 37.2951 0.593998 36.1494 1.53449 35.2605C2.47499 34.3716 3.80159 33.9271 5.49448 33.9271C6.16768 33.9271 6.81118 33.9765 7.43488 34.0852C8.07837 34.1642 8.55357 34.2432 8.85057 34.3222L9.21687 34.4407L9.20697 34.4308Z" fill="white"/>
<path d="M121.74 50.8759C121.651 50.8759 121.572 50.8068 121.572 50.708V34.1148C121.572 34.0259 121.641 33.9568 121.74 33.9469C123.512 33.9173 125.215 33.9074 126.868 33.9074C128.62 33.9074 130.006 34.3815 131.026 35.3198C132.076 36.2581 132.6 36.9594 132.6 38.7372C132.6 40.7225 131.769 41.799 130.907 42.5596C129.808 43.5275 128.353 44.0115 126.551 44.0115H125.027C124.938 44.0115 124.858 44.0806 124.858 44.1794V50.7179C124.858 50.8068 124.779 50.8858 124.69 50.8858H121.75L121.74 50.8759ZM125.007 36.4952C124.918 36.4952 124.839 36.5643 124.839 36.6631V41.2756C124.839 41.3645 124.918 41.4435 125.007 41.4435H126.452C128.254 41.4435 129.155 41.0385 129.155 38.915C129.155 36.7915 128.294 36.505 126.571 36.505H125.007V36.4952Z" fill="white"/>
<path d="M92.7132 4.42485C92.7825 4.44461 92.832 4.51375 92.832 4.59276L92.6934 6.99285C92.6934 7.10149 92.5746 7.18051 92.4657 7.141C91.3668 6.74592 90.1887 6.55826 88.9215 6.55826C87.6543 6.55826 87.0207 7.19038 87.0207 8.44475C87.0207 8.9386 87.2385 9.37318 87.6642 9.73862C88.1196 10.1041 88.6641 10.43 89.2779 10.7164C89.9214 11.0029 90.5748 11.3288 91.2183 11.6942C91.8618 12.0301 92.4063 12.5535 92.832 13.2647C93.2874 13.9462 93.5151 14.766 93.5151 15.7339C93.5151 17.413 92.9904 18.6871 91.941 19.576C90.9213 20.4353 89.5452 20.8699 87.8226 20.8699C87.0999 20.8699 86.3673 20.8007 85.6446 20.6723C84.9417 20.5637 84.4071 20.4452 84.0309 20.3168L83.625 20.1983C83.5557 20.1785 83.5062 20.1094 83.5062 20.0402L83.6151 17.492C83.6151 17.3735 83.7438 17.3043 83.8428 17.3438C85.1694 17.8574 86.5059 18.1142 87.8622 18.1142C89.3175 18.1142 90.0402 17.4031 90.0402 15.9907C90.0402 15.4376 89.8125 14.9734 89.3571 14.5783C88.9215 14.1635 88.3968 13.8079 87.783 13.5215C87.1593 13.235 86.5257 12.919 85.8822 12.5832C85.2585 12.2474 84.7239 11.7436 84.2685 11.0918C83.8329 10.4103 83.625 9.60035 83.625 8.66204C83.625 7.27928 84.1002 6.13356 85.0407 5.24464C85.9812 4.35572 87.3078 3.91125 89.0007 3.91125C89.6739 3.91125 90.3174 3.96064 90.9411 4.06929C91.5846 4.1483 92.0598 4.22732 92.3568 4.30633L92.7231 4.42485H92.7132Z" fill="white"/>
<path d="M97.693 20.8699C97.6039 20.8699 97.5247 20.8007 97.5247 20.702V4.11867C97.5247 4.02978 97.594 3.96064 97.693 3.95076C99.4651 3.92113 101.168 3.91125 102.821 3.91125C104.573 3.91125 105.959 4.38535 106.979 5.32365C108.029 6.26196 108.553 6.96322 108.553 8.74106C108.553 10.7263 107.722 11.8029 106.86 12.5634C105.752 13.5314 104.306 14.0153 102.504 14.0153H100.98C100.891 14.0153 100.811 14.0845 100.811 14.1832V20.7217C100.811 20.8106 100.732 20.8896 100.643 20.8896H97.7029L97.693 20.8699ZM100.96 6.48913C100.871 6.48913 100.792 6.55826 100.792 6.65703V11.2695C100.792 11.3584 100.871 11.4374 100.96 11.4374H102.405C104.207 11.4374 105.108 11.0325 105.108 8.90897C105.108 6.78543 104.247 6.499 102.524 6.499H100.96V6.48913Z" fill="white"/>
<path fill-rule="evenodd" clip-rule="evenodd" d="M96.0297 24.7811C112.167 24.7811 125.254 19.2303 125.254 12.3856C125.254 5.54094 112.167 0 96.0297 0C79.8927 0 66.805 5.55082 66.805 12.3955C66.805 19.2402 79.8927 24.791 96.0297 24.791V24.7811ZM96.0297 23.4774C110.325 23.4774 121.918 18.5093 121.918 12.3856C121.918 6.26195 110.325 1.30375 96.0297 1.30375C81.7341 1.30375 70.1413 6.27183 70.1413 12.3955C70.1413 18.5192 81.7341 23.4873 96.0297 23.4873V23.4774Z" fill="white"/>
</svg>
