<svg width="180" height="99" viewBox="0 0 180 99" fill="none" xmlns="http://www.w3.org/2000/svg">
<g clip-path="url(#clip0_1_2)">
<path d="M28.03 21.4415L30.6225 20.734C31.0958 20.4687 31.6751 20.8292 31.6468 21.3734L31.562 23.1081C31.4985 24.4823 30.5731 24.9177 29.2662 25.3122L26.9351 26.0129C19.8993 28.1285 12.3691 28.1694 5.31214 26.1286L2.72671 25.3803C1.37042 24.9857 0.430903 24.5095 0.395583 23.0877L0.360263 21.5571C0.346135 20.9789 1.00309 20.6388 1.46225 20.9857L3.86402 22.0605L4.68344 22.2442C12.2914 23.9653 20.2455 23.7204 27.7263 21.5231L28.0441 21.4279L28.03 21.4415Z" stroke="white" stroke-linecap="round" stroke-linejoin="round"/>
<path d="M16.2755 27.6327L16.2755 26.3878" stroke="white" stroke-linecap="round" stroke-linejoin="round"/>
<path d="M3.87814 21.8231L2.81148 7.06802C2.55011 3.42857 5.53819 0.340133 9.3245 0.340133L22.7108 0.340133C26.5183 0.340132 29.5135 3.45578 29.2238 7.10884L28.0512 21.2245" stroke="white" stroke-linecap="round" stroke-linejoin="round"/>
<path d="M26.6596 26.2109L28.694 28.4422C28.9413 28.7075 29.3651 28.7415 29.6547 28.5102C29.9585 28.2721 30.0009 27.8367 29.7395 27.551L28.136 25.7483" stroke="white" stroke-linecap="round" stroke-linejoin="round"/>
<path d="M5.30508 26.3608L3.35541 28.4356C3.10817 28.7009 2.68433 28.7349 2.39471 28.5036C2.09095 28.2655 2.04857 27.8302 2.30994 27.5445L3.84989 25.7893" stroke="white" stroke-linecap="round" stroke-linejoin="round"/>
<path d="M28.906 23.7619L28.8495 23.7823C20.3938 26.8435 11.3801 26.8639 2.91038 23.8435L2.6702 23.7619" stroke="white" stroke-linecap="round" stroke-linejoin="round"/>
</g>
<g clip-path="url(#clip1_1_2)">
<path d="M28.03 91.4415L30.6225 90.734C31.0958 90.4687 31.6751 90.8292 31.6468 91.3734L31.562 93.1081C31.4985 94.4823 30.5731 94.9177 29.2662 95.3122L26.9351 96.0129C19.8993 98.1285 12.3691 98.1694 5.31214 96.1285L2.72671 95.3802C1.37042 94.9857 0.430903 94.5095 0.395583 93.0877L0.360263 91.5571C0.346135 90.9789 1.00309 90.6388 1.46225 90.9857L3.86402 92.0605L4.68344 92.2442C12.2914 93.9653 20.2455 93.7204 27.7263 91.5231L28.0441 91.4279L28.03 91.4415Z" stroke="white" stroke-linecap="round" stroke-linejoin="round"/>
<path d="M16.2755 97.6327L16.2755 96.3878" stroke="white" stroke-linecap="round" stroke-linejoin="round"/>
<path d="M3.87814 91.8231L2.81148 77.068C2.55011 73.4286 5.53819 70.3401 9.3245 70.3401L22.7108 70.3401C26.5183 70.3401 29.5135 73.4558 29.2238 77.1088L28.0512 91.2245" stroke="white" stroke-linecap="round" stroke-linejoin="round"/>
<path d="M26.6596 96.2109L28.694 98.4422C28.9413 98.7075 29.3651 98.7415 29.6547 98.5102C29.9585 98.2721 30.0009 97.8367 29.7395 97.551L28.136 95.7483" stroke="white" stroke-linecap="round" stroke-linejoin="round"/>
<path d="M5.30508 96.3605L3.35541 98.4354C3.10817 98.7007 2.68433 98.7347 2.39471 98.5034C2.09095 98.2653 2.04857 97.8299 2.30994 97.5442L3.84989 95.7891" stroke="white" stroke-linecap="round" stroke-linejoin="round"/>
<path d="M28.906 93.7619L28.8495 93.7823C20.3938 96.8435 11.3801 96.8639 2.91038 93.8435L2.6702 93.7619" stroke="white" stroke-linecap="round" stroke-linejoin="round"/>
</g>
<g clip-path="url(#clip2_1_2)">
<path d="M66.1541 58.1809L68.6656 57.4491C69.1241 57.1746 69.6852 57.5476 69.6578 58.1106L69.5757 59.9051C69.5141 61.3266 68.6177 61.777 67.3517 62.1852L65.0934 62.91C58.2775 65.0986 50.9826 65.1408 44.1461 63.0296L41.6415 62.2555C40.3276 61.8474 39.4174 61.3548 39.3832 59.884L39.349 58.3006C39.3353 57.7024 39.9717 57.3505 40.4166 57.7094L42.7433 58.8213L43.5371 59.0113C50.9073 60.7918 58.6128 60.5384 65.8598 58.2654L66.1678 58.1669L66.1541 58.1809Z" stroke="white" stroke-linecap="round" stroke-linejoin="round"/>
<path d="M54.7669 64.5855L54.7669 63.2977" stroke="white" stroke-linecap="round" stroke-linejoin="round"/>
<path d="M42.757 58.5757L41.7236 43.3118C41.4704 39.5468 44.3651 36.3519 48.0331 36.3519L61.0011 36.3519C64.6896 36.3519 67.5912 39.5749 67.3106 43.354L66.1746 57.9564" stroke="white" stroke-linecap="round" stroke-linejoin="round"/>
<path d="M64.8265 63.1147L66.7974 65.4229C67.0369 65.6974 67.4475 65.7326 67.728 65.4933C68.0223 65.247 68.0634 64.7966 67.8102 64.5011L66.2567 62.6362" stroke="white" stroke-linecap="round" stroke-linejoin="round"/>
<path d="M44.1393 63.2695L42.2506 65.4159C42.011 65.6904 41.6004 65.7255 41.3199 65.4863C41.0256 65.24 40.9845 64.7896 41.2377 64.494L42.7296 62.6784" stroke="white" stroke-linecap="round" stroke-linejoin="round"/>
<path d="M67.0026 60.5813L66.9479 60.6024C58.7565 63.7692 50.0245 63.7903 41.8194 60.6657L41.5868 60.5813" stroke="white" stroke-linecap="round" stroke-linejoin="round"/>
</g>
<g clip-path="url(#clip3_1_2)">
<path d="M101.03 21.4415L103.623 20.734C104.096 20.4687 104.675 20.8292 104.647 21.3734L104.562 23.1081C104.498 24.4823 103.573 24.9177 102.266 25.3122L99.9351 26.0129C92.8993 28.1285 85.3691 28.1694 78.3121 26.1286L75.7267 25.3803C74.3704 24.9857 73.4309 24.5095 73.3956 23.0877L73.3603 21.5571C73.3461 20.9789 74.0031 20.6388 74.4623 20.9857L76.864 22.0605L77.6834 22.2442C85.2914 23.9653 93.2455 23.7204 100.726 21.5231L101.044 21.4279L101.03 21.4415Z" stroke="white" stroke-linecap="round" stroke-linejoin="round"/>
<path d="M89.2755 27.6327L89.2755 26.3878" stroke="white" stroke-linecap="round" stroke-linejoin="round"/>
<path d="M76.8781 21.8231L75.8115 7.06802C75.5501 3.42857 78.5382 0.340133 82.3245 0.340133L95.7108 0.340133C99.5183 0.340132 102.513 3.45578 102.224 7.10884L101.051 21.2245" stroke="white" stroke-linecap="round" stroke-linejoin="round"/>
<path d="M99.6596 26.2109L101.694 28.4422C101.941 28.7075 102.365 28.7415 102.655 28.5102C102.958 28.2721 103.001 27.8367 102.74 27.551L101.136 25.7483" stroke="white" stroke-linecap="round" stroke-linejoin="round"/>
<path d="M78.3051 26.3608L76.3554 28.4356C76.1082 28.7009 75.6843 28.7349 75.3947 28.5036C75.0909 28.2655 75.0486 27.8302 75.3099 27.5445L76.8499 25.7893" stroke="white" stroke-linecap="round" stroke-linejoin="round"/>
<path d="M101.906 23.7619L101.849 23.7823C93.3938 26.8435 84.3801 26.8639 75.9104 23.8435L75.6702 23.7619" stroke="white" stroke-linecap="round" stroke-linejoin="round"/>
</g>
<g clip-path="url(#clip4_1_2)">
<path d="M101.03 91.4415L103.623 90.734C104.096 90.4687 104.675 90.8292 104.647 91.3734L104.562 93.1081C104.498 94.4823 103.573 94.9177 102.266 95.3122L99.9351 96.0129C92.8993 98.1285 85.3691 98.1694 78.3121 96.1285L75.7267 95.3802C74.3704 94.9857 73.4309 94.5095 73.3956 93.0877L73.3603 91.5571C73.3461 90.9789 74.0031 90.6388 74.4623 90.9857L76.864 92.0605L77.6834 92.2442C85.2914 93.9653 93.2455 93.7204 100.726 91.5231L101.044 91.4279L101.03 91.4415Z" stroke="white" stroke-linecap="round" stroke-linejoin="round"/>
<path d="M89.2755 97.6327L89.2755 96.3878" stroke="white" stroke-linecap="round" stroke-linejoin="round"/>
<path d="M76.8781 91.8231L75.8115 77.068C75.5501 73.4286 78.5382 70.3401 82.3245 70.3401L95.7108 70.3401C99.5183 70.3401 102.513 73.4558 102.224 77.1088L101.051 91.2245" stroke="white" stroke-linecap="round" stroke-linejoin="round"/>
<path d="M99.6596 96.2109L101.694 98.4422C101.941 98.7075 102.365 98.7415 102.655 98.5102C102.958 98.2721 103.001 97.8367 102.74 97.551L101.136 95.7483" stroke="white" stroke-linecap="round" stroke-linejoin="round"/>
<path d="M78.3051 96.3605L76.3554 98.4354C76.1082 98.7007 75.6843 98.7347 75.3947 98.5034C75.0909 98.2653 75.0486 97.8299 75.3099 97.5442L76.8499 95.7891" stroke="white" stroke-linecap="round" stroke-linejoin="round"/>
<path d="M101.906 93.7619L101.849 93.7823C93.3938 96.8435 84.3801 96.8639 75.9104 93.8435L75.6702 93.7619" stroke="white" stroke-linecap="round" stroke-linejoin="round"/>
</g>
<g clip-path="url(#clip5_1_2)">
<path d="M139.278 58.1809L141.709 57.4491C142.152 57.1746 142.695 57.5476 142.669 58.1106L142.589 59.9051C142.53 61.3266 141.662 61.777 140.437 62.1852L138.252 62.91C131.656 65.0986 124.596 65.1408 117.98 63.0296L115.556 62.2555C114.285 61.8474 113.404 61.3548 113.371 59.884L113.338 58.3006C113.325 57.7024 113.94 57.3505 114.371 57.7094L116.623 58.8213L117.391 59.0113C124.523 60.7918 131.98 60.5384 138.993 58.2654L139.291 58.1669L139.278 58.1809Z" stroke="white" stroke-linecap="round" stroke-linejoin="round"/>
<path d="M128.258 64.5855L128.258 63.2977" stroke="white" stroke-linecap="round" stroke-linejoin="round"/>
<path d="M116.636 58.5757L115.636 43.3118C115.391 39.5468 118.192 36.3519 121.742 36.3519L134.291 36.3519C137.861 36.3519 140.669 39.5749 140.397 43.354L139.298 57.9564" stroke="white" stroke-linecap="round" stroke-linejoin="round"/>
<path d="M137.993 63.1147L139.901 65.4229C140.132 65.6974 140.53 65.7326 140.801 65.4933C141.086 65.247 141.126 64.7966 140.881 64.5011L139.377 62.6362" stroke="white" stroke-linecap="round" stroke-linejoin="round"/>
<path d="M117.974 63.2695L116.146 65.4159C115.914 65.6904 115.517 65.7255 115.245 65.4863C114.96 65.24 114.921 64.7896 115.166 64.494L116.609 62.6784" stroke="white" stroke-linecap="round" stroke-linejoin="round"/>
<path d="M140.099 60.5813L140.046 60.6024C132.119 63.7692 123.669 63.7903 115.728 60.6657L115.503 60.5813" stroke="white" stroke-linecap="round" stroke-linejoin="round"/>
</g>
<g clip-path="url(#clip6_1_2)">
<path d="M176.154 21.4415L178.666 20.734C179.124 20.4687 179.685 20.8292 179.658 21.3734L179.576 23.1081C179.514 24.4823 178.618 24.9177 177.352 25.3122L175.093 26.0129C168.277 28.1285 160.983 28.1694 154.146 26.1286L151.642 25.3803C150.328 24.9857 149.417 24.5095 149.383 23.0877L149.349 21.5571C149.335 20.9789 149.972 20.6388 150.417 20.9857L152.743 22.0605L153.537 22.2442C160.907 23.9653 168.613 23.7204 175.86 21.5231L176.168 21.4279L176.154 21.4415Z" stroke="white" stroke-linecap="round" stroke-linejoin="round"/>
<path d="M164.767 27.6327L164.767 26.3878" stroke="white" stroke-linecap="round" stroke-linejoin="round"/>
<path d="M152.757 21.8231L151.724 7.06803C151.47 3.42857 154.365 0.340137 158.033 0.340137L171.001 0.340136C174.69 0.340136 177.591 3.45578 177.311 7.10884L176.175 21.2245" stroke="white" stroke-linecap="round" stroke-linejoin="round"/>
<path d="M174.826 26.2109L176.797 28.4422C177.037 28.7075 177.447 28.7415 177.728 28.5102C178.022 28.2721 178.063 27.8367 177.81 27.551L176.257 25.7483" stroke="white" stroke-linecap="round" stroke-linejoin="round"/>
<path d="M154.139 26.3608L152.251 28.4356C152.011 28.7009 151.6 28.7349 151.32 28.5036C151.026 28.2655 150.985 27.8302 151.238 27.5445L152.73 25.7893" stroke="white" stroke-linecap="round" stroke-linejoin="round"/>
<path d="M177.003 23.7619L176.948 23.7823C168.757 26.8435 160.025 26.8639 151.819 23.8435L151.587 23.7619" stroke="white" stroke-linecap="round" stroke-linejoin="round"/>
</g>
<g clip-path="url(#clip7_1_2)">
<path d="M176.154 91.4415L178.666 90.734C179.124 90.4687 179.685 90.8292 179.658 91.3734L179.576 93.1081C179.514 94.4823 178.618 94.9177 177.352 95.3122L175.093 96.0129C168.277 98.1285 160.983 98.1694 154.146 96.1285L151.642 95.3802C150.328 94.9857 149.417 94.5095 149.383 93.0877L149.349 91.5571C149.335 90.9789 149.972 90.6388 150.417 90.9857L152.743 92.0605L153.537 92.2442C160.907 93.9653 168.613 93.7204 175.86 91.5231L176.168 91.4279L176.154 91.4415Z" stroke="white" stroke-linecap="round" stroke-linejoin="round"/>
<path d="M164.767 97.6327L164.767 96.3878" stroke="white" stroke-linecap="round" stroke-linejoin="round"/>
<path d="M152.757 91.8231L151.724 77.068C151.47 73.4286 154.365 70.3401 158.033 70.3401L171.001 70.3401C174.69 70.3401 177.591 73.4558 177.311 77.1088L176.175 91.2245" stroke="white" stroke-linecap="round" stroke-linejoin="round"/>
<path d="M174.826 96.2109L176.797 98.4422C177.037 98.7075 177.447 98.7415 177.728 98.5102C178.022 98.2721 178.063 97.8367 177.81 97.551L176.257 95.7483" stroke="white" stroke-linecap="round" stroke-linejoin="round"/>
<path d="M154.139 96.3605L152.251 98.4354C152.011 98.7007 151.6 98.7347 151.32 98.5034C151.026 98.2653 150.985 97.8299 151.238 97.5442L152.73 95.7891" stroke="white" stroke-linecap="round" stroke-linejoin="round"/>
<path d="M177.003 93.7619L176.948 93.7823C168.757 96.8435 160.025 96.8639 151.819 93.8435L151.587 93.7619" stroke="white" stroke-linecap="round" stroke-linejoin="round"/>
</g>
<defs>
<clipPath id="clip0_1_2">
<rect width="29" height="32" fill="white" transform="translate(0 29) rotate(-90)"/>
</clipPath>
<clipPath id="clip1_1_2">
<rect width="29" height="32" fill="white" transform="translate(0 99) rotate(-90)"/>
</clipPath>
<clipPath id="clip2_1_2">
<rect width="30" height="31" fill="white" transform="translate(39 66) rotate(-90)"/>
</clipPath>
<clipPath id="clip3_1_2">
<rect width="29" height="32" fill="white" transform="translate(73 29) rotate(-90)"/>
</clipPath>
<clipPath id="clip4_1_2">
<rect width="29" height="32" fill="white" transform="translate(73 99) rotate(-90)"/>
</clipPath>
<clipPath id="clip5_1_2">
<rect width="30" height="30" fill="white" transform="translate(113 66) rotate(-90)"/>
</clipPath>
<clipPath id="clip6_1_2">
<rect width="29" height="31" fill="white" transform="translate(149 29) rotate(-90)"/>
</clipPath>
<clipPath id="clip7_1_2">
<rect width="29" height="31" fill="white" transform="translate(149 99) rotate(-90)"/>
</clipPath>
</defs>
</svg>
