<svg width="148" height="143" viewBox="0 0 148 143" fill="none" xmlns="http://www.w3.org/2000/svg">
<path d="M108 105H39V72V39H108V105Z" stroke="white"/>
<g clip-path="url(#clip0_1_76)">
<path d="M7.55852 63.1541L8.26601 65.6656C8.53131 66.1241 8.17077 66.6852 7.62655 66.6578L5.89186 66.5757C4.51771 66.5141 4.08234 65.6177 3.68778 64.3517L2.9871 62.0934C0.871451 55.2775 0.830635 47.9826 2.87145 41.1461L3.61975 38.6415C4.01431 37.3276 4.4905 36.4174 5.91227 36.3832L7.44288 36.349C8.02111 36.3353 8.36125 36.9717 8.01431 37.4166L6.93948 39.7433L6.7558 40.5371C5.03472 47.9073 5.27961 55.6128 7.47689 62.8598L7.57213 63.1678L7.55852 63.1541Z" stroke="white" stroke-linecap="round" stroke-linejoin="round"/>
<path d="M1.36735 51.7669H2.61225" stroke="white" stroke-linecap="round" stroke-linejoin="round"/>
<path d="M7.17687 39.757L21.932 38.7236C25.5714 38.4704 28.6599 41.3651 28.6599 45.0331L28.6599 58.0011C28.6599 61.6896 25.5442 64.5912 21.8912 64.3106L7.77551 63.1746" stroke="white" stroke-linecap="round" stroke-linejoin="round"/>
<path d="M2.78912 61.8265L0.557824 63.7973C0.292518 64.0369 0.258504 64.4475 0.489797 64.728C0.727892 65.0223 1.16327 65.0634 1.44898 64.8102L3.2517 63.2567" stroke="white" stroke-linecap="round" stroke-linejoin="round"/>
<path d="M2.63946 41.1393L0.564629 39.2506C0.299323 39.011 0.26531 38.6004 0.496602 38.3199C0.734697 38.0256 1.17007 37.9845 1.45579 38.2377L3.21089 39.7296" stroke="white" stroke-linecap="round" stroke-linejoin="round"/>
<path d="M5.23809 64.0026L5.21768 63.9479C2.15646 55.7565 2.13605 47.0245 5.15646 38.8194L5.23809 38.5868" stroke="white" stroke-linecap="round" stroke-linejoin="round"/>
</g>
<g clip-path="url(#clip1_1_76)">
<path d="M139.92 79.8459L139.164 77.3344C138.881 76.8759 139.266 76.3148 139.848 76.3422L141.702 76.4243C143.171 76.4859 143.636 77.3823 144.058 78.6483L144.807 80.9066C147.069 87.7225 147.112 95.0174 144.931 101.854L144.131 104.358C143.709 105.672 143.2 106.583 141.68 106.617L140.044 106.651C139.426 106.665 139.062 106.028 139.433 105.583L140.582 103.257L140.779 102.463C142.618 95.0927 142.357 87.3872 140.008 80.1402L139.906 79.8322L139.92 79.8459Z" stroke="white" stroke-linecap="round" stroke-linejoin="round"/>
<path d="M146.538 91.2331L145.208 91.2331" stroke="white" stroke-linecap="round" stroke-linejoin="round"/>
<path d="M140.328 103.243L124.555 104.276C120.665 104.53 117.364 101.635 117.364 97.9669L117.364 84.9989C117.364 81.3104 120.694 78.4088 124.599 78.6894L139.688 79.8254" stroke="white" stroke-linecap="round" stroke-linejoin="round"/>
<path d="M145.019 81.1735L147.404 79.2027C147.687 78.9631 147.724 78.5525 147.476 78.272C147.222 77.9777 146.757 77.9366 146.451 78.1898L144.524 79.7433" stroke="white" stroke-linecap="round" stroke-linejoin="round"/>
<path d="M145.179 101.861L147.397 103.749C147.68 103.989 147.717 104.4 147.469 104.68C147.215 104.974 146.75 105.015 146.444 104.762L144.568 103.27" stroke="white" stroke-linecap="round" stroke-linejoin="round"/>
<path d="M142.401 78.9974L142.422 79.0521C145.695 87.2435 145.717 95.9755 142.488 104.181L142.401 104.413" stroke="white" stroke-linecap="round" stroke-linejoin="round"/>
</g>
<g clip-path="url(#clip2_1_76)">
<path d="M7.55852 103.154L8.26601 105.666C8.53131 106.124 8.17077 106.685 7.62655 106.658L5.89186 106.576C4.51771 106.514 4.08234 105.618 3.68778 104.352L2.9871 102.093C0.871451 95.2775 0.830635 87.9826 2.87145 81.1461L3.61975 78.6415C4.01431 77.3276 4.4905 76.4174 5.91227 76.3832L7.44288 76.349C8.02111 76.3353 8.36125 76.9717 8.01431 77.4166L6.93948 79.7433L6.7558 80.5371C5.03472 87.9073 5.27961 95.6128 7.47689 102.86L7.57213 103.168L7.55852 103.154Z" stroke="white" stroke-linecap="round" stroke-linejoin="round"/>
<path d="M1.36735 91.7669H2.61225" stroke="white" stroke-linecap="round" stroke-linejoin="round"/>
<path d="M7.17687 79.757L21.932 78.7236C25.5714 78.4704 28.6599 81.3651 28.6599 85.0331L28.6599 98.0011C28.6599 101.69 25.5442 104.591 21.8912 104.311L7.77551 103.175" stroke="white" stroke-linecap="round" stroke-linejoin="round"/>
<path d="M2.78912 101.826L0.557824 103.797C0.292518 104.037 0.258504 104.447 0.489797 104.728C0.727892 105.022 1.16327 105.063 1.44898 104.81L3.2517 103.257" stroke="white" stroke-linecap="round" stroke-linejoin="round"/>
<path d="M2.63946 81.1393L0.564629 79.2506C0.299323 79.011 0.26531 78.6004 0.496602 78.3199C0.734697 78.0256 1.17007 77.9845 1.45579 78.2377L3.21089 79.7296" stroke="white" stroke-linecap="round" stroke-linejoin="round"/>
<path d="M5.23809 104.003L5.21768 103.948C2.15646 95.7565 2.13605 87.0245 5.15646 78.8194L5.23809 78.5868" stroke="white" stroke-linecap="round" stroke-linejoin="round"/>
</g>
<g clip-path="url(#clip3_1_76)">
<path d="M139.92 39.8459L139.164 37.3344C138.881 36.8759 139.266 36.3148 139.848 36.3422L141.702 36.4243C143.171 36.4859 143.636 37.3823 144.058 38.6483L144.807 40.9066C147.069 47.7225 147.112 55.0174 144.931 61.8539L144.131 64.3585C143.709 65.6724 143.2 66.5826 141.68 66.6168L140.044 66.651C139.426 66.6647 139.062 66.0283 139.433 65.5834L140.582 63.2567L140.779 62.4629C142.618 55.0927 142.357 47.3872 140.008 40.1402L139.906 39.8322L139.92 39.8459Z" stroke="white" stroke-linecap="round" stroke-linejoin="round"/>
<path d="M146.538 51.2331L145.208 51.2331" stroke="white" stroke-linecap="round" stroke-linejoin="round"/>
<path d="M140.328 63.243L124.555 64.2764C120.665 64.5296 117.364 61.6349 117.364 57.9669L117.364 44.9989C117.364 41.3104 120.694 38.4088 124.599 38.6894L139.688 39.8254" stroke="white" stroke-linecap="round" stroke-linejoin="round"/>
<path d="M145.019 41.1735L147.404 39.2027C147.687 38.9631 147.724 38.5525 147.476 38.272C147.222 37.9777 146.757 37.9366 146.451 38.1898L144.524 39.7433" stroke="white" stroke-linecap="round" stroke-linejoin="round"/>
<path d="M145.179 61.8607L147.397 63.7494C147.68 63.989 147.717 64.3996 147.469 64.6801C147.215 64.9744 146.75 65.0155 146.444 64.7623L144.568 63.2704" stroke="white" stroke-linecap="round" stroke-linejoin="round"/>
<path d="M142.401 38.9974L142.422 39.0521C145.695 47.2435 145.717 55.9755 142.488 64.1806L142.401 64.4132" stroke="white" stroke-linecap="round" stroke-linejoin="round"/>
</g>
<g clip-path="url(#clip4_1_76)">
<path d="M79.8459 7.55853L77.3344 8.26601C76.8759 8.53131 76.3148 8.17077 76.3422 7.62655L76.4243 5.89186C76.4859 4.51771 77.3823 4.08234 78.6483 3.68778L80.9066 2.9871C87.7225 0.871451 95.0174 0.830635 101.854 2.87145L104.358 3.61975C105.672 4.01431 106.583 4.4905 106.617 5.91227L106.651 7.44288C106.665 8.02111 106.028 8.36125 105.583 8.01431L103.257 6.93948L102.463 6.7558C95.0927 5.03472 87.3872 5.27961 80.1402 7.47689L79.8322 7.57213L79.8459 7.55853Z" stroke="white" stroke-linecap="round" stroke-linejoin="round"/>
<path d="M91.2331 1.36735L91.2331 2.61225" stroke="white" stroke-linecap="round" stroke-linejoin="round"/>
<path d="M103.243 7.17687L104.276 21.932C104.53 25.5714 101.635 28.6599 97.9669 28.6599L84.9989 28.6599C81.3104 28.6599 78.4088 25.5442 78.6894 21.8912L79.8254 7.77551" stroke="white" stroke-linecap="round" stroke-linejoin="round"/>
<path d="M81.1735 2.78912L79.2027 0.557824C78.9631 0.292518 78.5525 0.258504 78.272 0.489797C77.9777 0.727892 77.9366 1.16327 78.1898 1.44898L79.7433 3.2517" stroke="white" stroke-linecap="round" stroke-linejoin="round"/>
<path d="M101.861 2.6398L103.749 0.564965C103.989 0.299659 104.4 0.265645 104.68 0.496938C104.974 0.735033 105.015 1.17041 104.762 1.45612L103.27 3.21122" stroke="white" stroke-linecap="round" stroke-linejoin="round"/>
<path d="M78.9974 5.23809L79.0521 5.21768C87.2435 2.15646 95.9755 2.13605 104.181 5.15646L104.413 5.23809" stroke="white" stroke-linecap="round" stroke-linejoin="round"/>
</g>
<g clip-path="url(#clip5_1_76)">
<path d="M66.1541 135.442L68.6656 134.734C69.1241 134.469 69.6852 134.829 69.6578 135.374L69.5757 137.108C69.5141 138.482 68.6177 138.918 67.3517 139.312L65.0934 140.013C58.2775 142.129 50.9826 142.169 44.1461 140.129L41.6415 139.38C40.3276 138.986 39.4174 138.51 39.3832 137.088L39.349 135.557C39.3353 134.979 39.9717 134.639 40.4166 134.986L42.7433 136.061L43.5371 136.244C50.9073 137.965 58.6128 137.721 65.8598 135.523L66.1678 135.428L66.1541 135.442Z" stroke="white" stroke-linecap="round" stroke-linejoin="round"/>
<path d="M54.7669 141.633L54.7669 140.388" stroke="white" stroke-linecap="round" stroke-linejoin="round"/>
<path d="M42.757 135.823L41.7236 121.068C41.4704 117.429 44.3651 114.34 48.0331 114.34L61.0011 114.34C64.6896 114.34 67.5912 117.456 67.3106 121.109L66.1746 135.224" stroke="white" stroke-linecap="round" stroke-linejoin="round"/>
<path d="M64.8265 140.211L66.7973 142.442C67.0369 142.707 67.4475 142.741 67.728 142.51C68.0223 142.272 68.0634 141.837 67.8102 141.551L66.2567 139.748" stroke="white" stroke-linecap="round" stroke-linejoin="round"/>
<path d="M44.1393 140.361L42.2506 142.436C42.011 142.701 41.6004 142.735 41.3199 142.504C41.0256 142.266 40.9845 141.83 41.2377 141.544L42.7296 139.789" stroke="white" stroke-linecap="round" stroke-linejoin="round"/>
<path d="M67.0026 137.762L66.9479 137.782C58.7565 140.844 50.0245 140.864 41.8194 137.844L41.5868 137.762" stroke="white" stroke-linecap="round" stroke-linejoin="round"/>
</g>
<g clip-path="url(#clip6_1_76)">
<path d="M42.8459 7.55853L40.3344 8.26601C39.8759 8.53131 39.3148 8.17077 39.3422 7.62655L39.4243 5.89186C39.4859 4.51771 40.3823 4.08234 41.6483 3.68778L43.9066 2.9871C50.7225 0.871451 58.0174 0.830635 64.8539 2.87145L67.3585 3.61975C68.6724 4.01431 69.5826 4.4905 69.6168 5.91227L69.651 7.44288C69.6647 8.02111 69.0283 8.36125 68.5834 8.01431L66.2567 6.93948L65.4629 6.7558C58.0927 5.03472 50.3872 5.27961 43.1402 7.47689L42.8322 7.57213L42.8459 7.55853Z" stroke="white" stroke-linecap="round" stroke-linejoin="round"/>
<path d="M54.2331 1.36735L54.2331 2.61225" stroke="white" stroke-linecap="round" stroke-linejoin="round"/>
<path d="M66.243 7.17687L67.2764 21.932C67.5296 25.5714 64.6349 28.6599 60.9669 28.6599L47.9989 28.6599C44.3104 28.6599 41.4088 25.5442 41.6894 21.8912L42.8254 7.77551" stroke="white" stroke-linecap="round" stroke-linejoin="round"/>
<path d="M44.1735 2.78912L42.2027 0.557824C41.9631 0.292518 41.5525 0.258504 41.272 0.489797C40.9777 0.727892 40.9366 1.16327 41.1898 1.44898L42.7433 3.2517" stroke="white" stroke-linecap="round" stroke-linejoin="round"/>
<path d="M64.8607 2.6398L66.7494 0.564965C66.989 0.299659 67.3996 0.265645 67.6801 0.496938C67.9744 0.735033 68.0155 1.17041 67.7623 1.45612L66.2704 3.21122" stroke="white" stroke-linecap="round" stroke-linejoin="round"/>
<path d="M41.9974 5.23809L42.0521 5.21768C50.2435 2.15646 58.9755 2.13605 67.1806 5.15646L67.4132 5.23809" stroke="white" stroke-linecap="round" stroke-linejoin="round"/>
</g>
<g clip-path="url(#clip7_1_76)">
<path d="M103.154 135.442L105.666 134.734C106.124 134.469 106.685 134.829 106.658 135.374L106.576 137.108C106.514 138.482 105.618 138.918 104.352 139.312L102.093 140.013C95.2775 142.129 87.9826 142.169 81.1461 140.129L78.6415 139.38C77.3276 138.986 76.4174 138.51 76.3832 137.088L76.349 135.557C76.3353 134.979 76.9717 134.639 77.4166 134.986L79.7433 136.061L80.5371 136.244C87.9073 137.965 95.6128 137.721 102.86 135.523L103.168 135.428L103.154 135.442Z" stroke="white" stroke-linecap="round" stroke-linejoin="round"/>
<path d="M91.7669 141.633L91.7669 140.388" stroke="white" stroke-linecap="round" stroke-linejoin="round"/>
<path d="M79.757 135.823L78.7236 121.068C78.4704 117.429 81.3651 114.34 85.0331 114.34L98.0011 114.34C101.69 114.34 104.591 117.456 104.311 121.109L103.175 135.224" stroke="white" stroke-linecap="round" stroke-linejoin="round"/>
<path d="M101.826 140.211L103.797 142.442C104.037 142.707 104.447 142.741 104.728 142.51C105.022 142.272 105.063 141.837 104.81 141.551L103.257 139.748" stroke="white" stroke-linecap="round" stroke-linejoin="round"/>
<path d="M81.1393 140.361L79.2506 142.436C79.011 142.701 78.6004 142.735 78.3199 142.504C78.0256 142.266 77.9845 141.83 78.2377 141.544L79.7296 139.789" stroke="white" stroke-linecap="round" stroke-linejoin="round"/>
<path d="M104.003 137.762L103.948 137.782C95.7565 140.844 87.0245 140.864 78.8194 137.844L78.5868 137.762" stroke="white" stroke-linecap="round" stroke-linejoin="round"/>
</g>
<defs>
<clipPath id="clip0_1_76">
<rect width="29" height="31" fill="white" transform="translate(0 36)"/>
</clipPath>
<clipPath id="clip1_1_76">
<rect width="31" height="31" fill="white" transform="translate(148 107) rotate(-180)"/>
</clipPath>
<clipPath id="clip2_1_76">
<rect width="29" height="31" fill="white" transform="translate(0 76)"/>
</clipPath>
<clipPath id="clip3_1_76">
<rect width="31" height="31" fill="white" transform="translate(148 67) rotate(-180)"/>
</clipPath>
<clipPath id="clip4_1_76">
<rect width="29" height="31" fill="white" transform="translate(107) rotate(90)"/>
</clipPath>
<clipPath id="clip5_1_76">
<rect width="29" height="31" fill="white" transform="translate(39 143) rotate(-90)"/>
</clipPath>
<clipPath id="clip6_1_76">
<rect width="29" height="31" fill="white" transform="translate(70) rotate(90)"/>
</clipPath>
<clipPath id="clip7_1_76">
<rect width="29" height="31" fill="white" transform="translate(76 143) rotate(-90)"/>
</clipPath>
</defs>
</svg>
