<svg width="35" height="35" viewBox="0 0 35 35" fill="none" xmlns="http://www.w3.org/2000/svg">
<path d="M0 17.5C0 7.84 7.84 0 17.5 0C27.16 0 35 7.84 35 17.5C35 27.16 27.16 35 17.5 35C7.84 35 0 27.16 0 17.5Z" fill="#A00062"/>
<path d="M9.20312 11.5H6.60313C5.90313 11.5 5.70312 11.8 5.70312 12.2C5.70312 12.9 6.60313 16.3 9.80313 20.8C11.9031 23.9 14.9031 25.5 17.7031 25.5C19.3031 25.5 19.5031 25.1 19.5031 24.5V22.2C19.5031 21.5 19.7031 21.3 20.2031 21.3C20.6031 21.3 21.2031 21.5 22.8031 23C24.6031 24.8 24.8031 25.5 25.8031 25.5H28.4031C29.1031 25.5 29.5031 25.1 29.3031 24.4C29.1031 23.7 28.2031 22.6 27.1031 21.4C26.5031 20.7 25.6031 19.9 25.3031 19.5C24.9031 19 25.0031 18.8 25.3031 18.4C25.3031 18.4 28.4031 14 28.8031 12.5C29.0031 12 28.8031 11.6 28.0031 11.6H25.4031C24.7031 11.6 24.4031 11.9 24.3031 12.3C24.3031 12.3 23.0031 15.5 21.1031 17.6C20.5031 18.2 20.2031 18.4 19.9031 18.4C19.7031 18.4 19.5031 18.2 19.5031 17.7V12.6C19.5031 11.9 19.3031 11.7 18.8031 11.7H14.7031C14.3031 11.7 14.0031 12 14.0031 12.3C14.0031 12.9 14.9031 13.1 15.0031 14.8V18.6C15.0031 19.4 14.8031 19.6 14.5031 19.6C13.6031 19.6 11.5031 16.4 10.2031 12.7C10.1031 11.8 9.80312 11.5 9.20312 11.5Z" fill="white"/>
</svg>
