<svg width="36" height="31" viewBox="0 0 36 31" fill="none" xmlns="http://www.w3.org/2000/svg">
<path d="M16.2404 7.02722V2.41316C16.2404 1.07996 15.1605 0.00372402 13.8273 0H3.53037C2.19717 0 1.12093 1.07996 1.11721 2.41316V7.02722C0.461778 7.1948 0.00372402 7.7832 0 8.46097V13.0936C0 13.9167 0.666599 14.5833 1.48961 14.5833H1.6274L1.44864 17.3725C1.44119 17.4768 1.47843 17.5774 1.54919 17.6518C1.61995 17.7263 1.71677 17.771 1.82104 17.771H3.27714C3.45961 17.771 3.61602 17.6481 3.64954 17.4694L4.21931 14.5833H13.1346L13.7081 17.4694C13.7416 17.6481 13.898 17.7747 14.0805 17.771H15.5366C15.6409 17.771 15.7377 17.7263 15.8085 17.6518C15.8792 17.5774 15.9165 17.4768 15.909 17.3725L15.7303 14.5833H15.868C16.691 14.5833 17.3576 13.9167 17.3576 13.0936V8.46097C17.3539 7.7832 16.8959 7.1948 16.2404 7.02722ZM15.868 13.8384H1.49706C1.08741 13.8384 0.752252 13.5033 0.752252 13.0936V10.1479H16.6054V13.0936C16.6054 13.5033 16.2702 13.8384 15.8606 13.8384H15.868ZM0.752252 9.40314V8.46097C0.752252 8.05132 1.08741 7.71616 1.49706 7.71616H15.8606C16.2702 7.71616 16.6054 8.05132 16.6054 8.46097V9.40314H0.752252ZM4.45392 2.74832C5.33279 2.78556 7.32142 2.86377 8.67696 2.86377C10.1666 2.86377 12.0472 2.78929 12.9 2.75205C12.7994 3.47078 12.7436 4.19697 12.7324 4.92315C12.7436 5.60837 12.792 6.29359 12.8814 6.97136H4.47627C4.56192 6.30104 4.61406 5.62699 4.62523 4.94922C4.61033 4.21186 4.55447 3.47823 4.45392 2.74832ZM3.53037 0.674047H13.8273C14.7881 0.674047 15.5664 1.45609 15.5701 2.41689V6.97136H13.6299C13.5405 6.29359 13.4884 5.60837 13.4772 4.92315C13.4996 4.08525 13.574 3.24734 13.7007 2.41689C13.7193 2.30517 13.6858 2.19345 13.6113 2.11152C13.5368 2.02587 13.4288 1.98118 13.3171 1.9849C13.2873 1.9849 10.6246 2.11897 8.67696 2.11897C6.9155 2.11897 4.06663 1.98863 4.04056 1.9849C3.92884 1.98118 3.82084 2.02587 3.74636 2.10779C3.67188 2.18972 3.63837 2.30144 3.65326 2.41316C3.77988 3.25479 3.85808 4.10014 3.88043 4.94922C3.86553 5.62699 3.81339 6.30104 3.72402 6.97136H1.78753V2.41316C1.79125 1.45237 2.56957 0.677771 3.53037 0.674047ZM2.97921 17.0262H2.23441L2.39082 14.5833H3.47451L2.97921 17.0262ZM15.1344 17.0262H14.3896L13.9018 14.5833H14.9892L15.1344 17.0262Z" fill="#A00062"/>
<path d="M34.8791 20.0272V15.4132C34.8791 14.08 33.7991 13.0037 32.4659 13H22.169C20.8358 13 19.7596 14.08 19.7559 15.4132V20.0272C19.1005 20.1948 18.6424 20.7832 18.6387 21.461V26.0936C18.6387 26.9167 19.3053 27.5833 20.1283 27.5833H20.2661L20.0873 30.3725C20.0799 30.4768 20.1171 30.5774 20.1879 30.6518C20.2586 30.7263 20.3554 30.771 20.4597 30.771H21.9158C22.0983 30.771 22.2547 30.6481 22.2882 30.4694L22.8617 27.5833H31.777L32.3505 30.4694C32.384 30.6481 32.5404 30.7747 32.7229 30.771H34.179C34.2833 30.771 34.3801 30.7263 34.4508 30.6518C34.5216 30.5774 34.5588 30.4768 34.5514 30.3725L34.3726 27.5833H34.5104C35.3334 27.5833 36 26.9167 36 26.0936V21.461C35.9963 20.7832 35.5345 20.1948 34.8791 20.0272ZM34.5067 26.8384H20.1357C19.7261 26.8384 19.3909 26.5033 19.3909 26.0936V23.1479H35.2441V26.0936C35.2441 26.5033 34.9089 26.8384 34.4993 26.8384H34.5067ZM20.1357 20.7162H34.4993C34.9089 20.7162 35.2441 21.0513 35.2441 21.461V22.4031H19.3909V21.461C19.3909 21.0513 19.7261 20.7162 20.1357 20.7162ZM23.0926 15.7483C23.9715 15.7856 25.9601 15.8638 27.3194 15.8638C28.809 15.8638 30.671 15.7893 31.5387 15.752C31.4381 16.4708 31.3823 17.197 31.3711 17.9232C31.3823 18.6084 31.4307 19.2936 31.52 19.9714H23.1149C23.2043 19.301 23.2527 18.627 23.2676 17.9492C23.2527 17.2119 23.1931 16.4782 23.0926 15.7483ZM22.169 13.674H32.4659C33.4267 13.674 34.2051 14.4561 34.2088 15.4169V19.9714H32.2723C32.1792 19.2936 32.1271 18.6084 32.1159 17.9232C32.1345 17.0852 32.209 16.2473 32.3431 15.4169C32.3766 15.2121 32.2388 15.0221 32.034 14.9886C32.0116 14.9886 31.9893 14.9849 31.9707 14.9849C31.9446 14.9849 29.2782 15.119 27.3343 15.119C25.5728 15.119 22.7239 14.9886 22.6941 14.9849C22.5824 14.9812 22.4744 15.0259 22.3999 15.1078C22.3254 15.1897 22.2919 15.3014 22.3106 15.4132C22.4372 16.2548 22.5117 17.1001 22.5377 17.9492C22.5228 18.627 22.4707 19.301 22.3776 19.9714H20.4411V15.4132C20.4448 14.4598 21.2157 13.6852 22.169 13.674ZM21.6179 30.0262H20.8731L21.0295 27.5833H22.0946L21.6179 30.0262ZM33.7731 30.0262H33.0283L32.5218 27.5833H33.6055L33.7731 30.0262Z" fill="#A00062"/>
</svg>
