<svg width="38" height="38" viewBox="0 0 38 38" fill="none" xmlns="http://www.w3.org/2000/svg">
<path d="M26.8057 27.3857V37.4106" stroke="#A00062" stroke-linecap="round" stroke-linejoin="round"/>
<path d="M31.0562 34.905L22.5469 29.8955" stroke="#A00062" stroke-linecap="round" stroke-linejoin="round"/>
<path d="M22.5469 34.905L31.0562 29.8955" stroke="#A00062" stroke-linecap="round" stroke-linejoin="round"/>
<path d="M3.84406 22.6318L34.1559 22.6318C35.7267 22.6318 37 21.3327 37 19.7301V3.90163C37 2.29902 35.7267 0.999851 34.1559 0.999851L3.84406 0.999851C2.27333 0.999851 1 2.29902 1 3.90163V19.7301C1 21.3327 2.27333 22.6318 3.84406 22.6318Z" stroke="#A00062" stroke-linecap="round" stroke-linejoin="round"/>
<path d="M18.3613 18.96H31.0022" stroke="#A00062" stroke-linecap="round" stroke-linejoin="round"/>
<path d="M7.00293 15.2871H31.0029" stroke="#A00062" stroke-linecap="round" stroke-linejoin="round"/>
<path d="M7.00293 11.6152H31.0029" stroke="#A00062" stroke-linecap="round" stroke-linejoin="round"/>
<path d="M11.3584 17.8145V27.4482" stroke="white" stroke-width="3" stroke-linecap="round" stroke-linejoin="round"/>
<path d="M15.444 25.0366L7.2666 20.2256" stroke="white" stroke-width="6" stroke-linecap="round" stroke-linejoin="round"/>
<path d="M7.2666 25.0366L15.444 20.2256" stroke="white" stroke-width="6" stroke-linecap="round" stroke-linejoin="round"/>
<path d="M11.3584 17.8145V27.4482" stroke="#A00062" stroke-linecap="round" stroke-linejoin="round"/>
<path d="M15.444 25.0366L7.2666 20.2256" stroke="#A00062" stroke-linecap="round" stroke-linejoin="round"/>
<path d="M7.2666 25.0366L15.444 20.2256" stroke="#A00062" stroke-linecap="round" stroke-linejoin="round"/>
<path d="M29.2002 4.67285H31.0028" stroke="#A00062" stroke-linecap="round" stroke-linejoin="round"/>
<path d="M23.7021 4.67285H25.5047" stroke="#A00062" stroke-linecap="round" stroke-linejoin="round"/>
</svg>
