<svg width="34" height="34" viewBox="0 0 34 34" fill="none" xmlns="http://www.w3.org/2000/svg">
<g clip-path="url(#clip0_1206_5954)">
<path d="M12.9007 34H21.0154C23.8487 34 26.1456 31.7031 26.1456 28.8698V5.13022C26.1456 2.29689 23.8487 0 21.0154 0H12.9007C10.0674 0 7.77051 2.29689 7.77051 5.13022V28.8698C7.77051 31.7031 10.0674 34 12.9007 34ZM8.86606 5.13022C8.86606 4.01578 9.31562 3.01089 10.0485 2.278C10.7814 1.54511 11.7863 1.09556 12.9007 1.09556H21.0154C22.1298 1.09556 23.1347 1.54511 23.8676 2.278C24.5967 3.01089 25.0501 4.01578 25.0501 5.13022V28.8698C25.0501 29.9842 24.6005 30.9891 23.8676 31.722C23.1347 32.4511 22.1298 32.9044 21.0154 32.9044H12.9007C11.7863 32.9044 10.7814 32.4549 10.0485 31.722C9.3194 30.9891 8.86606 29.9842 8.86606 28.8698V5.13022Z" fill="#A00062"/>
<path d="M16.9589 11.2351C18.5455 11.2351 19.8338 9.94691 19.8338 8.36024C19.8338 6.77357 18.5455 5.48535 16.9589 5.48535C15.3722 5.48535 14.084 6.77357 14.084 8.36024C14.084 9.94691 15.3722 11.2351 16.9589 11.2351ZM15.7009 7.10224C16.0258 6.78113 16.464 6.58091 16.9589 6.58091C17.45 6.58091 17.892 6.77735 18.2169 7.10224C18.538 7.42713 18.7382 7.86535 18.7382 8.36024C18.7382 8.85135 18.538 9.29335 18.2169 9.61824C17.892 9.93935 17.4538 10.1396 16.9589 10.1396C16.4678 10.1396 16.0258 9.94313 15.7009 9.61824C15.3798 9.29335 15.1795 8.85513 15.1795 8.36024C15.1795 7.86535 15.3798 7.42713 15.7009 7.10224Z" fill="#A00062"/>
<path d="M16.9588 25.5905C19.8299 25.5905 22.1608 23.2634 22.1608 20.3885C22.1608 17.5174 19.8337 15.1865 16.9588 15.1865C14.0877 15.1865 11.7568 17.5136 11.7568 20.3885C11.7568 23.2634 14.0839 25.5905 16.9588 25.5905ZM14.0575 17.4872C14.8017 16.743 15.8255 16.2859 16.9588 16.2859C18.0959 16.2859 19.1159 16.743 19.8602 17.4872C20.6044 18.2314 21.0615 19.2552 21.0615 20.3885C21.0615 21.5256 20.6044 22.5456 19.8602 23.2899C19.1159 24.0341 18.0922 24.4912 16.9588 24.4912C15.8217 24.4912 14.8017 24.0341 14.0575 23.2899C13.3133 22.5456 12.8562 21.5219 12.8562 20.3885C12.8562 19.2552 13.3133 18.2314 14.0575 17.4872Z" fill="#A00062"/>
<path d="M19.2821 28.998H14.6279C14.3256 28.998 14.0801 29.2436 14.0801 29.5458C14.0801 29.848 14.3256 30.0936 14.6279 30.0936H19.2821C19.5843 30.0936 19.8299 29.848 19.8299 29.5458C19.8299 29.2436 19.5843 28.998 19.2821 28.998Z" fill="#A00062"/>
<path d="M28.4804 21.4918C28.7108 21.6883 29.0546 21.6656 29.2548 21.4351C30.2937 20.2338 30.9057 18.6811 30.9057 16.9925C30.9057 15.3038 30.2937 13.7511 29.2737 12.5687C29.0773 12.3383 28.7297 12.3156 28.4993 12.512C28.2688 12.7085 28.2424 13.056 28.4426 13.2865C29.2964 14.2763 29.8064 15.572 29.8064 16.9925C29.8064 18.4129 29.2964 19.7087 28.4237 20.7174C28.2235 20.9478 28.25 21.2916 28.4804 21.4918Z" fill="#A00062"/>
<path d="M30.7327 9.70523C30.4947 9.89412 30.4531 10.2379 30.642 10.4759C32.0473 12.259 32.9011 14.5143 32.9011 16.9888C32.9011 19.467 32.0473 21.7412 30.642 23.5206C30.4531 23.7586 30.4947 24.1023 30.7327 24.2912C30.9707 24.4801 31.3145 24.4386 31.5033 24.2006C33.056 22.2361 34.0005 19.7163 34.0005 16.985C34.0005 14.2537 33.056 11.7528 31.5033 9.78834C31.3145 9.55034 30.9707 9.50879 30.7327 9.69768V9.70523Z" fill="#A00062"/>
<path d="M4.72575 21.4273C4.92219 21.6578 5.26975 21.6804 5.50019 21.484C5.73064 21.2876 5.75331 20.94 5.55686 20.7096C4.70308 19.7198 4.19308 18.424 4.19308 17.0036C4.19308 15.5831 4.70308 14.2873 5.57575 13.2787C5.77219 13.0482 5.74953 12.7044 5.51908 12.5042C5.28864 12.3078 4.94486 12.3304 4.74464 12.5609C3.70575 13.7622 3.09375 15.3149 3.09375 17.0036C3.09375 18.6922 3.70575 20.2411 4.72575 21.4273Z" fill="#A00062"/>
<path d="M3.26778 24.2953C3.50578 24.1064 3.54733 23.7626 3.35844 23.5246C1.95311 21.7415 1.09933 19.4862 1.09933 17.0079C1.09933 14.5297 1.95311 12.2555 3.35844 10.4762C3.54733 10.2382 3.50578 9.89438 3.26778 9.70549C3.02978 9.5166 2.686 9.55815 2.49711 9.79615C0.944444 11.7606 0 14.2804 0 17.0117C0 19.743 0.944444 22.2402 2.49711 24.2046C2.686 24.4426 3.02978 24.4842 3.26778 24.2953Z" fill="#A00062"/>
</g>
<defs>
<clipPath id="clip0_1206_5954">
<rect width="34" height="34" fill="white"/>
</clipPath>
</defs>
</svg>
