<svg width="37" height="36" viewBox="0 0 37 36" fill="none" xmlns="http://www.w3.org/2000/svg">
<path d="M1.06944 0H20.1811C20.7707 0 21.2481 0.478487 21.2492 1.06805V8.68859C22.062 8.52945 23.1824 8.56577 24.025 8.56256C29.2702 8.56897 33.5211 12.8198 33.5264 18.065V21.9997C35.215 22.2283 36.4764 23.668 36.4785 25.3726V25.9579C36.4785 26.2527 36.2393 26.4919 35.9445 26.4919H35.7394V34.9306C35.7394 35.5202 35.2609 35.9976 34.6714 35.9986C30.7666 36.0029 6.289 35.9954 3.03251 35.9986C3.0229 35.9976 1.07905 35.9986 1.06837 35.9986C0.478802 35.9986 0.00138474 35.5202 0.00031662 34.9306V1.06805C0.00031662 0.478487 0.478802 0.00106805 1.06837 0H1.06944ZM4.47331 22.4024V18.5339H3.30486V22.4024H4.47331ZM12.0821 22.4024C12.4549 22.193 12.865 22.0563 13.289 22.0008V18.065C13.2922 14.5169 15.2681 11.2658 18.4167 9.63061H1.06837V17.4658H2.23681C2.42479 17.4658 2.60849 17.516 2.77084 17.61C2.93318 17.515 3.11689 17.4658 3.30486 17.4658H4.47331C5.06288 17.4658 5.54029 17.9443 5.54136 18.5339V22.4024H12.0821ZM30.4099 28.2286H16.4056V34.9317H30.4099V28.2286ZM16.4056 27.1605H30.4099V26.493H30.2048C29.91 26.493 29.6708 26.2538 29.6708 25.959C29.6708 25.5542 29.6526 25.0234 29.7519 24.6367C26.3481 23.385 20.4674 23.385 17.0635 24.6367C17.1628 25.0223 17.1447 25.5563 17.1447 25.959C17.1447 26.2538 16.9054 26.493 16.6106 26.493H16.4056V27.1605ZM15.8683 25.4249C15.8683 25.4249 15.8726 25.4249 15.8748 25.4249H16.0766C16.1044 24.1347 15.0812 23.0667 13.791 23.0389C12.5008 23.0112 11.4327 24.0343 11.405 25.3245C11.405 25.3577 11.405 25.3908 11.405 25.4249C11.4082 25.4249 11.6079 25.4249 11.61 25.4249C11.6111 25.4249 15.8662 25.4249 15.8683 25.4249ZM17.9446 4.69515H16.7762V8.56256H17.9446V4.69515ZM19.0127 8.56256H20.1811V4.69515H19.0127V8.56256ZM2.23788 4.69515H1.06944V8.56256H2.23788V4.69515ZM3.30593 8.56256H4.47438V4.69515H3.30593V8.56256ZM2.23788 18.5339H1.06944V22.4024H2.23788V18.5339ZM1.06944 1.06805V3.6271H2.23788C2.42586 3.6271 2.60957 3.6773 2.77191 3.77129C2.93425 3.67623 3.11796 3.6271 3.30593 3.6271H4.47438C5.06394 3.6271 5.54136 4.10559 5.54243 4.69515V8.56256H15.7092V4.69515C15.7092 4.10559 16.1877 3.62817 16.7773 3.6271H17.9457C18.1337 3.6271 18.3174 3.6773 18.4797 3.77129C18.6421 3.67623 18.8258 3.6271 19.0138 3.6271H20.1822V1.06805H1.0705H1.06944ZM24.025 9.63061H22.7904C18.1347 9.63595 14.3624 13.4094 14.3571 18.065V22.0264C15.3247 22.2058 16.1685 22.7954 16.6704 23.6424C20.2975 22.2891 26.5189 22.2891 30.145 23.6424C30.647 22.7954 31.4897 22.2058 32.4584 22.0264V18.065C32.453 13.4094 28.6807 9.63595 24.025 9.63061ZM35.4105 25.3737C35.2716 22.24 30.8082 22.2913 30.7388 25.426H35.4115V25.3737H35.4105ZM34.6703 34.9317V26.493H31.4768V34.9317H34.6703ZM15.3365 34.9317V26.493H12.143V34.9317H15.3365ZM3.03144 32.6962H8.345V31.5278H3.03251V32.6962H3.03144ZM8.34393 33.7643H3.03144V34.9317H8.345V33.7643H8.34393ZM1.96232 34.9317V33.7643C1.96232 33.5763 2.01252 33.3926 2.10651 33.2303C2.01146 33.0679 1.96232 32.8842 1.96232 32.6962V31.5278C1.96232 30.9382 2.44081 30.4608 3.03038 30.4597H8.34393C8.93349 30.4597 9.41091 30.9382 9.41198 31.5278V32.6962C9.41198 32.8842 9.36178 33.0679 9.26779 33.2303C9.36285 33.3926 9.41198 33.5763 9.41198 33.7643V34.9317H11.0739V26.493H10.8688C10.574 26.493 10.3348 26.2538 10.3348 25.959V25.3726C10.3348 24.6944 10.5377 24.0311 10.9179 23.4693H1.0673V34.9317H1.96232Z" fill="#A00062"/>
</svg>
