<svg width="36" height="38" viewBox="0 0 36 38" fill="none" xmlns="http://www.w3.org/2000/svg">
<path d="M24.7295 20.3877H33.5228C34.262 20.3877 34.8259 21.1816 34.689 22.0358C34.032 26.2846 30.8892 29.5095 27.1167 29.5095H24.7295" stroke="#A00062" stroke-linecap="round" stroke-linejoin="round"/>
<path d="M11.6104 14.6224C12.0977 14.0421 12.585 13.4562 12.585 12.2954C12.585 11.1347 12.0977 10.5488 11.6104 9.96845C11.1231 9.38807 10.6357 8.80221 10.6357 7.64145C10.6357 6.48069 11.1231 5.89483 11.6104 5.31445" stroke="#A00062" stroke-linecap="round" stroke-linejoin="round"/>
<path d="M16.292 14.6227C16.8724 13.9054 17.4473 13.1882 17.4473 11.7536C17.4473 10.3191 16.8669 9.60185 16.292 8.88459C15.7116 8.16733 15.1367 7.45006 15.1367 6.01554C15.1367 4.58101 15.7171 3.86375 16.292 3.14648" stroke="#A00062" stroke-linecap="round" stroke-linejoin="round"/>
<path d="M20.9733 14.6225C21.6413 13.7684 22.3147 12.9197 22.3147 11.2169C22.3147 9.51407 21.6467 8.65993 20.9733 7.81126C20.2998 6.96259 19.6318 6.10844 19.6318 4.40563C19.6318 2.70281 20.2998 1.84867 20.9733 1" stroke="#A00062" stroke-linecap="round" stroke-linejoin="round"/>
<path d="M4 17V21.4569C4 28.1751 9.44791 33.623 16.1661 33.623C22.8843 33.623 28.3377 28.1751 28.3377 21.4569V17H4Z" fill="white" stroke="white" stroke-width="5" stroke-linecap="round" stroke-linejoin="round"/>
<path d="M16.3252 30.736C21.3022 30.736 25.3539 26.6843 25.3539 21.7072V20.3877" stroke="#A00062" stroke-linecap="round" stroke-linejoin="round"/>
<path d="M4.15918 17.25V21.7069C4.15918 28.4251 9.60709 33.873 16.3253 33.873C23.0434 33.873 28.4968 28.4251 28.4968 21.7069V17.25H4.15918Z" stroke="#A00062" stroke-linecap="round" stroke-linejoin="round"/>
<path d="M26.4705 37H6.18457" stroke="#A00062" stroke-linecap="round" stroke-linejoin="round"/>
<path d="M1 33.8301H31.6506" stroke="white" stroke-width="5" stroke-miterlimit="10"/>
<path d="M1 33.8684V33.8301H31.6506" stroke="#A00062" stroke-linecap="round" stroke-linejoin="round"/>
</svg>
