<svg width="39" height="38" viewBox="0 0 39 38" fill="none" xmlns="http://www.w3.org/2000/svg">
<path d="M10.1483 18.0034H2.56263C1.70048 18.0034 1 17.2949 1 16.423V2.58044C1 1.70847 1.70048 1 2.56263 1H36.7788C37.641 1 38.3415 1.70847 38.3415 2.58044V16.423C38.3415 17.2949 37.641 18.0034 36.7788 18.0034H29.1932" stroke="#A00062" stroke-linecap="round" stroke-linejoin="round"/>
<path d="M29.1872 6.25586V36.5144C29.1872 37.0109 28.7921 37.4106 28.3012 37.4106H11.0404C10.5494 37.4106 10.1543 37.0109 10.1543 36.5144V6.25586" stroke="#A00062" stroke-linecap="round" stroke-linejoin="round"/>
<path d="M24.4219 6.21875V37.3795" stroke="#A00062" stroke-linecap="round" stroke-linejoin="round"/>
<path d="M19.5791 6.21875V37.3795" stroke="#A00062" stroke-linecap="round" stroke-linejoin="round"/>
<path d="M14.8604 25.7852V33.7782" stroke="#A00062" stroke-linecap="round" stroke-linejoin="round"/>
<path d="M8.83105 6.25586H30.6121" stroke="white" stroke-width="6" stroke-linecap="round" stroke-linejoin="round"/>
<path d="M31.0309 12.7534C32.8031 12.7534 34.246 11.3001 34.246 9.50171C34.246 7.70328 32.8091 6.25 31.0309 6.25H8.30393C6.53175 6.25 5.08887 7.70328 5.08887 9.50171C5.08887 11.3001 6.52577 12.7534 8.30393 12.7534" stroke="#A00062" stroke-linejoin="round"/>
</svg>
