<svg width="42" height="40" viewBox="0 0 42 40" fill="none" xmlns="http://www.w3.org/2000/svg">
<path d="M18.4023 3.59435C18.4023 2.16298 19.5653 1 20.9967 1C22.428 1 23.591 2.16298 23.591 3.59435C23.591 4.79944 22.7701 5.80982 21.6597 6.10451C21.2756 6.2045 21.0019 6.53603 21.0019 6.93597V8.91463" stroke="#A00062" stroke-linecap="round" stroke-linejoin="round"/>
<path d="M20.9963 16.0555C24.0064 16.0555 26.6219 14.3558 27.9322 11.8667L22.5909 9.27232C21.5857 8.78292 20.4069 8.78292 19.4018 9.27232L14.0605 11.8667C15.3761 14.3558 17.9863 16.0555 20.9963 16.0555Z" stroke="#A00062" stroke-linecap="round" stroke-linejoin="round"/>
<path d="M34.1218 15.6084C33.706 14.9242 33.1008 14.377 32.3799 14.0296L27.9332 11.8721C26.6176 14.3612 24.0074 16.0609 20.9973 16.0609C17.9873 16.0609 15.3719 14.3612 14.0615 11.8721L9.61479 14.0296C8.89384 14.377 8.2887 14.9295 7.87297 15.6084L3 23.5598L7.26779 27.8276L12.0407 23.5598V36.8053H29.9592V23.5598L34.7322 27.8276L39 23.5598L34.127 15.6084H34.1218Z" fill="white" stroke="white" stroke-width="6" stroke-linecap="round" stroke-linejoin="round"/>
<path d="M34.1218 15.6084C33.706 14.9242 33.1008 14.377 32.3799 14.0296L27.9332 11.8721C26.6176 14.3612 24.0074 16.0609 20.9973 16.0609C17.9873 16.0609 15.3719 14.3612 14.0615 11.8721L9.61479 14.0296C8.89384 14.377 8.2887 14.9295 7.87297 15.6084L3 23.5598L7.26779 27.8276L12.0407 23.5598V36.8053H29.9592V23.5598L34.7322 27.8276L39 23.5598L34.127 15.6084H34.1218Z" stroke="#A00062" stroke-linecap="round" stroke-linejoin="round"/>
<path d="M10.835 17.9082C11.598 19.5711 12.0347 21.5024 12.0347 23.56V29.2539" stroke="white" stroke-width="5" stroke-linecap="round" stroke-linejoin="round"/>
<path d="M10.835 17.9082C11.598 19.5711 12.0347 21.5024 12.0347 23.56V36.8054" stroke="#A00062" stroke-linecap="round" stroke-linejoin="round"/>
<path d="M31.1487 17.9131C30.3856 19.576 29.9541 21.502 29.9541 23.5596V31.269" stroke="white" stroke-width="5" stroke-linecap="round" stroke-linejoin="round"/>
<path d="M31.1487 17.9131C30.3856 19.576 29.9541 21.502 29.9541 23.5596V36.805" stroke="#A00062" stroke-linecap="round" stroke-linejoin="round"/>
<path d="M20.998 18.6875V34.7009" stroke="#A00062" stroke-linecap="round" stroke-linejoin="round"/>
</svg>
