<svg width="39" height="38" viewBox="0 0 39 38" fill="none" xmlns="http://www.w3.org/2000/svg">
<path d="M1 9.9248H11.9614" stroke="#A00062" stroke-linecap="round" stroke-linejoin="round"/>
<path d="M1 12.2959H9.61705" stroke="#A00062" stroke-linecap="round" stroke-linejoin="round"/>
<path d="M5.36035 12.2959L9.78407 22.9977" stroke="#A00062" stroke-linecap="round" stroke-linejoin="round"/>
<path d="M28.1367 4.30859V17.3174" stroke="#A00062" stroke-linecap="round" stroke-linejoin="round"/>
<path d="M22.6016 4.309H27.8202C28.7591 4.309 29.6576 3.93034 30.32 3.26038L31.5181 2.04864C32.1805 1.37868 33.0791 1 34.018 1H36.5927" fill="white"/>
<path d="M22.6016 4.309H27.8202C28.7591 4.309 29.6576 3.93034 30.32 3.26038L31.5181 2.04864C32.1805 1.37868 33.0791 1 34.018 1H36.5927" stroke="#A00062" stroke-linecap="round" stroke-linejoin="round"/>
<path d="M3.34473 37.4102H36.586" stroke="#A00062" stroke-linecap="round" stroke-linejoin="round"/>
<path d="M28.1371 17.3174C27.2097 17.3174 26.3227 17.4747 25.4875 17.7543L7.00344 23.9296V23.9529C4.8895 24.6636 3.35156 26.6619 3.35156 29.0387C3.35156 32.0099 5.73623 34.4217 8.67386 34.4217H28.1428C32.8143 34.4217 36.5986 30.5942 36.5986 25.8696C36.5986 21.1449 32.8143 17.3174 28.1428 17.3174H28.1371Z" fill="white" stroke="white" stroke-width="4" stroke-linecap="round" stroke-linejoin="round"/>
<path d="M28.1371 17.3174C27.2097 17.3174 26.3227 17.4747 25.4875 17.7543L7.00344 23.9296V23.9529C4.8895 24.6636 3.35156 26.6619 3.35156 29.0387C3.35156 32.0099 5.73623 34.4217 8.67386 34.4217H28.1428C32.8143 34.4217 36.5986 30.5942 36.5986 25.8696C36.5986 21.1449 32.8143 17.3174 28.1428 17.3174H28.1371Z" stroke="#A00062" stroke-linecap="round" stroke-linejoin="round"/>
<path d="M23.1016 25.8682L25.5553 31.7346" stroke="#A00062" stroke-linecap="round" stroke-linejoin="round"/>
<path d="M28.4592 31.7354H22.0713" stroke="#A00062" stroke-linecap="round" stroke-linejoin="round"/>
<path d="M24.5647 25.8704C24.5647 26.6918 23.908 27.3559 23.0959 27.3559C22.2837 27.3559 21.6328 26.6918 21.6328 25.8704C21.6328 25.0489 22.2895 24.3848 23.0959 24.3848C23.9023 24.3848 24.5647 25.0489 24.5647 25.8704Z" fill="white" stroke="#A00062" stroke-linecap="round" stroke-linejoin="round"/>
<path d="M6.1084 29.0384C6.1084 27.9373 6.81689 26.9586 7.87098 26.609C7.98618 26.5682 8.09562 26.5275 8.1993 26.475L26.211 20.4571C26.2571 20.4454 26.3032 20.4279 26.3492 20.4163C26.931 20.224 27.5358 20.125 28.1349 20.125M28.1349 20.125C31.2741 20.125 33.8258 22.7058 33.8258 25.8808L28.1349 20.125Z" fill="white"/>
<path d="M6.1084 29.0384C6.1084 27.9373 6.81689 26.9586 7.87098 26.609C7.98618 26.5682 8.09562 26.5275 8.1993 26.475L26.211 20.4571C26.2571 20.4454 26.3032 20.4279 26.3492 20.4163C26.931 20.224 27.5358 20.125 28.1349 20.125C31.2741 20.125 33.8258 22.7058 33.8258 25.8808" stroke="#A00062" stroke-linecap="round" stroke-linejoin="round"/>
</svg>
