<svg width="38" height="30" viewBox="0 0 38 30" fill="none" xmlns="http://www.w3.org/2000/svg">
<path d="M2.49902 12.498H35.501C36.33 12.498 37 13.24 37 14.1582V18.2471H1V14.1582C1 13.24 1.66999 12.498 2.49902 12.498Z" stroke="#A00062" stroke-linecap="round" stroke-linejoin="round"/>
<path d="M37 18.2471H1V23.0379H37V18.2471Z" stroke="#A00062" stroke-linecap="round" stroke-linejoin="round"/>
<path d="M1.94727 24.9541V26.9302C1.94727 27.9555 2.79557 28.7868 3.842 28.7868C4.88843 28.7868 5.73674 27.9555 5.73674 26.9302V24.9541" stroke="#A00062" stroke-linejoin="round"/>
<path d="M32.2627 24.9541V26.9302C32.2627 27.9555 33.111 28.7868 34.1574 28.7868C35.2039 28.7868 36.0522 27.9555 36.0522 26.9302V24.9541" stroke="#A00062" stroke-linejoin="round"/>
<path d="M33.2101 11.5398V2.79761C33.2101 1.80483 32.422 1 31.4497 1C30.5813 1 29.8545 1.64579 29.7129 2.48918C29.6846 2.66267 29.5572 2.79761 29.3826 2.79761H8.6166C8.4467 2.79761 8.31457 2.66267 8.28626 2.48918C8.14467 1.64097 7.41784 1 6.54944 1C5.57722 1 4.78906 1.80483 4.78906 2.79761V11.5398" stroke="#A00062" stroke-linejoin="round"/>
<path d="M8.5791 11.5399V7.84086C8.5791 7.23881 9.01729 6.74902 9.55589 6.74902H16.1286C16.6672 6.74902 17.1054 7.23881 17.1054 7.84086V11.5399" stroke="#A00062" stroke-linejoin="round"/>
<path d="M20.8955 11.5399V7.84086C20.8955 7.23881 21.3704 6.74902 21.9542 6.74902H29.3105C29.8943 6.74902 30.3692 7.23881 30.3692 7.84086V11.5399" stroke="#A00062" stroke-linejoin="round"/>
</svg>
