<svg width="38" height="37" viewBox="0 0 38 37" fill="none" xmlns="http://www.w3.org/2000/svg">
<path d="M0.999985 36L37 36V21.1407L0.999985 21.1407V36Z" stroke="#A00062" stroke-linejoin="round"/>
<path d="M12.9971 21.1406V35.9999" stroke="#A00062" stroke-linejoin="round"/>
<path d="M24.999 21.1406V35.9999" stroke="#A00062" stroke-linejoin="round"/>
<path d="M37.0008 21.1406H24.999" stroke="#A00062" stroke-linejoin="round"/>
<path d="M35.096 26.0938H26.9043" stroke="#A00062" stroke-linejoin="round"/>
<path d="M35.096 31.0469H26.9043" stroke="#A00062" stroke-linejoin="round"/>
<path d="M37.0008 36H24.999" stroke="#A00062" stroke-linejoin="round"/>
<path d="M11.0921 26.0938H2.90039" stroke="#A00062" stroke-linejoin="round"/>
<path d="M16.1716 32.8252H21.8232V27.1736H16.1716V32.8252Z" stroke="#A00062" stroke-linejoin="round"/>
<path d="M21.823 24.1572H20.0449" stroke="#A00062" stroke-linejoin="round"/>
<path d="M17.9499 24.1572H16.1719" stroke="#A00062" stroke-linejoin="round"/>
<path d="M20.902 0V4.84728L25.0614 9.00663V12.6897H12.9961V8.94311L17.0919 4.84728V0" stroke="#A00062" stroke-linejoin="round"/>
<path d="M36.9998 12.6904H25.0615" stroke="#A00062" stroke-linejoin="round"/>
<path d="M36.9998 9.00684H27.6016" stroke="#A00062" stroke-linejoin="round"/>
<path d="M36.9998 5.3291H27.6016" stroke="#A00062" stroke-linejoin="round"/>
<path d="M12.9965 12.6904H1.06348" stroke="#A00062" stroke-linejoin="round"/>
<path d="M10.4564 9.00684H1.06348" stroke="#A00062" stroke-linejoin="round"/>
<path d="M10.4564 5.3291H1.06348" stroke="#A00062" stroke-linejoin="round"/>
</svg>
