<svg width="37" height="41" viewBox="0 0 37 41" fill="none" xmlns="http://www.w3.org/2000/svg">
<path d="M32.5641 29.1051H24.8423L21.5638 2.50078C21.4584 1.71829 22.0066 1.01758 22.7181 1.01758H34.6883C35.3999 1.01758 35.948 1.71829 35.8426 2.50078L32.5641 29.1051Z" stroke="#A00062" stroke-linecap="round" stroke-linejoin="round"/>
<path d="M32.5642 31.6768H24.8477" stroke="#A00062" stroke-linecap="round" stroke-linejoin="round"/>
<path d="M26.5664 13.6953H30.8411" stroke="#A00062" stroke-linecap="round" stroke-linejoin="round"/>
<path d="M24.6729 4.23047H32.7109" stroke="#A00062" stroke-linecap="round" stroke-linejoin="round"/>
<path d="M9.47852 26.5254H25.9711V35.5526C25.9711 36.5802 25.2174 37.4094 24.295 37.4094H11.1599C10.2323 37.4094 9.48378 36.5744 9.48378 35.5526V26.5254H9.47852Z" fill="white" stroke="white" stroke-width="6" stroke-linecap="round" stroke-linejoin="round"/>
<path d="M9.47852 23.957H25.9711" stroke="white" stroke-width="6" stroke-linecap="round" stroke-linejoin="round"/>
<path d="M9.47852 26.5254H25.9711V35.5526C25.9711 36.5802 25.2174 37.4094 24.295 37.4094H11.1599C10.2323 37.4094 9.48378 36.5744 9.48378 35.5526V26.5254H9.47852Z" stroke="#A00062" stroke-linecap="round" stroke-linejoin="round"/>
<path d="M9.47852 23.957H25.9711" stroke="#A00062" stroke-linecap="round" stroke-linejoin="round"/>
<path d="M15.54 32.292H19.9149" stroke="#A00062" stroke-linecap="round" stroke-linejoin="round"/>
<path d="M16.3986 11.6324C16.3986 15.7314 13.3994 19.0538 9.69929 19.0538C5.99913 19.0538 3 15.7314 3 11.6324C3 7.53336 5.99913 4.21094 9.69929 4.21094C13.3994 4.21094 16.3986 7.53336 16.3986 11.6324Z" stroke="#A00062" stroke-linecap="round" stroke-linejoin="round"/>
<path d="M7.8916 3.56836H11.5127" stroke="white" stroke-width="6" stroke-miterlimit="10" stroke-linecap="round"/>
<path d="M7.8916 3.56836H11.5127" stroke="#A00062" stroke-linecap="round" stroke-linejoin="round"/>
<path d="M7.8916 1H11.5127" stroke="#A00062" stroke-linecap="round" stroke-linejoin="round"/>
<path d="M3 19.0508H16.3986" stroke="white" stroke-width="6" stroke-miterlimit="10" stroke-linecap="round"/>
<path d="M3 19.0508H16.3986" stroke="#A00062" stroke-linecap="round" stroke-linejoin="round"/>
<path d="M7.8916 11.6318H11.5127" stroke="#A00062" stroke-linecap="round" stroke-linejoin="round"/>
</svg>
