<svg width="38" height="37" viewBox="0 0 38 37" fill="none" xmlns="http://www.w3.org/2000/svg">
<path d="M7.65234 12.0208V4.10938H10.5414C11.7186 4.10938 12.6748 5.06553 12.6748 6.24274C12.6748 7.41995 11.7186 8.37611 10.5414 8.37611H7.65234" stroke="#A00062" stroke-linecap="round" stroke-linejoin="round"/>
<path d="M15.4355 21.6921L17.7437 18.1965C18.1138 17.6362 18.7615 17.2969 19.4607 17.2969H28.4825C29.1817 17.2969 29.8294 17.6362 30.1995 18.1965L32.5077 21.6921" stroke="#A00062" stroke-linecap="round" stroke-linejoin="round"/>
<path d="M33.4741 24.6123C34.8877 24.6123 36.0341 25.7587 36.0341 27.1724V31.1821C36.0341 31.5522 35.736 31.8504 35.3658 31.8504H12.5413C12.1712 31.8504 11.873 31.5522 11.873 31.1821V27.1724C11.873 25.7587 13.0194 24.6123 14.4331 24.6123" stroke="#A00062" stroke-linecap="round" stroke-linejoin="round"/>
<path d="M18.9454 33.3154V35.3974C18.9454 35.7161 18.6884 35.9731 18.3696 35.9731H14.6324C14.3137 35.9731 14.0566 35.7161 14.0566 35.3974V33.3154" stroke="#A00062" stroke-linejoin="round"/>
<path d="M33.8438 33.3154V35.3974C33.8438 35.7161 33.5868 35.9731 33.2681 35.9731H29.5308C29.2121 35.9731 28.9551 35.7161 28.9551 35.3974V33.3154" stroke="#A00062" stroke-linejoin="round"/>
<path d="M15.6309 27.6846H18.5816" stroke="#A00062" stroke-linecap="round" stroke-linejoin="round"/>
<path d="M29.3193 27.6846H32.2752" stroke="#A00062" stroke-linecap="round" stroke-linejoin="round"/>
<path d="M36.0339 21.6924H32.8467C32.4714 21.6924 32.1116 21.8415 31.8442 22.1036L30.5899 22.9724C30.4717 23.0906 30.3123 23.1523 30.1478 23.1523H17.764C17.5995 23.1523 17.4401 23.0855 17.3219 22.9724L16.0676 22.1036C15.8003 21.8415 15.4404 21.6924 15.0651 21.6924H11.8779" stroke="white" stroke-linecap="round" stroke-linejoin="round"/>
<path d="M36.0339 21.6924H32.8467C32.4714 21.6924 32.1116 21.8415 31.8442 22.1036L30.5899 22.9724C30.4717 23.0906 30.3123 23.1523 30.1478 23.1523H17.764C17.5995 23.1523 17.4401 23.0855 17.3219 22.9724L16.0676 22.1036C15.8003 21.8415 15.4404 21.6924 15.0651 21.6924H11.8779" stroke="#A00062" stroke-linecap="round" stroke-linejoin="round"/>
<path d="M7.65234 14.4639V35.9724" stroke="#A00062" stroke-linecap="square" stroke-linejoin="round"/>
<path d="M15.8616 1H2.63472C1.73189 1 1 1.73189 1 2.63472V12.8286C1 13.7315 1.73189 14.4634 2.63472 14.4634H15.8616C16.7645 14.4634 17.4964 13.7315 17.4964 12.8286V2.63472C17.4964 1.73189 16.7645 1 15.8616 1Z" stroke="#A00062" stroke-linecap="square" stroke-linejoin="round"/>
<path d="M1 35.9717H37" stroke="#A00062" stroke-linecap="round" stroke-linejoin="round"/>
</svg>
