<svg width="38" height="38" viewBox="0 0 38 38" fill="none" xmlns="http://www.w3.org/2000/svg">
<path d="M33.9001 6.72168H4.09376C2.38512 6.72168 1 8.12259 1 9.85071V29.2846C1 31.0127 2.38512 32.4136 4.09376 32.4136H33.9001C35.6087 32.4136 36.9939 31.0127 36.9939 29.2846V9.85071C36.9939 8.12259 35.6087 6.72168 33.9001 6.72168Z" stroke="#A00062" stroke-linecap="round" stroke-linejoin="round"/>
<path d="M11.4764 34.3398C11.4764 36.0386 10.1142 37.4105 8.44035 37.4105C6.76648 37.4105 5.4043 36.0328 5.4043 34.3398" stroke="#A00062" stroke-linejoin="round"/>
<path d="M32.5906 34.3398C32.5906 36.0386 31.2284 37.4105 29.5546 37.4105C27.8807 37.4105 26.5186 36.0328 26.5186 34.3398" stroke="#A00062" stroke-linejoin="round"/>
<path d="M11.4766 8.64648V30.4855" stroke="#A00062" stroke-linejoin="round"/>
<path d="M26.5117 8.64648V30.4855" stroke="#A00062" stroke-linejoin="round"/>
<path d="M13.6523 4.79453V3.25337C13.6523 2.00993 14.6509 1 15.8803 1H22.114C23.3435 1 24.342 2.00993 24.342 3.25337V4.79453" stroke="#A00062" stroke-linejoin="round"/>
</svg>
