<svg width="38" height="38" viewBox="0 0 38 38" fill="none" xmlns="http://www.w3.org/2000/svg">
<path d="M33.0959 1.03711H4.90411C2.74793 1.03711 1 2.80496 1 4.98572V33.4989C1 35.6796 2.74793 37.4475 4.90411 37.4475H33.0959C35.2521 37.4475 37 35.6796 37 33.4989V4.98572C37 2.80496 35.2521 1.03711 33.0959 1.03711Z" stroke="#A00062" stroke-linecap="round" stroke-linejoin="round"/>
<path d="M31.2245 5.53027H6.77465C6.03886 5.53027 5.44238 6.13354 5.44238 6.87771V31.6063C5.44238 32.3505 6.03886 32.9538 6.77465 32.9538H31.2245C31.9603 32.9538 32.5568 32.3505 32.5568 31.6063V6.87771C32.5568 6.13354 31.9603 5.53027 31.2245 5.53027Z" stroke="#A00062" stroke-linecap="round" stroke-linejoin="round"/>
<path d="M20.7672 27.6095C25.3353 26.6249 28.2493 22.0813 27.2758 17.4612C26.3023 12.841 21.81 9.89384 17.2419 10.8784C12.6739 11.863 9.75986 16.4065 10.7333 21.0266C11.7068 25.6468 16.1991 28.594 20.7672 27.6095Z" stroke="#A00062" stroke-linecap="round" stroke-linejoin="round"/>
<path d="M19.1558 13.5527C22.3475 13.5527 24.9367 16.1715 24.9367 19.3995C24.9367 22.6275 22.3475 25.2462 19.1558 25.2462C15.9642 25.2462 13.375 22.6275 13.375 19.3995" stroke="#A00062" stroke-linecap="round" stroke-linejoin="round"/>
<path d="M34.1441 11.043H29.7939" stroke="white" stroke-width="4" stroke-linecap="round" stroke-linejoin="round"/>
<path d="M29.7939 27.4414H34.1441" stroke="white" stroke-width="4" stroke-linecap="round" stroke-linejoin="round"/>
<path d="M34.1441 11.043H29.7939" stroke="#A00062" stroke-linecap="round" stroke-linejoin="round"/>
<path d="M29.7939 27.4414H34.1441" stroke="#A00062" stroke-linecap="round" stroke-linejoin="round"/>
<path d="M16.6455 21.6291L21.3605 16.8545" stroke="#A00062" stroke-linecap="round" stroke-linejoin="round"/>
<path d="M21.3605 21.6291L16.6455 16.8545" stroke="#A00062" stroke-linecap="round" stroke-linejoin="round"/>
</svg>
