<svg width="38" height="36" viewBox="0 0 38 36" fill="none" xmlns="http://www.w3.org/2000/svg">
<path d="M14.6709 3.66897C14.6709 5.14476 15.8693 6.34319 17.3399 6.34319C18.8104 6.34319 20.0141 5.14476 20.0141 3.66897C20.0141 2.19318 18.8157 1 17.3399 1C15.8641 1 14.6709 2.19841 14.6709 3.66897Z" stroke="#A00062" stroke-linecap="round" stroke-linejoin="round"/>
<path d="M20.5354 13.6387V22.5614L19.541 35.4144" stroke="#A00062" stroke-linecap="round" stroke-linejoin="round"/>
<path d="M14.1674 13.6387L14.1465 22.5614L15.1408 35.4144" stroke="#A00062" stroke-linecap="round" stroke-linejoin="round"/>
<path d="M26.1888 19.4586L23.7344 10.2846C23.4518 9.22746 22.6878 8.42676 21.6673 8.42676H13.1632C12.1427 8.42676 11.3786 9.22746 11.096 10.2846L8.6416 19.4586" stroke="#A00062" stroke-linecap="round" stroke-linejoin="round"/>
<path d="M27.7638 19.0283H5.77344V23.911H27.7638V19.0283Z" fill="white" stroke="white" stroke-width="6" stroke-linecap="round" stroke-linejoin="round"/>
<path d="M1 23.9121H36.9946" stroke="#A00062" stroke-linecap="round" stroke-linejoin="round"/>
<path d="M31.6523 19.0277C31.6523 20.5035 32.8508 21.6967 34.3266 21.6967C35.8023 21.6967 37.0008 20.4983 37.0008 19.0277C37.0008 17.5572 35.8023 16.3535 34.3266 16.3535C32.8508 16.3535 31.6523 17.5519 31.6523 19.0277Z" stroke="#A00062" stroke-linecap="round" stroke-linejoin="round"/>
<path d="M29.7361 21.6973C29.7361 20.2215 28.5377 19.0283 27.0619 19.0283H5.76758" stroke="#A00062" stroke-miterlimit="10" stroke-linecap="square"/>
<path d="M8.63965 23.9121V35.4149" stroke="#A00062" stroke-linecap="round" stroke-linejoin="round"/>
<path d="M29.7363 23.9121V35.4149" stroke="#A00062" stroke-linecap="round" stroke-linejoin="round"/>
<path d="M3.21484 19.0283H5.77392" stroke="#A00062" stroke-linecap="round" stroke-linejoin="round"/>
</svg>
