<svg width="38" height="28" viewBox="0 0 38 28" fill="none" xmlns="http://www.w3.org/2000/svg">
<path d="M6.38965 18.208V23.403H31.616V18.208" stroke="#A00062" stroke-linecap="round" stroke-linejoin="round"/>
<path d="M19.0021 13.359V1H5.52462C4.51242 1 3.69434 1.81809 3.69434 2.83028V8.67236" stroke="#A00062" stroke-linejoin="round"/>
<path d="M19.002 13.359V1H32.4794C33.4916 1 34.3097 1.81809 34.3097 2.83028V8.67236" stroke="#A00062" stroke-linejoin="round"/>
<path d="M10.5263 24.7891C10.5263 25.9307 9.60186 26.8551 8.46025 26.8551C7.31864 26.8551 6.38965 25.9307 6.38965 24.7891" stroke="#A00062" stroke-linejoin="round"/>
<path d="M31.6151 24.7891C31.6151 25.9307 30.6907 26.8551 29.5491 26.8551C28.4075 26.8551 27.4785 25.9307 27.4785 24.7891" stroke="#A00062" stroke-linejoin="round"/>
<path d="M6.38965 23.4024V11.3623" stroke="#A00062" stroke-linecap="round" stroke-linejoin="round"/>
<path d="M3.69458 8.67188C2.20632 8.67188 1 9.8782 1 11.3665C1 12.582 1.81347 13.5988 2.92273 13.9316V23.4065H6.38453V11.3665C6.38453 9.8782 5.1782 8.67188 3.68995 8.67188H3.69458Z" stroke="#A00062" stroke-linecap="round" stroke-linejoin="round"/>
<path d="M34.3052 8.67188C35.7934 8.67188 36.9998 9.8782 36.9998 11.3665C36.9998 12.582 36.1863 13.5988 35.0771 13.9316V23.4065H31.6152V11.3665C31.6152 9.8782 32.8216 8.67188 34.3098 8.67188H34.3052Z" stroke="#A00062" stroke-linecap="round" stroke-linejoin="round"/>
<path d="M30.2286 14.7461H7.77539" stroke="#A00062" stroke-linejoin="round"/>
<path d="M7.77539 18.208H30.2286" stroke="#A00062" stroke-linejoin="round"/>
</svg>
