<svg width="36" height="33" viewBox="0 0 36 33" fill="none" xmlns="http://www.w3.org/2000/svg">
<path d="M5.66865 17.4349C3.69795 19.4056 3.22267 22.4022 4.49203 24.883C4.60795 25.109 4.52101 25.393 4.28916 25.5089C4.21961 25.5437 4.15006 25.5611 4.0805 25.5611C3.91241 25.5611 3.75012 25.4684 3.66897 25.3061C2.21993 22.4659 2.75898 19.0404 5.01948 16.7799C7.27999 14.5194 10.7055 13.9804 13.5456 15.4294C13.7717 15.5453 13.8644 15.8235 13.7485 16.0554C13.6326 16.2814 13.3544 16.3742 13.1225 16.2583C10.6418 14.9889 7.64515 15.4642 5.66865 17.4407V17.4349ZM16.1191 18.426C15.8931 18.5419 15.8004 18.8202 15.9163 19.052C17.1856 21.5328 16.7104 24.5294 14.7397 26.5001C12.769 28.4708 9.77234 28.9461 7.29158 27.6767C7.06553 27.5608 6.78152 27.6535 6.66559 27.8796C6.54967 28.1056 6.63661 28.3896 6.86846 28.5056C7.92916 29.0504 9.0768 29.3112 10.2071 29.3112C12.1082 29.3112 13.9804 28.5693 15.3946 27.155C17.6551 24.8945 18.1942 21.469 16.7451 18.6289C16.6292 18.4028 16.351 18.3101 16.1191 18.426ZM35.6522 31.4268L32.9512 32.1513C32.9106 32.1629 32.8701 32.1687 32.8295 32.1687C32.6382 32.1687 32.4585 32.047 32.3948 31.8557L29.1084 22.3616C28.7896 21.44 28.1462 20.3388 26.9 20.3388H26.0654V26.0944C27.5318 26.3204 28.6563 27.584 28.6563 29.1142C28.6563 30.8008 27.2884 32.1687 25.6017 32.1687C23.915 32.1687 22.5471 30.8008 22.5471 29.1142C22.5471 27.5898 23.6715 26.3204 25.138 26.0944V20.3388H20.2808C20.3677 20.872 20.4083 21.411 20.4083 21.9675C20.4083 27.5956 15.8293 32.1687 10.2013 32.1687C4.57318 32.1687 0 27.5956 0 21.9675C0 16.3394 4.32974 12.0155 9.73756 11.772V2.55611C9.73756 1.04911 8.50877 0.927387 7.01916 0.927387H5.70923C5.45419 0.927387 5.24553 0.718725 5.24553 0.463693C5.24553 0.208662 5.45419 0 5.70923 0H7.01916C8.20158 0 10.6649 0 10.6649 2.55611V9.54629H25.9842C27.3579 9.54629 28.2389 10.0795 28.7432 10.5316C28.9345 10.6997 28.9519 10.9953 28.778 11.1866C28.6099 11.3779 28.3143 11.3953 28.123 11.2214C27.5666 10.7287 26.8479 10.4737 25.9842 10.4737H10.6649V11.7604H25.5959C25.8509 11.7604 26.0596 11.9691 26.0596 12.2241V19.4114H26.8942C27.7057 19.4114 29.1779 19.7533 29.9778 22.0602L33.1251 31.1486L35.4088 30.54C35.658 30.4705 35.9073 30.6212 35.9768 30.8704C36.0406 31.1196 35.8957 31.3689 35.6464 31.4384L35.6522 31.4268ZM19.4809 21.9617C19.4809 21.2893 19.4114 20.6286 19.2723 19.9968C19.2723 19.9794 19.2607 19.962 19.2607 19.9446C18.3391 15.7946 14.6295 12.6878 10.2071 12.6878C5.09483 12.6878 0.933183 16.8495 0.933183 21.9675C0.933183 27.0855 5.09483 31.2413 10.2071 31.2413C15.3193 31.2413 19.4867 27.0797 19.4867 21.9675L19.4809 21.9617ZM25.138 19.4056V12.682H14.4556C17.2146 13.9514 19.3128 16.4147 20.0895 19.4056H25.1438H25.138ZM26.0654 27.0333V29.1084C26.0654 29.3634 25.8567 29.5721 25.6017 29.5721C25.3466 29.5721 25.138 29.3634 25.138 29.1084V27.0333C24.1874 27.2478 23.4745 28.094 23.4745 29.1084C23.4745 30.2792 24.4308 31.2356 25.6017 31.2356C26.7725 31.2356 27.7289 30.2792 27.7289 29.1084C27.7289 28.094 27.0159 27.242 26.0654 27.0333Z" fill="#A00062"/>
</svg>
