<svg width="38" height="28" viewBox="0 0 38 28" fill="none" xmlns="http://www.w3.org/2000/svg">
<path d="M27.8521 5.35938H10.1476C9.83823 5.35938 9.58887 5.60874 9.58887 5.91813V10.7206C11.1589 10.7206 11.1589 8.75343 12.7243 8.75343C14.2897 8.75343 14.2944 10.7206 15.8644 10.7206C17.4344 10.7206 17.4344 8.75343 19.0045 8.75343C20.5745 8.75343 20.5745 10.7206 22.1399 10.7206C23.7053 10.7206 23.71 8.75343 25.2754 8.75343C26.8408 8.75343 26.8454 10.7206 28.4154 10.7206V5.91813C28.4154 5.60874 28.1661 5.35938 27.8567 5.35938H27.8521Z" stroke="#A00062" stroke-linecap="round" stroke-linejoin="round"/>
<path d="M24.9746 24.5685V16.215C24.9746 14.8066 26.1152 13.666 27.5236 13.666H34.6349" stroke="#A00062" stroke-linecap="round" stroke-linejoin="round"/>
<path d="M24.9746 16.7461H34.6349" stroke="#A00062" stroke-linecap="round" stroke-linejoin="round"/>
<path d="M34.6348 1V24.569" stroke="#A00062" stroke-linecap="round" stroke-linejoin="round"/>
<path d="M13.0246 24.5685V16.215C13.0246 14.8066 11.884 13.666 10.4756 13.666H3.36426" stroke="#A00062" stroke-linecap="round" stroke-linejoin="round"/>
<path d="M13.0246 16.7461H3.36426" stroke="#A00062" stroke-linecap="round" stroke-linejoin="round"/>
<path d="M3.36426 1V24.569" stroke="#A00062" stroke-linecap="round" stroke-linejoin="round"/>
<path d="M1 26.7168H37" stroke="#A00062" stroke-linecap="round" stroke-linejoin="round"/>
<path d="M19 26.7161V10.7109" stroke="#A00062" stroke-linecap="round" stroke-linejoin="round"/>
</svg>
