<svg width="36" height="36" viewBox="0 0 36 36" fill="none" xmlns="http://www.w3.org/2000/svg">
<path d="M21.2444 25.7743C25.5387 23.9824 27.5673 19.0484 25.7753 14.7541C23.9834 10.4598 19.0494 8.43118 14.7551 10.2231C10.4608 12.0151 8.43216 16.949 10.2241 21.2434C12.0161 25.5377 16.95 27.5663 21.2444 25.7743Z" stroke="#A00062" stroke-linecap="round" stroke-linejoin="round"/>
<path d="M27 27C31.9706 22.0294 31.9706 13.9706 27 9C22.0294 4.02944 13.9706 4.02944 9 9C4.02944 13.9706 4.02944 22.0294 9 27C13.9706 31.9706 22.0294 31.9706 27 27Z" stroke="#A00062" stroke-linecap="round" stroke-linejoin="round"/>
<path d="M2.40039 5.28809V12.3378C2.40039 13.4196 3.04537 14.3503 3.96792 14.7748C3.96792 17.7384 3.96792 29.5724 3.96792 29.5724C3.96792 30.1929 4.47001 30.6909 5.08641 30.6909C5.7028 30.6909 6.20489 30.1888 6.20489 29.5724V14.7748C7.12744 14.3503 7.77242 13.4196 7.77242 12.3378V5.28809" fill="white"/>
<path d="M2.40039 5.28809V12.3378C2.40039 13.4196 3.04537 14.3503 3.96792 14.7748C3.96792 17.7384 3.96792 29.5724 3.96792 29.5724C3.96792 30.1929 4.47001 30.6909 5.08641 30.6909C5.7028 30.6909 6.20489 30.1888 6.20489 29.5724V14.7748C7.12744 14.3503 7.77242 13.4196 7.77242 12.3378V5.28809" stroke="white" stroke-width="4" stroke-linecap="round" stroke-linejoin="round"/>
<path d="M6.20898 14.7748C7.13153 14.3503 7.77651 13.4196 7.77651 12.3378V5.28809" fill="white"/>
<path d="M6.20898 14.7748C7.13153 14.3503 7.77651 13.4196 7.77651 12.3378V5.28809" stroke="#A00062" stroke-linecap="round" stroke-linejoin="round"/>
<path d="M2.40039 5.28809V12.3378C2.40039 13.4196 3.04537 14.3503 3.96792 14.7748C3.96792 17.7384 3.96792 29.5724 3.96792 29.5724C3.96792 30.1929 4.47001 30.6909 5.08641 30.6909C5.7028 30.6909 6.20489 30.1888 6.20489 29.5724V16.8118" stroke="#A00062" stroke-linecap="round" stroke-linejoin="round"/>
<path d="M4.19238 5.28809V11.4806" stroke="#A00062" stroke-linecap="round" stroke-linejoin="round"/>
<path d="M5.98438 5.28809V11.4806" stroke="#A00062" stroke-linecap="round" stroke-linejoin="round"/>
<path d="M30.7258 20.1846V29.5693C30.7258 30.1897 31.2279 30.6878 31.8443 30.6878C32.4607 30.6878 32.9628 30.1857 32.9628 29.5693V5.28906C30.734 5.28906 28.9297 7.4444 28.9297 10.1018V17.9884" fill="white"/>
<path d="M30.7258 20.1846V29.5693C30.7258 30.1897 31.2279 30.6878 31.8443 30.6878C32.4607 30.6878 32.9628 30.1857 32.9628 29.5693V5.28906C30.734 5.28906 28.9297 7.4444 28.9297 10.1018V17.9884" stroke="white" stroke-width="4" stroke-linecap="round" stroke-linejoin="round"/>
<path d="M30.7256 19.3715V29.5073C30.7256 30.1155 31.1787 30.6585 31.787 30.6911C32.4319 30.7238 32.9667 30.2094 32.9667 29.5726V5.69246C32.9667 5.46387 32.7667 5.28834 32.5422 5.31283C30.5134 5.56592 28.9336 7.61104 28.9336 10.1011V17.9877" fill="white"/>
<path d="M30.7256 19.3715V29.5073C30.7256 30.1155 31.1787 30.6585 31.787 30.6911C32.4319 30.7238 32.9667 30.2094 32.9667 29.5726V5.69246C32.9667 5.46387 32.7667 5.28834 32.5422 5.31283C30.5134 5.56592 28.9336 7.61104 28.9336 10.1011V17.9877" stroke="#A00062" stroke-linecap="round" stroke-linejoin="round"/>
</svg>
