<svg width="38" height="32" viewBox="0 0 38 32" fill="none" xmlns="http://www.w3.org/2000/svg">
<path d="M21.3171 25.3799H16.6816V31.4537H21.3171V25.3799Z" stroke="#A00062" stroke-linecap="round" stroke-linejoin="round"/>
<path d="M25.0837 25.3799H12.917" stroke="white" stroke-width="4" stroke-linecap="round" stroke-linejoin="round"/>
<path d="M25.6029 31.4531H12.3945" stroke="#A00062" stroke-linecap="round" stroke-linejoin="round"/>
<path d="M3.70801 22.6421V3.73633H34.2913" stroke="#A00062" stroke-linecap="round" stroke-linejoin="round"/>
<path d="M34.6354 1H3.36458C2.05866 1 1 2.06983 1 3.38953V22.99C1 24.3097 2.05866 25.3796 3.36458 25.3796H34.6354C35.9413 25.3796 37 24.3097 37 22.99V3.38953C37 2.06983 35.9413 1 34.6354 1Z" stroke="#A00062" stroke-linecap="round" stroke-linejoin="round"/>
<path d="M13.791 10.2998H17.8535" stroke="#A00062" stroke-linecap="round" stroke-linejoin="round"/>
<path d="M15.8223 16.0789V10.2998" stroke="#A00062" stroke-linecap="round" stroke-linejoin="round"/>
<path d="M20.1445 10.2998L22.1706 15.9105L24.2018 10.2998" stroke="#A00062" stroke-linecap="round" stroke-linejoin="round"/>
</svg>
