<svg width="38" height="36" viewBox="0 0 38 36" fill="none" xmlns="http://www.w3.org/2000/svg">
<path d="M36.999 1H31.6963L24.4375 10.1649" stroke="#A00062" stroke-linecap="round" stroke-linejoin="round"/>
<path d="M7.14453 7.14453H30.8934" stroke="#2E2D2C" stroke-width="2" stroke-linecap="round" stroke-linejoin="round"/>
<path d="M13.29 7.145C13.29 10.5361 10.5417 13.29 7.14502 13.29C3.74837 13.29 1 10.5417 1 7.145C1 3.74835 3.74837 1 7.14502 1C10.5417 1 13.29 3.74835 13.29 7.145Z" stroke="#A00062" stroke-linecap="round" stroke-linejoin="round"/>
<path d="M19.019 22.1386L7.14453 7.14453H30.8934L19.019 22.1386Z" fill="white" stroke="white" stroke-width="6" stroke-linecap="round" stroke-linejoin="round"/>
<path d="M13.6006 10.165H24.4388L19.0197 17.0082" stroke="#A00062" stroke-linecap="round" stroke-linejoin="round"/>
<path d="M19.019 22.1386L7.14453 7.14453H30.8934L19.019 22.1386Z" stroke="#A00062" stroke-linecap="round" stroke-linejoin="round"/>
<path d="M12.5088 34.8672H25.5358" stroke="#A00062" stroke-linecap="round" stroke-linejoin="round"/>
<path d="M19.0195 22.1396V34.8674" stroke="#A00062" stroke-linecap="round" stroke-linejoin="round"/>
</svg>
