<svg width="32" height="43" viewBox="0 0 32 43" fill="none" xmlns="http://www.w3.org/2000/svg">
<path d="M9.06823 21.3926H15.5996V34.4516H9.06823C8.79169 34.4516 8.56543 34.2228 8.56543 33.9431V21.9011C8.56543 21.6214 8.79169 21.3926 9.06823 21.3926Z" stroke="#A00062" stroke-linecap="round" stroke-linejoin="round"/>
<path d="M15.5948 21.3926L11.0495 27.561C10.8937 27.7746 10.8937 28.0696 11.0495 28.2832L15.5948 34.4516" stroke="#A00062" stroke-linecap="round" stroke-linejoin="round"/>
<path d="M11.5174 12.0162V3H7.07265V12.0162C7.07265 12.8248 6.62014 13.5367 5.94639 13.9639C4.17654 15.0878 3 18.0982 3 20.3663V38.5106C3 39.0039 3.39721 39.4006 3.8799 39.4006H14.7102C15.1979 39.4006 15.5901 38.9988 15.5901 38.5106V20.3663C15.5901 18.0932 14.4135 15.0878 12.6437 13.9639C11.9649 13.5317 11.5174 12.8248 11.5174 12.0162Z" stroke="white" stroke-width="6" stroke-linecap="round" stroke-linejoin="round"/>
<path d="M11.5174 12.0162V3H7.07265V12.0162C7.07265 12.8248 6.62014 13.5367 5.94639 13.9639C4.17654 15.0878 3 17.0812 3 19.3492V38.5106C3 39.0039 3.39721 39.4006 3.8799 39.4006H14.7102C15.1979 39.4006 15.5901 38.9988 15.5901 38.5106V19.3492C15.5901 17.0761 14.4135 15.0878 12.6437 13.9639C11.9649 13.5317 11.5174 12.8248 11.5174 12.0162Z" stroke="#A00062" stroke-linecap="round" stroke-linejoin="round"/>
<path d="M11.5229 7.4082H7.07812" stroke="white" stroke-width="2" stroke-linecap="square" stroke-linejoin="round"/>
<path d="M11.5229 6.37695H7.07812" stroke="#A00062" stroke-linecap="round" stroke-linejoin="round"/>
<path d="M28.0243 21.416L28.7534 25.0927C28.7584 25.1232 28.7685 25.1537 28.7735 25.1842C28.9042 25.7487 28.8188 26.2216 28.507 26.6234C27.9741 27.3048 26.883 27.7116 25.5908 27.7116" stroke="#A00062" stroke-linecap="round" stroke-linejoin="round"/>
<path d="M20.9624 18.7256C20.5753 20.6733 20.1931 22.6209 19.806 24.5686C19.0468 27.7978 21.6362 30.4116 25.5831 30.4116C29.5351 30.4116 32.1195 27.7927 31.3603 24.5686C30.9731 22.6209 30.591 20.6733 30.2039 18.7256H20.9574H20.9624Z" stroke="#A00062" stroke-linecap="round" stroke-linejoin="round"/>
<path d="M25.5791 30.4229V39.4187" stroke="#A00062" stroke-linecap="round" stroke-linejoin="round"/>
<path d="M20.9043 39.418H30.2563" stroke="#A00062" stroke-linecap="round" stroke-linejoin="round"/>
</svg>
