<svg width="38" height="38" viewBox="0 0 38 38" fill="none" xmlns="http://www.w3.org/2000/svg">
<path d="M5.8142 37.4091C8.47301 37.4091 10.6284 35.2291 10.6284 32.54C10.6284 29.8509 8.47301 27.6709 5.8142 27.6709C3.15539 27.6709 1 29.8509 1 32.54C1 35.2291 3.15539 37.4091 5.8142 37.4091Z" stroke="#A00062" stroke-miterlimit="10" stroke-linecap="round"/>
<path d="M5.81445 27.6709C8.47413 27.6709 10.6287 29.85 10.6287 32.54" stroke="#A00062" stroke-miterlimit="10" stroke-linecap="round"/>
<path d="M5.81445 21.0049C12.1137 21.0049 17.22 26.1694 17.22 32.5405" stroke="#A00062" stroke-miterlimit="10" stroke-linecap="round"/>
<path d="M5.81445 14.3379C15.7533 14.3379 23.8114 22.4879 23.8114 32.54" stroke="#A00062" stroke-miterlimit="10" stroke-linecap="round"/>
<path d="M5.81445 7.67285C19.3928 7.67285 30.4028 18.8083 30.4028 32.5415" stroke="#A00062" stroke-miterlimit="10" stroke-linecap="round"/>
<path d="M5.81445 1C23.0385 1 36.9942 15.1209 36.9942 32.5351" stroke="#A00062" stroke-miterlimit="10" stroke-linecap="round"/>
</svg>
