<svg width="36" height="34" viewBox="0 0 36 34" fill="none" xmlns="http://www.w3.org/2000/svg">
<path fill-rule="evenodd" clip-rule="evenodd" d="M34.3636 19.6364V33.2727C34.3636 33.5727 34.1182 33.8182 33.8182 33.8182C33.5182 33.8182 33.2727 33.5727 33.2727 33.2727V19.6364H15.8182V30C15.8182 30.3 15.5727 30.5455 15.2727 30.5455H2.72727V33.2727C2.72727 33.5727 2.48182 33.8182 2.18182 33.8182C1.88182 33.8182 1.63636 33.5727 1.63636 33.2727V19.6364H0.545455C0.245455 19.6364 0 19.3909 0 19.0909V14.7273C0 14.4273 0.245455 14.1818 0.545455 14.1818H7.09091V10.9091H3.27273C2.94 10.9091 2.68364 10.6145 2.73273 10.2873L3.82364 2.65091C3.86182 2.38364 4.09091 2.18182 4.36364 2.18182H10.9091C11.1818 2.18182 11.4109 2.38364 11.4491 2.65091L12.54 10.2873C12.5891 10.6145 12.3327 10.9091 12 10.9091H8.18182V14.1818H24V10.3636H17.4545C17.1545 10.3636 16.9091 10.1182 16.9091 9.81818V0.545455C16.9091 0.245455 17.1545 0 17.4545 0H31.6364C31.9364 0 32.1818 0.245455 32.1818 0.545455V9.81818C32.1818 10.1182 31.9364 10.3636 31.6364 10.3636H25.0909V14.1818H35.4545C35.7545 14.1818 36 14.4273 36 14.7273V19.0909C36 19.3909 35.7545 19.6364 35.4545 19.6364H34.3636ZM2.72727 25.0909V29.4545H14.7273V25.0909H2.72727ZM2.72727 24H14.7273V19.6364H2.72727V24ZM4.83818 3.27273L3.90545 9.81818H11.3727L10.44 3.27273H4.83818ZM31.0909 9.27273V1.09091H18V9.27273H31.0909ZM1.09091 18.5455H34.9091V15.2727H1.09091V18.5455Z" fill="#A00062"/>
</svg>
